<svg width="124" height="590" viewBox="0 0 124 590" fill="none" xmlns="http://www.w3.org/2000/svg">
<path d="M120.034 6.00145C118.368 6.00145 117.017 4.65754 117.017 3.00077C117.017 1.34399 118.368 7.60893e-05 120.034 7.61621e-05C121.699 7.62349e-05 123.05 1.34399 123.05 3.00077C123.05 4.65754 121.699 6.00145 120.034 6.00145Z" fill="#CDE9FE"/>
<path d="M120.034 45.1384C118.368 45.1384 117.017 43.7945 117.017 42.1377C117.017 40.4809 118.368 39.137 120.034 39.137C121.699 39.137 123.05 40.4809 123.05 42.1391C123.05 43.7959 121.699 45.1384 120.034 45.1384Z" fill="#CDE9FE"/>
<path d="M120.034 84.2768C118.368 84.2768 117.017 82.9329 117.017 81.2761C117.017 79.6193 118.368 78.2754 120.034 78.2754C121.699 78.2754 123.05 79.6193 123.05 81.2761C123.05 82.9329 121.699 84.2768 120.034 84.2768Z" fill="#CDE9FE"/>
<path d="M117.017 120.414C117.017 122.072 118.368 123.415 120.034 123.415C121.699 123.415 123.05 122.072 123.05 120.414C123.05 118.757 121.699 117.414 120.034 117.414C118.368 117.414 117.017 118.757 117.017 120.414Z" fill="#CDE9FE"/>
<path d="M81.0316 6.00145C79.366 6.00145 78.015 4.65754 78.015 3.00077C78.015 1.34399 79.366 7.60893e-05 81.0316 7.61621e-05C82.6971 7.62349e-05 84.0481 1.34399 84.0481 3.00077C84.0481 4.65754 82.6971 6.00145 81.0316 6.00145Z" fill="#CDE9FE"/>
<path d="M81.0316 45.1384C79.366 45.1384 78.015 43.7945 78.015 42.1377C78.015 40.4809 79.366 39.137 81.0316 39.137C82.6971 39.137 84.0481 40.4809 84.0481 42.1377C84.0481 43.7959 82.6971 45.1384 81.0316 45.1384Z" fill="#CDE9FE"/>
<path d="M81.0316 84.2768C79.366 84.2768 78.015 82.9329 78.015 81.2761C78.015 79.6193 79.366 78.2754 81.0316 78.2754C82.6971 78.2754 84.0481 79.6193 84.0481 81.2761C84.0481 82.9329 82.6971 84.2768 81.0316 84.2768Z" fill="#CDE9FE"/>
<path d="M78.015 120.414C78.015 122.072 79.3656 123.415 81.0316 123.415C82.6975 123.415 84.0481 122.072 84.0481 120.414C84.0481 118.757 82.6975 117.414 81.0316 117.414C79.3656 117.414 78.015 118.757 78.015 120.414Z" fill="#CDE9FE"/>
<path d="M42.0296 6.00145C40.3641 6.00145 39.0131 4.65754 39.0131 3.00077C39.0131 1.34399 40.3626 7.60892e-05 42.0296 7.61621e-05C43.6951 7.62349e-05 45.0461 1.34399 45.0461 3.00077C45.0461 4.65754 43.6951 6.00145 42.0296 6.00145Z" fill="#CDE9FE"/>
<path d="M42.0296 45.1384C40.3641 45.1384 39.0131 43.7945 39.0131 42.1377C39.0131 40.4809 40.3641 39.137 42.0296 39.137C43.6951 39.137 45.0461 40.4809 45.0461 42.1377C45.0461 43.7959 43.6951 45.1384 42.0296 45.1384Z" fill="#CDE9FE"/>
<path d="M42.0296 84.2768C40.3641 84.2768 39.0131 82.9328 39.0131 81.2761C39.0131 79.6193 40.3641 78.2754 42.0296 78.2754C43.6951 78.2754 45.0461 79.6193 45.0461 81.2761C45.0461 82.9328 43.6951 84.2768 42.0296 84.2768Z" fill="#CDE9FE"/>
<path d="M42.0296 123.415C40.3641 123.415 39.0131 122.071 39.0131 120.414C39.0131 118.758 40.3641 117.414 42.0296 117.414C43.6951 117.414 45.0461 118.758 45.0461 120.414C45.0461 122.071 43.6951 123.415 42.0296 123.415Z" fill="#CDE9FE"/>
<path d="M3.0274 6.00145C1.36187 6.00145 0.0108598 4.65754 0.0108598 3.00077C0.0108599 1.34399 1.36187 7.60893e-05 3.0274 7.61621e-05C4.69293 7.62349e-05 6.04395 1.34399 6.04395 3.00077C6.04395 4.65754 4.69293 6.00145 3.0274 6.00145Z" fill="#CDE9FE"/>
<path d="M3.0274 45.1384C1.36187 45.1384 0.0108598 43.7945 0.0108598 42.1377C0.0108599 40.4809 1.36187 39.137 3.0274 39.137C4.69293 39.137 6.04395 40.4809 6.04395 42.1377C6.04395 43.7959 4.69293 45.1384 3.0274 45.1384Z" fill="#CDE9FE"/>
<path d="M3.0274 84.2768C1.36187 84.2768 0.0108598 82.9329 0.0108598 81.2761C0.0108599 79.6193 1.36187 78.2754 3.0274 78.2754C4.69293 78.2754 6.04395 79.6193 6.04395 81.2761C6.04395 82.9329 4.69293 84.2768 3.0274 84.2768Z" fill="#CDE9FE"/>
<path d="M0.0108598 120.414C0.0108598 122.072 1.36141 123.415 3.0274 123.415C4.69339 123.415 6.04395 122.072 6.04395 120.414C6.04395 118.757 4.69339 117.414 3.0274 117.414C1.36141 117.414 0.0108599 118.757 0.0108598 120.414Z" fill="#CDE9FE"/>
<path d="M120.034 162.586C118.368 162.586 117.017 161.242 117.017 159.586C117.017 157.929 118.368 156.585 120.034 156.585C121.699 156.585 123.05 157.929 123.05 159.586C123.05 161.242 121.699 162.586 120.034 162.586Z" fill="#CDE9FE"/>
<path d="M120.034 201.723C118.368 201.723 117.017 200.379 117.017 198.723C117.017 197.066 118.368 195.722 120.034 195.722C121.699 195.722 123.05 197.066 123.05 198.724C123.05 200.381 121.699 201.723 120.034 201.723Z" fill="#CDE9FE"/>
<path d="M120.034 240.862C118.368 240.862 117.017 239.518 117.017 237.861C117.017 236.204 118.368 234.86 120.034 234.86C121.699 234.86 123.05 236.204 123.05 237.861C123.05 239.518 121.699 240.862 120.034 240.862Z" fill="#CDE9FE"/>
<path d="M117.017 276.999C117.017 278.657 118.368 280 120.034 280C121.699 280 123.05 278.657 123.05 276.999C123.05 275.342 121.699 273.999 120.034 273.999C118.368 273.999 117.017 275.342 117.017 276.999Z" fill="#CDE9FE"/>
<path d="M81.0316 162.586C79.366 162.586 78.015 161.242 78.015 159.586C78.015 157.929 79.366 156.585 81.0316 156.585C82.6971 156.585 84.0481 157.929 84.0481 159.586C84.0481 161.242 82.6971 162.586 81.0316 162.586Z" fill="#CDE9FE"/>
<path d="M81.0316 201.723C79.366 201.723 78.015 200.379 78.015 198.723C78.015 197.066 79.366 195.722 81.0316 195.722C82.6971 195.722 84.0481 197.066 84.0481 198.723C84.0481 200.381 82.6971 201.723 81.0316 201.723Z" fill="#CDE9FE"/>
<path d="M81.0316 240.862C79.366 240.862 78.015 239.518 78.015 237.861C78.015 236.204 79.366 234.86 81.0316 234.86C82.6971 234.86 84.0481 236.204 84.0481 237.861C84.0481 239.518 82.6971 240.862 81.0316 240.862Z" fill="#CDE9FE"/>
<path d="M78.015 276.999C78.015 278.657 79.3656 280 81.0316 280C82.6975 280 84.0481 278.657 84.0481 276.999C84.0481 275.342 82.6975 273.999 81.0316 273.999C79.3656 273.999 78.015 275.342 78.015 276.999Z" fill="#CDE9FE"/>
<path d="M42.0296 162.586C40.3641 162.586 39.0131 161.242 39.0131 159.586C39.0131 157.929 40.3626 156.585 42.0296 156.585C43.6951 156.585 45.0461 157.929 45.0461 159.586C45.0461 161.242 43.6951 162.586 42.0296 162.586Z" fill="#CDE9FE"/>
<path d="M42.0296 201.723C40.3641 201.723 39.0131 200.379 39.0131 198.723C39.0131 197.066 40.3641 195.722 42.0296 195.722C43.6951 195.722 45.0461 197.066 45.0461 198.723C45.0461 200.381 43.6951 201.723 42.0296 201.723Z" fill="#CDE9FE"/>
<path d="M42.0296 240.862C40.3641 240.862 39.0131 239.518 39.0131 237.861C39.0131 236.204 40.3641 234.86 42.0296 234.86C43.6951 234.86 45.0461 236.204 45.0461 237.861C45.0461 239.518 43.6951 240.862 42.0296 240.862Z" fill="#CDE9FE"/>
<path d="M42.0296 280C40.3641 280 39.0131 278.656 39.0131 276.999C39.0131 275.343 40.3641 273.999 42.0296 273.999C43.6951 273.999 45.0461 275.343 45.0461 276.999C45.0461 278.656 43.6951 280 42.0296 280Z" fill="#CDE9FE"/>
<path d="M3.0274 162.586C1.36187 162.586 0.0108598 161.242 0.0108598 159.586C0.0108599 157.929 1.36187 156.585 3.0274 156.585C4.69293 156.585 6.04395 157.929 6.04395 159.586C6.04395 161.242 4.69293 162.586 3.0274 162.586Z" fill="#CDE9FE"/>
<path d="M3.0274 201.723C1.36187 201.723 0.0108598 200.379 0.0108598 198.723C0.0108599 197.066 1.36187 195.722 3.0274 195.722C4.69293 195.722 6.04395 197.066 6.04395 198.723C6.04395 200.381 4.69293 201.723 3.0274 201.723Z" fill="#CDE9FE"/>
<path d="M3.0274 240.862C1.36187 240.862 0.0108598 239.518 0.0108598 237.861C0.0108599 236.204 1.36187 234.86 3.0274 234.86C4.69293 234.86 6.04395 236.204 6.04395 237.861C6.04395 239.518 4.69293 240.862 3.0274 240.862Z" fill="#CDE9FE"/>
<path d="M0.0108598 276.999C0.0108598 278.657 1.36141 280 3.0274 280C4.69339 280 6.04395 278.657 6.04395 276.999C6.04395 275.342 4.69339 273.999 3.0274 273.999C1.36141 273.999 0.0108599 275.342 0.0108598 276.999Z" fill="#CDE9FE"/>
<path d="M120.038 583.999C118.372 583.999 117.021 585.343 117.021 586.999C117.021 588.656 118.372 590 120.038 590C121.703 590 123.054 588.656 123.054 586.999C123.054 585.343 121.703 583.999 120.038 583.999Z" fill="#CDE9FE"/>
<path d="M120.038 544.862C118.372 544.862 117.021 546.206 117.021 547.862C117.021 549.519 118.372 550.863 120.038 550.863C121.703 550.863 123.054 549.519 123.054 547.861C123.054 546.204 121.703 544.862 120.038 544.862Z" fill="#CDE9FE"/>
<path d="M120.038 505.723C118.372 505.723 117.021 507.067 117.021 508.724C117.021 510.381 118.372 511.725 120.038 511.725C121.703 511.725 123.054 510.381 123.054 508.724C123.054 507.067 121.703 505.723 120.038 505.723Z" fill="#CDE9FE"/>
<path d="M117.021 469.586C117.021 467.928 118.372 466.585 120.038 466.585C121.704 466.585 123.054 467.928 123.054 469.586C123.054 471.243 121.704 472.586 120.038 472.586C118.372 472.586 117.021 471.243 117.021 469.586Z" fill="#CDE9FE"/>
<path d="M81.0359 583.999C79.3704 583.999 78.0194 585.343 78.0194 586.999C78.0194 588.656 79.3704 590 81.0359 590C82.7015 590 84.0525 588.656 84.0525 586.999C84.0525 585.343 82.7015 583.999 81.0359 583.999Z" fill="#CDE9FE"/>
<path d="M81.0359 544.862C79.3704 544.862 78.0194 546.206 78.0194 547.862C78.0194 549.519 79.3704 550.863 81.0359 550.863C82.7015 550.863 84.0525 549.519 84.0525 547.862C84.0525 546.204 82.7015 544.862 81.0359 544.862Z" fill="#CDE9FE"/>
<path d="M81.0359 505.723C79.3704 505.723 78.0194 507.067 78.0194 508.724C78.0194 510.381 79.3704 511.725 81.0359 511.725C82.7015 511.725 84.0525 510.381 84.0525 508.724C84.0525 507.067 82.7015 505.723 81.0359 505.723Z" fill="#CDE9FE"/>
<path d="M78.0194 469.586C78.0194 467.928 79.37 466.585 81.0359 466.585C82.7019 466.585 84.0525 467.928 84.0525 469.586C84.0525 471.243 82.7019 472.586 81.0359 472.586C79.37 472.586 78.0194 471.243 78.0194 469.586Z" fill="#CDE9FE"/>
<path d="M42.034 583.999C40.3685 583.999 39.0175 585.343 39.0175 586.999C39.0175 588.656 40.367 590 42.034 590C43.6995 590 45.0505 588.656 45.0505 586.999C45.0505 585.343 43.6995 583.999 42.034 583.999Z" fill="#CDE9FE"/>
<path d="M42.034 544.862C40.3685 544.862 39.0175 546.206 39.0175 547.862C39.0175 549.519 40.3685 550.863 42.034 550.863C43.6995 550.863 45.0505 549.519 45.0505 547.862C45.0505 546.204 43.6995 544.862 42.034 544.862Z" fill="#CDE9FE"/>
<path d="M42.034 505.723C40.3685 505.723 39.0175 507.067 39.0175 508.724C39.0175 510.381 40.3685 511.725 42.034 511.725C43.6995 511.725 45.0505 510.381 45.0505 508.724C45.0505 507.067 43.6995 505.723 42.034 505.723Z" fill="#CDE9FE"/>
<path d="M42.034 466.585C40.3685 466.585 39.0175 467.929 39.0175 469.586C39.0175 471.242 40.3685 472.586 42.034 472.586C43.6995 472.586 45.0505 471.242 45.0505 469.586C45.0505 467.929 43.6995 466.585 42.034 466.585Z" fill="#CDE9FE"/>
<path d="M3.0318 583.999C1.36627 583.999 0.0152543 585.343 0.0152544 586.999C0.0152544 588.656 1.36627 590 3.0318 590C4.69733 590 6.04834 588.656 6.04834 586.999C6.04834 585.343 4.69733 583.999 3.0318 583.999Z" fill="#CDE9FE"/>
<path d="M3.0318 544.862C1.36627 544.862 0.0152543 546.206 0.0152544 547.862C0.0152544 549.519 1.36627 550.863 3.0318 550.863C4.69733 550.863 6.04834 549.519 6.04834 547.862C6.04834 546.204 4.69733 544.862 3.0318 544.862Z" fill="#CDE9FE"/>
<path d="M3.0318 505.723C1.36627 505.723 0.0152543 507.067 0.0152544 508.724C0.0152544 510.381 1.36627 511.725 3.0318 511.725C4.69733 511.725 6.04834 510.381 6.04834 508.724C6.04834 507.067 4.69733 505.723 3.0318 505.723Z" fill="#CDE9FE"/>
<path d="M0.0152544 469.586C0.0152543 467.928 1.36581 466.585 3.0318 466.585C4.69779 466.585 6.04834 467.928 6.04834 469.586C6.04834 471.243 4.69779 472.586 3.0318 472.586C1.36581 472.586 0.0152544 471.243 0.0152544 469.586Z" fill="#CDE9FE"/>
<path d="M120.038 427.414C118.372 427.414 117.021 428.758 117.021 430.414C117.021 432.071 118.372 433.415 120.038 433.415C121.703 433.415 123.054 432.071 123.054 430.414C123.054 428.758 121.703 427.414 120.038 427.414Z" fill="#CDE9FE"/>
<path d="M120.038 388.277C118.372 388.277 117.021 389.621 117.021 391.278C117.021 392.934 118.372 394.278 120.038 394.278C121.703 394.278 123.054 392.934 123.054 391.276C123.054 389.619 121.703 388.277 120.038 388.277Z" fill="#CDE9FE"/>
<path d="M120.038 349.138C118.372 349.138 117.021 350.482 117.021 352.139C117.021 353.796 118.372 355.14 120.038 355.14C121.703 355.14 123.054 353.796 123.054 352.139C123.054 350.482 121.703 349.138 120.038 349.138Z" fill="#CDE9FE"/>
<path d="M117.021 313.001C117.021 311.344 118.372 310 120.038 310C121.704 310 123.054 311.344 123.054 313.001C123.054 314.658 121.704 316.001 120.038 316.001C118.372 316.001 117.021 314.658 117.021 313.001Z" fill="#CDE9FE"/>
<path d="M81.0359 427.414C79.3704 427.414 78.0194 428.758 78.0194 430.414C78.0194 432.071 79.3704 433.415 81.0359 433.415C82.7015 433.415 84.0525 432.071 84.0525 430.414C84.0525 428.758 82.7015 427.414 81.0359 427.414Z" fill="#CDE9FE"/>
<path d="M81.0359 388.277C79.3704 388.277 78.0194 389.621 78.0194 391.278C78.0194 392.934 79.3704 394.278 81.0359 394.278C82.7015 394.278 84.0525 392.934 84.0525 391.278C84.0525 389.619 82.7015 388.277 81.0359 388.277Z" fill="#CDE9FE"/>
<path d="M81.0359 349.138C79.3704 349.138 78.0194 350.482 78.0194 352.139C78.0194 353.796 79.3704 355.14 81.0359 355.14C82.7015 355.14 84.0525 353.796 84.0525 352.139C84.0525 350.482 82.7015 349.138 81.0359 349.138Z" fill="#CDE9FE"/>
<path d="M78.0194 313.001C78.0194 311.344 79.37 310 81.0359 310C82.7019 310 84.0525 311.344 84.0525 313.001C84.0525 314.658 82.7019 316.001 81.0359 316.001C79.37 316.001 78.0194 314.658 78.0194 313.001Z" fill="#CDE9FE"/>
<path d="M42.034 427.414C40.3685 427.414 39.0175 428.758 39.0175 430.414C39.0175 432.071 40.367 433.415 42.034 433.415C43.6995 433.415 45.0505 432.071 45.0505 430.414C45.0505 428.758 43.6995 427.414 42.034 427.414Z" fill="#CDE9FE"/>
<path d="M42.034 388.277C40.3685 388.277 39.0175 389.621 39.0175 391.277C39.0175 392.934 40.3685 394.278 42.034 394.278C43.6995 394.278 45.0505 392.934 45.0505 391.277C45.0505 389.619 43.6995 388.277 42.034 388.277Z" fill="#CDE9FE"/>
<path d="M42.034 349.138C40.3685 349.138 39.0175 350.482 39.0175 352.139C39.0175 353.796 40.3685 355.14 42.034 355.14C43.6995 355.14 45.0505 353.796 45.0505 352.139C45.0505 350.482 43.6995 349.138 42.034 349.138Z" fill="#CDE9FE"/>
<path d="M42.034 310C40.3685 310 39.0175 311.344 39.0175 313.001C39.0175 314.658 40.3685 316.001 42.034 316.001C43.6995 316.001 45.0505 314.658 45.0505 313.001C45.0505 311.344 43.6995 310 42.034 310Z" fill="#CDE9FE"/>
<path d="M3.0318 427.414C1.36627 427.414 0.0152543 428.758 0.0152544 430.414C0.0152544 432.071 1.36627 433.415 3.0318 433.415C4.69733 433.415 6.04834 432.071 6.04834 430.414C6.04834 428.758 4.69733 427.414 3.0318 427.414Z" fill="#CDE9FE"/>
<path d="M3.0318 388.277C1.36627 388.277 0.0152543 389.621 0.0152544 391.278C0.0152544 392.934 1.36627 394.278 3.0318 394.278C4.69733 394.278 6.04834 392.934 6.04834 391.278C6.04834 389.619 4.69733 388.277 3.0318 388.277Z" fill="#CDE9FE"/>
<path d="M3.0318 349.138C1.36627 349.138 0.0152543 350.482 0.0152544 352.139C0.0152544 353.796 1.36627 355.14 3.0318 355.14C4.69733 355.14 6.04834 353.796 6.04834 352.139C6.04834 350.482 4.69733 349.138 3.0318 349.138Z" fill="#CDE9FE"/>
<path d="M0.0152544 313.001C0.0152543 311.344 1.36581 310 3.0318 310C4.69779 310 6.04834 311.344 6.04834 313.001C6.04834 314.658 4.69779 316.001 3.0318 316.001C1.36581 316.001 0.0152544 314.658 0.0152544 313.001Z" fill="#CDE9FE"/>
</svg>
