<svg width="124" height="124" viewBox="0 0 124 124" fill="none" xmlns="http://www.w3.org/2000/svg">
<path d="M120.038 117.414C118.372 117.414 117.021 118.758 117.021 120.414C117.021 122.071 118.372 123.415 120.038 123.415C121.703 123.415 123.054 122.071 123.054 120.414C123.054 118.758 121.703 117.414 120.038 117.414Z" fill="#CDE9FE"/>
<path d="M120.038 78.2768C118.372 78.2768 117.021 79.6207 117.021 81.2775C117.021 82.9343 118.372 84.2782 120.038 84.2782C121.703 84.2782 123.054 82.9343 123.054 81.2761C123.054 79.6193 121.703 78.2768 120.038 78.2768Z" fill="#CDE9FE"/>
<path d="M120.038 39.1385C118.372 39.1385 117.021 40.4824 117.021 42.1391C117.021 43.7959 118.372 45.1398 120.038 45.1398C121.703 45.1398 123.054 43.7959 123.054 42.1391C123.054 40.4824 121.703 39.1385 120.038 39.1385Z" fill="#CDE9FE"/>
<path d="M117.021 3.00074C117.021 1.3435 118.372 4.64579e-05 120.038 4.63851e-05C121.704 4.63122e-05 123.054 1.3435 123.054 3.00074C123.054 4.65798 121.704 6.00143 120.038 6.00143C118.372 6.00143 117.021 4.65798 117.021 3.00074Z" fill="#CDE9FE"/>
<path d="M81.0359 117.414C79.3704 117.414 78.0194 118.758 78.0194 120.414C78.0194 122.071 79.3704 123.415 81.0359 123.415C82.7015 123.415 84.0525 122.071 84.0525 120.414C84.0525 118.758 82.7015 117.414 81.0359 117.414Z" fill="#CDE9FE"/>
<path d="M81.0359 78.2768C79.3704 78.2768 78.0194 79.6207 78.0194 81.2775C78.0194 82.9343 79.3704 84.2782 81.0359 84.2782C82.7015 84.2782 84.0525 82.9343 84.0525 81.2775C84.0525 79.6193 82.7015 78.2768 81.0359 78.2768Z" fill="#CDE9FE"/>
<path d="M81.0359 39.1385C79.3704 39.1385 78.0194 40.4824 78.0194 42.1391C78.0194 43.7959 79.3704 45.1398 81.0359 45.1398C82.7015 45.1398 84.0525 43.7959 84.0525 42.1391C84.0525 40.4824 82.7015 39.1385 81.0359 39.1385Z" fill="#CDE9FE"/>
<path d="M78.0194 3.00074C78.0194 1.3435 79.37 4.64579e-05 81.0359 4.63851e-05C82.7019 4.63122e-05 84.0525 1.3435 84.0525 3.00074C84.0525 4.65798 82.7019 6.00143 81.0359 6.00143C79.37 6.00143 78.0194 4.65798 78.0194 3.00074Z" fill="#CDE9FE"/>
<path d="M42.034 117.414C40.3685 117.414 39.0175 118.758 39.0175 120.414C39.0175 122.071 40.367 123.415 42.034 123.415C43.6995 123.415 45.0505 122.071 45.0505 120.414C45.0505 118.758 43.6995 117.414 42.034 117.414Z" fill="#CDE9FE"/>
<path d="M42.034 78.2768C40.3685 78.2768 39.0175 79.6207 39.0175 81.2775C39.0175 82.9342 40.3685 84.2781 42.034 84.2781C43.6995 84.2781 45.0505 82.9342 45.0505 81.2775C45.0505 79.6192 43.6995 78.2768 42.034 78.2768Z" fill="#CDE9FE"/>
<path d="M42.034 39.1385C40.3685 39.1385 39.0175 40.4824 39.0175 42.1391C39.0175 43.7959 40.3685 45.1398 42.034 45.1398C43.6995 45.1398 45.0505 43.7959 45.0505 42.1391C45.0505 40.4824 43.6995 39.1385 42.034 39.1385Z" fill="#CDE9FE"/>
<path d="M42.034 4.63851e-05C40.3685 4.64579e-05 39.0175 1.34396 39.0175 3.00074C39.0175 4.65752 40.3685 6.00143 42.034 6.00143C43.6995 6.00143 45.0505 4.65752 45.0505 3.00074C45.0505 1.34396 43.6995 4.63123e-05 42.034 4.63851e-05Z" fill="#CDE9FE"/>
<path d="M3.0318 117.414C1.36627 117.414 0.0152543 118.758 0.0152544 120.414C0.0152544 122.071 1.36627 123.415 3.0318 123.415C4.69733 123.415 6.04834 122.071 6.04834 120.414C6.04834 118.758 4.69733 117.414 3.0318 117.414Z" fill="#CDE9FE"/>
<path d="M3.0318 78.2768C1.36627 78.2768 0.0152543 79.6207 0.0152544 81.2775C0.0152544 82.9343 1.36627 84.2782 3.0318 84.2782C4.69733 84.2782 6.04834 82.9343 6.04834 81.2775C6.04834 79.6193 4.69733 78.2768 3.0318 78.2768Z" fill="#CDE9FE"/>
<path d="M3.0318 39.1385C1.36627 39.1385 0.0152543 40.4824 0.0152544 42.1391C0.0152544 43.7959 1.36627 45.1398 3.0318 45.1398C4.69733 45.1398 6.04834 43.7959 6.04834 42.1391C6.04834 40.4824 4.69733 39.1385 3.0318 39.1385Z" fill="#CDE9FE"/>
<path d="M0.0152544 3.00074C0.0152543 1.3435 1.36581 4.64579e-05 3.0318 4.63851e-05C4.69779 4.63122e-05 6.04834 1.3435 6.04834 3.00074C6.04834 4.65798 4.69779 6.00143 3.0318 6.00143C1.36581 6.00143 0.0152544 4.65798 0.0152544 3.00074Z" fill="#CDE9FE"/>
</svg>
