<svg width="120" height="120" viewBox="0 0 120 120" fill="none" xmlns="http://www.w3.org/2000/svg">
<path d="M5.83531 2.94203C5.83531 4.56643 4.52859 5.88407 2.91766 5.88407C1.30672 5.88407 0 4.56643 0 2.94203C0 1.31764 1.30672 0 2.91766 0C4.52859 0 5.83531 1.31764 5.83531 2.94203Z" fill="#CDE9FE"/>
<path d="M43.8893 2.94203C43.8893 4.56643 42.5825 5.88407 40.9716 5.88407C39.3607 5.88407 38.054 4.56643 38.054 2.94203C38.054 1.31764 39.3607 0 40.973 0C42.5839 0 43.8893 1.31764 43.8893 2.94203Z" fill="#CDE9FE"/>
<path d="M81.9447 2.94203C81.9447 4.56643 80.638 5.88407 79.027 5.88407C77.4161 5.88407 76.1094 4.56643 76.1094 2.94203C76.1094 1.31764 77.4161 0 79.027 0C80.638 0 81.9447 1.31764 81.9447 2.94203Z" fill="#CDE9FE"/>
<path d="M117.082 5.88407C118.694 5.88407 120 4.56688 120 2.94203C120 1.31719 118.694 0 117.082 0C115.471 0 114.165 1.31719 114.165 2.94203C114.165 4.56688 115.471 5.88407 117.082 5.88407Z" fill="#CDE9FE"/>
<path d="M5.83531 40.9806C5.83531 42.605 4.52859 43.9226 2.91766 43.9226C1.30672 43.9226 0 42.605 0 40.9806C0 39.3562 1.30672 38.0386 2.91766 38.0386C4.52859 38.0386 5.83531 39.3562 5.83531 40.9806Z" fill="#CDE9FE"/>
<path d="M43.8893 40.9806C43.8893 42.605 42.5825 43.9226 40.9716 43.9226C39.3607 43.9226 38.054 42.605 38.054 40.9806C38.054 39.3562 39.3607 38.0386 40.9716 38.0386C42.5839 38.0386 43.8893 39.3562 43.8893 40.9806Z" fill="#CDE9FE"/>
<path d="M81.9447 40.9806C81.9447 42.605 80.638 43.9226 79.027 43.9226C77.4161 43.9226 76.1094 42.605 76.1094 40.9806C76.1094 39.3562 77.4161 38.0386 79.027 38.0386C80.638 38.0386 81.9447 39.3562 81.9447 40.9806Z" fill="#CDE9FE"/>
<path d="M117.082 43.9226C118.694 43.9226 120 42.6054 120 40.9806C120 39.3558 118.694 38.0386 117.082 38.0386C115.471 38.0386 114.165 39.3558 114.165 40.9806C114.165 42.6054 115.471 43.9226 117.082 43.9226Z" fill="#CDE9FE"/>
<path d="M5.83531 79.0192C5.83531 80.6436 4.52859 81.9612 2.91766 81.9612C1.30672 81.9612 0 80.645 0 79.0192C0 77.3948 1.30672 76.0771 2.91766 76.0771C4.52859 76.0771 5.83531 77.3948 5.83531 79.0192Z" fill="#CDE9FE"/>
<path d="M43.8893 79.0192C43.8893 80.6436 42.5825 81.9612 40.9716 81.9612C39.3607 81.9612 38.054 80.6436 38.054 79.0192C38.054 77.3948 39.3607 76.0771 40.9716 76.0771C42.5839 76.0771 43.8893 77.3948 43.8893 79.0192Z" fill="#CDE9FE"/>
<path d="M81.9447 79.0192C81.9447 80.6436 80.638 81.9612 79.027 81.9612C77.4161 81.9612 76.1094 80.6436 76.1094 79.0192C76.1094 77.3948 77.4161 76.0771 79.027 76.0771C80.638 76.0771 81.9447 77.3948 81.9447 79.0192Z" fill="#CDE9FE"/>
<path d="M120 79.0192C120 80.6436 118.693 81.9612 117.082 81.9612C115.472 81.9612 114.165 80.6436 114.165 79.0192C114.165 77.3948 115.472 76.0771 117.082 76.0771C118.693 76.0771 120 77.3948 120 79.0192Z" fill="#CDE9FE"/>
<path d="M5.83531 117.058C5.83531 118.682 4.52859 120 2.91766 120C1.30672 120 0 118.682 0 117.058C0 115.433 1.30672 114.116 2.91766 114.116C4.52859 114.116 5.83531 115.433 5.83531 117.058Z" fill="#CDE9FE"/>
<path d="M43.8893 117.058C43.8893 118.682 42.5825 120 40.9716 120C39.3607 120 38.054 118.682 38.054 117.058C38.054 115.433 39.3607 114.116 40.9716 114.116C42.5839 114.116 43.8893 115.433 43.8893 117.058Z" fill="#CDE9FE"/>
<path d="M81.9447 117.058C81.9447 118.682 80.638 120 79.027 120C77.4161 120 76.1094 118.682 76.1094 117.058C76.1094 115.433 77.4161 114.116 79.027 114.116C80.638 114.116 81.9447 115.433 81.9447 117.058Z" fill="#CDE9FE"/>
<path d="M117.082 120C118.694 120 120 118.683 120 117.058C120 115.433 118.694 114.116 117.082 114.116C115.471 114.116 114.165 115.433 114.165 117.058C114.165 118.683 115.471 120 117.082 120Z" fill="#CDE9FE"/>
</svg>
