<svg width="86" height="83" viewBox="0 0 86 83" fill="none" xmlns="http://www.w3.org/2000/svg">
<g filter="url(#filter0_d_1736_9786)">
<ellipse cx="21.5954" cy="21.3557" rx="21.5954" ry="21.3557" transform="matrix(-1 0 0 1 63.4043 11.1445)" fill="white"/>
</g>
<path d="M61.557 25.1667C59.8421 20.6505 56.5966 16.8615 52.3727 14.4457C48.1486 12.0297 43.2073 11.1364 38.3905 11.9191C33.5737 12.7018 29.1805 15.112 25.9595 18.7384C22.7386 22.3648 20.8896 26.9826 20.7262 31.8045C20.5629 36.6264 22.0952 41.3548 25.0621 45.1844C28.029 49.0141 32.2476 51.7088 36.9997 52.8084C41.7519 53.9079 46.7433 53.344 51.123 51.2123C55.5027 49.0805 58.9988 45.5133 61.0162 41.1191" stroke="#ECEFF1"/>
<path d="M85.3534 32.1464C85.5487 32.3417 85.5487 32.6583 85.3534 32.8536L82.1715 36.0355C81.9762 36.2308 81.6596 36.2308 81.4644 36.0355C81.2691 35.8403 81.2691 35.5237 81.4644 35.3284L84.2928 32.5L81.4644 29.6716C81.2691 29.4763 81.2691 29.1597 81.4644 28.9645C81.6596 28.7692 81.9762 28.7692 82.1715 28.9645L85.3534 32.1464ZM42.2109 32L84.9999 32V33L42.2109 33V32Z" fill="#FFA726"/>
<defs>
<filter id="filter0_d_1736_9786" x="0.213379" y="0.144531" width="83.1909" height="82.7114" filterUnits="userSpaceOnUse" color-interpolation-filters="sRGB">
<feFlood flood-opacity="0" result="BackgroundImageFix"/>
<feColorMatrix in="SourceAlpha" type="matrix" values="0 0 0 0 0 0 0 0 0 0 0 0 0 0 0 0 0 0 127 0" result="hardAlpha"/>
<feOffset dy="9"/>
<feGaussianBlur stdDeviation="10"/>
<feComposite in2="hardAlpha" operator="out"/>
<feColorMatrix type="matrix" values="0 0 0 0 0 0 0 0 0 0 0 0 0 0 0 0 0 0 0.05 0"/>
<feBlend mode="normal" in2="BackgroundImageFix" result="effect1_dropShadow_1736_9786"/>
<feBlend mode="normal" in="SourceGraphic" in2="effect1_dropShadow_1736_9786" result="shape"/>
</filter>
</defs>
</svg>
