<svg width="86" height="83" viewBox="0 0 86 83" fill="none" xmlns="http://www.w3.org/2000/svg">
<g filter="url(#filter0_d_1736_9790)">
<ellipse cx="44.1911" cy="32.5003" rx="21.5954" ry="21.3557" fill="white"/>
</g>
<path d="M24.443 25.1667C26.1579 20.6505 29.4034 16.8615 33.6273 14.4457C37.8514 12.0297 42.7927 11.1364 47.6095 11.9191C52.4263 12.7018 56.8195 15.112 60.0405 18.7384C63.2614 22.3648 65.1104 26.9826 65.2738 31.8045C65.4371 36.6264 63.9048 41.3548 60.9379 45.1844C57.971 49.0141 53.7524 51.7088 49.0003 52.8084C44.2481 53.9079 39.2567 53.344 34.877 51.2123C30.4973 49.0805 27.0012 45.5133 24.9838 41.1191" stroke="#ECEFF1"/>
<path d="M0.646561 32.1464C0.451298 32.3417 0.451298 32.6583 0.646561 32.8536L3.82854 36.0355C4.0238 36.2308 4.34039 36.2308 4.53565 36.0355C4.73091 35.8403 4.73091 35.5237 4.53565 35.3284L1.70722 32.5L4.53565 29.6716C4.73091 29.4763 4.73091 29.1597 4.53565 28.9645C4.34039 28.7692 4.0238 28.7692 3.82854 28.9645L0.646561 32.1464ZM43.7891 32L1.00011 32V33L43.7891 33V32Z" fill="#FFA726"/>
<defs>
<filter id="filter0_d_1736_9790" x="2.5957" y="0.144531" width="83.1909" height="82.7114" filterUnits="userSpaceOnUse" color-interpolation-filters="sRGB">
<feFlood flood-opacity="0" result="BackgroundImageFix"/>
<feColorMatrix in="SourceAlpha" type="matrix" values="0 0 0 0 0 0 0 0 0 0 0 0 0 0 0 0 0 0 127 0" result="hardAlpha"/>
<feOffset dy="9"/>
<feGaussianBlur stdDeviation="10"/>
<feComposite in2="hardAlpha" operator="out"/>
<feColorMatrix type="matrix" values="0 0 0 0 0 0 0 0 0 0 0 0 0 0 0 0 0 0 0.05 0"/>
<feBlend mode="normal" in2="BackgroundImageFix" result="effect1_dropShadow_1736_9790"/>
<feBlend mode="normal" in="SourceGraphic" in2="effect1_dropShadow_1736_9790" result="shape"/>
</filter>
</defs>
</svg>
