<svg width="128" height="103" viewBox="0 0 128 103" fill="none" xmlns="http://www.w3.org/2000/svg">
<g clip-path="url(#clip0_1727_2442)">
<g opacity="0.66">
<g opacity="0.66">
<g opacity="0.66">
<g opacity="0.66">
<path opacity="0.66" d="M43.8194 30.2593L41.4429 30.0707C41.2611 28.2079 40.6928 26.4521 39.8157 24.8992L41.6245 23.2836C42.5407 22.4652 42.6461 21.0289 41.8598 20.0753C41.0735 19.1217 39.6936 19.012 38.7774 19.8304L36.9686 21.4457C35.6268 20.3075 34.0459 19.4564 32.3046 18.9865L32.4861 16.513C32.5781 15.2601 31.6766 14.1669 30.4731 14.0712C29.2693 13.9754 28.219 14.9138 28.1271 16.1664L27.9455 18.6399C26.1558 18.8292 24.4688 19.4207 22.9769 20.3336L21.4246 18.4509C20.6383 17.4973 19.2584 17.3876 18.3422 18.206C17.426 19.0244 17.3206 20.4607 18.1068 21.4143L19.6591 23.2969C18.5655 24.6935 17.7479 26.3389 17.2964 28.1513L14.9199 27.9624C13.7161 27.8666 12.6658 28.805 12.5738 30.0576C12.4819 31.3105 13.3831 32.4037 14.5869 32.4994L16.9634 32.6884C17.1453 34.5511 17.7136 36.307 18.5906 37.8598L16.7818 39.4755C15.8656 40.2938 15.7602 41.7302 16.5465 42.6837C17.3328 43.6373 18.7128 43.7471 19.629 42.9287L21.4378 41.313C22.7795 42.4513 24.3604 43.3023 26.1018 43.7722L25.9202 46.2457C25.8282 47.4987 26.7295 48.5918 27.9332 48.6876C29.137 48.7833 30.1873 47.8449 30.2793 46.5923L30.4605 44.1188C32.2502 43.9295 33.9372 43.338 35.4291 42.4251L36.9814 44.3078C37.7677 45.2614 39.1477 45.3711 40.0639 44.5527C40.9801 43.7343 41.0855 42.298 40.2992 41.3444L38.7469 39.4618C39.8405 38.0653 40.6581 36.4198 41.1097 34.6074L43.4862 34.7961C44.6899 34.8918 45.7402 33.9537 45.8322 32.7008C45.9245 31.4482 45.0232 30.3551 43.8194 30.2593ZM28.5254 40.6218C23.6213 40.232 19.9491 35.7782 20.3236 30.674C20.6981 25.5697 24.9771 21.7475 29.8812 22.1373C34.7853 22.527 38.4575 26.9808 38.0831 32.0851C37.7086 37.1897 33.4295 41.0115 28.5254 40.6218Z" fill="white"/>
</g>
</g>
<g opacity="0.66">
<g opacity="0.66">
<path opacity="0.66" d="M94.5965 100.012C94.3086 100.012 94.0228 99.9398 93.7597 99.7978C93.3282 99.5646 93.0092 99.1702 92.8623 98.6875L92.4353 97.2842C91.3318 97.4013 90.2356 97.3025 89.1686 96.991L88.517 98.2974C88.0541 99.2249 86.9524 99.588 86.061 99.1068C85.6292 98.8737 85.3106 98.4793 85.1637 97.9965C85.0167 97.5138 85.0591 97.0007 85.2834 96.5512L85.9347 95.2449C85.0759 94.5163 84.3675 93.6395 83.8243 92.6334L82.476 93.0778C81.5183 93.3936 80.4928 92.8391 80.19 91.8426C80.0431 91.3599 80.0855 90.8468 80.3094 90.3973C80.5337 89.9479 80.9127 89.6159 81.3761 89.4633L82.7244 89.0188C82.6122 87.8706 82.7065 86.7293 83.0061 85.6188L81.7509 84.9406C81.3191 84.7074 81.0005 84.3133 80.8535 83.8303C80.7066 83.3476 80.749 82.8344 80.9733 82.385C81.1973 81.9358 81.5759 81.6039 82.04 81.451C82.5035 81.2984 82.9968 81.3422 83.4286 81.5753L84.6838 82.2535C85.3837 81.3599 86.2262 80.6223 87.1928 80.0566L86.7658 78.6536C86.4627 77.6571 86.9951 76.5894 87.9525 76.2739C88.4157 76.121 88.9094 76.1655 89.3412 76.3986C89.773 76.632 90.0919 77.0264 90.2386 77.5088L90.6656 78.9122C91.769 78.7947 92.8653 78.8939 93.9323 79.2053L94.5839 77.8986C95.0465 76.9711 96.1472 76.6078 97.0398 77.0892C97.9307 77.571 98.2795 78.7173 97.8175 79.6454L97.1659 80.9515C98.0247 81.6804 98.7334 82.5572 99.2766 83.5633L100.625 83.1188C101.089 82.9662 101.582 83.01 102.014 83.2432C102.445 83.4766 102.764 83.871 102.911 84.3537C103.214 85.3502 102.682 86.4176 101.724 86.7331L100.376 87.1775C100.488 88.3257 100.394 89.467 100.094 90.5776L101.35 91.2555C102.241 91.7373 102.59 92.8839 102.127 93.8117C101.903 94.2611 101.524 94.5931 101.061 94.7457C100.597 94.8986 100.104 94.8542 99.6717 94.621L98.4168 93.9431C97.7162 94.8371 96.8741 95.5743 95.9074 96.1397L96.3345 97.5431C96.4814 98.0258 96.439 98.5392 96.215 98.9884C95.9908 99.4378 95.6118 99.7698 95.148 99.9224C94.9671 99.9821 94.7813 100.012 94.5965 100.012ZM92.8551 96.6044L93.4318 98.5001C93.5306 98.8246 93.7448 99.0894 94.035 99.2461C94.3253 99.403 94.6565 99.4325 94.9686 99.33C95.2803 99.2271 95.535 99.0042 95.6856 98.7021C95.8364 98.4 95.8647 98.055 95.7662 97.7305L95.1892 95.8351L95.4102 95.7139C96.4671 95.1351 97.3719 94.3429 98.1003 93.3591L98.2526 93.1533L99.9482 94.0687C100.238 94.2257 100.57 94.2552 100.882 94.1526C101.193 94.0498 101.448 93.8269 101.598 93.5248C101.909 92.9016 101.675 92.1311 101.076 91.8072L99.3802 90.8915L99.4543 90.6432C99.8081 89.4574 99.9097 88.2309 99.7565 86.9985L99.7242 86.7405L101.546 86.1403C102.189 85.928 102.547 85.2107 102.343 84.5408C102.244 84.2163 102.03 83.9512 101.74 83.7946C101.45 83.6376 101.118 83.6081 100.806 83.7106L98.9854 84.3111L98.8689 84.0811C98.3129 82.9811 97.5517 82.039 96.6062 81.2813L96.4082 81.1227L97.2883 79.3579C97.5992 78.7344 97.3647 77.9639 96.7657 77.6403C96.1658 77.3158 95.426 77.5607 95.1155 78.1842L94.2354 79.9491L93.9968 79.872C92.8575 79.5037 91.6794 79.3986 90.4951 79.5575L90.2472 79.591L89.6706 77.6953C89.572 77.3708 89.3576 77.106 89.0673 76.9494C88.7771 76.7924 88.4465 76.7626 88.1338 76.8651C87.4906 77.0774 87.1325 77.7948 87.3362 78.4646L87.9131 80.3597L87.6921 80.4809C86.6353 81.06 85.7304 81.8522 85.0024 82.836L84.8501 83.0421L83.1542 82.1261C82.8642 81.9691 82.5327 81.9396 82.221 82.0421C81.9092 82.145 81.6545 82.3679 81.5042 82.6703C81.3534 82.9724 81.3248 83.3171 81.4236 83.6416C81.5225 83.9661 81.7366 84.2309 82.0268 84.3876L83.7222 85.3036L83.6481 85.5519C83.2939 86.7377 83.1927 87.9642 83.3459 89.1966L83.3781 89.4546L81.5568 90.0548C81.245 90.1574 80.9906 90.3805 80.8401 90.6826C80.6893 90.9848 80.6609 91.3298 80.7595 91.6543C80.9634 92.3238 81.6527 92.6968 82.2962 92.4845L84.1173 91.884L84.2337 92.114C84.7898 93.214 85.551 94.1558 86.4961 94.9135L86.6938 95.072L85.8144 96.8372C85.6636 97.1393 85.6349 97.484 85.7334 97.8085C85.8323 98.133 86.0464 98.3978 86.337 98.5545C86.936 98.8783 87.6763 98.6337 87.9872 98.0105L88.8673 96.246L89.1059 96.3231C90.2451 96.6917 91.4241 96.7965 92.6073 96.6376L92.8551 96.6044ZM91.5436 94.8691C90.5151 94.8691 89.495 94.6123 88.5555 94.1051C87.014 93.2721 85.8762 91.8647 85.3518 90.1412C84.8274 88.4177 84.9794 86.5851 85.7794 84.9803C86.5797 83.3759 87.9319 82.1917 89.5878 81.6459C91.244 81.0997 93.0042 81.2583 94.5463 82.0909C96.0878 82.9239 97.2259 84.3317 97.7503 86.0548C98.2747 87.7783 98.1227 89.6112 97.3223 91.2157C96.522 92.8202 95.1698 94.0044 93.5139 94.5502C92.8671 94.7634 92.2035 94.8691 91.5436 94.8691ZM91.5579 81.9489C90.9583 81.9489 90.3562 82.0449 89.7685 82.2386C88.2646 82.7343 87.0364 83.8098 86.3098 85.2669C85.5829 86.724 85.4453 88.3885 85.9213 89.9535C86.3976 91.5187 87.4308 92.7975 88.8308 93.5534C90.2311 94.3102 91.8309 94.4532 93.3336 93.9578C94.8375 93.462 96.0657 92.3866 96.7923 90.9294C97.5191 89.4723 97.6571 87.8079 97.1808 86.2429C96.7045 84.6776 95.6712 83.3989 94.2712 82.643C93.4187 82.182 92.4917 81.9489 91.5579 81.9489Z" fill="white"/>
</g>
</g>
<g opacity="0.66">
<g opacity="0.66">
<path opacity="0.66" d="M110.278 88.4088C110.167 88.4088 110.054 88.4004 109.94 88.383C108.66 88.1893 107.77 86.9482 107.956 85.6167L108.241 83.5727C106.796 83.0359 105.488 82.2253 104.346 81.1598L102.756 82.395C102.254 82.7851 101.637 82.9483 101.017 82.8544C100.397 82.7609 99.8491 82.4214 99.4743 81.899C98.7009 80.8201 98.9147 79.2877 99.9513 78.4827L101.541 77.2475C100.884 75.8053 100.51 74.2699 100.427 72.675L98.4635 72.3779C97.1838 72.1846 96.2936 70.9435 96.48 69.6116C96.5699 68.9663 96.8957 68.3963 97.398 68.0062C97.9003 67.6164 98.5178 67.4536 99.1375 67.5471L101.102 67.844C101.617 66.3393 102.396 64.9779 103.42 63.7902L102.233 62.1354C101.858 61.6126 101.702 60.9695 101.791 60.3246C101.882 59.6793 102.208 59.1093 102.71 58.7192C103.212 58.3291 103.829 58.1662 104.449 58.2595C105.069 58.3534 105.617 58.6928 105.992 59.2153L107.179 60.8701C108.564 60.1866 110.04 59.7968 111.572 59.7104L111.857 57.6668C112.043 56.3346 113.239 55.4074 114.515 55.602C115.135 55.6955 115.682 56.0349 116.057 56.5574C116.432 57.0799 116.589 57.723 116.499 58.368L116.213 60.4122C117.659 60.949 118.967 61.7593 120.108 62.8251L121.698 61.5896C122.734 60.7849 124.207 61.0068 124.981 62.0863C125.754 63.1649 125.54 64.6972 124.503 65.5022L122.914 66.7377C123.57 68.1793 123.945 69.7148 124.028 71.3099L125.992 71.6071C127.271 71.8007 128.161 73.0418 127.976 74.3734C127.79 75.7055 126.594 76.633 125.318 76.4381L123.354 76.1413C122.838 77.6463 122.059 79.0077 121.036 80.195L122.222 81.8502C122.996 82.9284 122.782 84.4607 121.746 85.2664C121.244 85.6561 120.626 85.819 120.006 85.7258C119.386 85.6319 118.838 85.2925 118.463 84.77L117.277 83.1152C115.891 83.7987 114.416 84.1885 112.883 84.2749L112.598 86.3188C112.429 87.532 111.424 88.4085 110.278 88.4088ZM104.388 80.352L104.57 80.5295C105.752 81.6801 107.13 82.534 108.667 83.0679L108.904 83.1503L108.547 85.7059C108.408 86.6983 109.072 87.6236 110.026 87.7682C110.979 87.9121 111.868 87.2221 112.007 86.2293L112.364 83.6731L112.613 83.6647C114.232 83.6082 115.787 83.1976 117.234 82.4444L117.458 82.3282L118.942 84.3979C119.221 84.7874 119.629 85.0401 120.092 85.11C120.554 85.1806 121.014 85.0584 121.389 84.7675C122.161 84.1673 122.32 83.0254 121.744 82.2216L120.26 80.1518L120.43 79.9619C121.536 78.7326 122.356 77.2982 122.869 75.6981L122.948 75.4516L125.404 75.8227C126.359 75.966 127.246 75.2763 127.385 74.2838C127.523 73.2914 126.86 72.3661 125.907 72.2215L123.451 71.8504L123.443 71.5906C123.388 69.905 122.994 68.2869 122.27 66.7809L122.159 66.5485L124.147 65.0034C124.919 64.4035 125.079 63.2612 124.502 62.4574C124.223 62.068 123.815 61.8153 123.352 61.7453C122.891 61.6748 122.43 61.7973 122.056 62.0879H122.056L120.067 63.6326L119.885 63.4552C118.703 62.3042 117.325 61.4504 115.788 60.9167L115.551 60.8343L115.908 58.2784C115.975 57.7976 115.858 57.3183 115.579 56.9289C115.299 56.5394 114.891 56.2864 114.429 56.2165C113.473 56.0716 112.587 56.7629 112.448 57.7553L112.091 60.3112L111.841 60.3196C110.223 60.3762 108.668 60.7868 107.22 61.5399L106.997 61.6561L105.513 59.5867C105.233 59.1969 104.825 58.9442 104.363 58.8743C103.902 58.805 103.441 58.9262 103.067 59.2168C102.692 59.5074 102.449 59.9323 102.382 60.4132C102.315 60.8943 102.432 61.3736 102.711 61.7631L104.195 63.8325L104.025 64.0224C102.919 65.252 102.099 66.6868 101.586 68.2863L101.507 68.5327L99.0512 68.1616C98.5898 68.0926 98.1287 68.2138 97.7545 68.5041C97.3803 68.7948 97.1373 69.2196 97.0701 69.7005C96.9315 70.6932 97.5951 71.6186 98.5486 71.7628L101.004 72.1339L101.012 72.3937C101.067 74.0787 101.461 75.6968 102.185 77.2037L102.297 77.4362L100.308 78.981C99.9339 79.2716 99.6908 79.6965 99.6237 80.1776C99.5565 80.6585 99.6735 81.1378 99.953 81.5275C100.232 81.9167 100.64 82.1697 101.102 82.2396C101.564 82.3092 102.025 82.1877 102.399 81.8968L104.388 80.352ZM112.238 80.9777C109.603 80.9777 107 79.7304 105.306 77.3691C102.458 73.3965 103.245 67.7529 107.062 64.788C108.911 63.3523 111.187 62.7505 113.469 63.0965C115.752 63.4415 117.769 64.6916 119.149 66.6159C120.529 68.5402 121.106 70.9083 120.774 73.2842C120.443 75.6605 119.242 77.7601 117.393 79.1961C115.846 80.398 114.035 80.9777 112.238 80.9777ZM112.21 63.623C110.49 63.623 108.822 64.1962 107.419 65.2865C103.866 68.046 103.133 73.2995 105.784 76.9973C108.436 80.6948 113.483 81.457 117.036 78.6981C118.757 77.3613 119.874 75.4072 120.183 73.1954C120.492 70.9836 119.954 68.7789 118.67 66.9876C117.386 65.1964 115.508 64.033 113.383 63.7119C112.991 63.6522 112.599 63.623 112.21 63.623ZM117.214 78.9468H117.217H117.214Z" fill="white"/>
</g>
</g>
</g>
</g>
<g opacity="0.81">
<path opacity="0.81" d="M71.6662 89.6607H65.5318C65.3666 89.6607 65.2332 89.5218 65.2332 89.3499C65.2332 89.178 65.3666 89.0391 65.5318 89.0391H71.6662C71.8314 89.0391 71.9649 89.178 71.9649 89.3499C71.9649 89.5218 71.8314 89.6607 71.6662 89.6607Z" fill="white"/>
<path opacity="0.81" d="M71.6662 96.2979H65.5318C65.3666 96.2979 65.2332 96.159 65.2332 95.9871C65.2332 95.8152 65.3666 95.6763 65.5318 95.6763H71.6662C71.8314 95.6763 71.9649 95.8152 71.9649 95.9871C71.9649 96.159 71.8314 96.2979 71.6662 96.2979Z" fill="white"/>
<g opacity="0.81">
<g opacity="0.81">
<g opacity="0.81">
<path opacity="0.81" d="M76.297 103H38.4099C37.9635 103 37.6003 102.622 37.6003 102.158V81.6906C37.6003 81.2259 37.9635 80.8477 38.4099 80.8477H76.297C76.7435 80.8477 77.1069 81.2259 77.1069 81.6906V102.158C77.1069 102.622 76.7435 103 76.297 103ZM38.4099 81.4696C38.2929 81.4696 38.1976 81.5688 38.1976 81.6909V102.158C38.1976 102.28 38.2929 102.379 38.4099 102.379H76.297C76.4144 102.379 76.5097 102.28 76.5097 102.158V81.6909C76.5097 81.5688 76.4144 81.4696 76.297 81.4696H38.4099Z" fill="white"/>
<path opacity="0.66" d="M76.297 103H38.4099C37.9635 103 37.6003 102.622 37.6003 102.158V81.6906C37.6003 81.2259 37.9635 80.8477 38.4099 80.8477H76.297C76.7435 80.8477 77.1069 81.2259 77.1069 81.6906V102.158C77.1069 102.622 76.7435 103 76.297 103ZM38.4099 81.4696C38.2929 81.4696 38.1976 81.5688 38.1976 81.6909V102.158C38.1976 102.28 38.2929 102.379 38.4099 102.379H76.297C76.4144 102.379 76.5097 102.28 76.5097 102.158V81.6909C76.5097 81.5688 76.4144 81.4696 76.297 81.4696H38.4099Z" fill="white"/>
</g>
</g>
<path opacity="0.81" d="M71.6662 86.44H42.4336C42.2688 86.44 42.135 86.301 42.135 86.1292C42.135 85.9573 42.2688 85.8184 42.4336 85.8184H71.6662C71.8313 85.8184 71.9648 85.9573 71.9648 86.1292C71.9648 86.301 71.8313 86.44 71.6662 86.44Z" fill="white"/>
<path opacity="0.81" d="M71.6662 92.8819H42.4336C42.2688 92.8819 42.135 92.743 42.135 92.5711C42.135 92.3992 42.2688 92.2603 42.4336 92.2603H71.6662C71.8313 92.2603 71.9648 92.3992 71.9648 92.5711C71.9648 92.7426 71.8313 92.8819 71.6662 92.8819Z" fill="white"/>
<path opacity="0.81" d="M58.1941 89.6607H42.4336C42.2688 89.6607 42.135 89.5218 42.135 89.3499C42.135 89.178 42.2688 89.0391 42.4336 89.0391H58.1941C58.3589 89.0391 58.4927 89.178 58.4927 89.3499C58.4927 89.5218 58.3589 89.6607 58.1941 89.6607Z" fill="white"/>
<path opacity="0.81" d="M58.1941 96.2979H42.4336C42.2688 96.2979 42.135 96.159 42.135 95.9871C42.135 95.8152 42.2688 95.6763 42.4336 95.6763H58.1941C58.3589 95.6763 58.4927 95.8152 58.4927 95.9871C58.4927 96.159 58.3589 96.2979 58.1941 96.2979Z" fill="white"/>
<path opacity="0.81" d="M53.0625 99.3726H42.4336C42.2688 99.3726 42.135 99.2337 42.135 99.0618C42.135 98.8899 42.2688 98.751 42.4336 98.751H53.0625C53.2273 98.751 53.3611 98.8899 53.3611 99.0618C53.3611 99.2337 53.2273 99.3726 53.0625 99.3726Z" fill="white"/>
</g>
</g>
<g opacity="0.81">
<path opacity="0.81" d="M12.9727 69.7598H6.07793C5.91308 69.7598 5.7793 69.6209 5.7793 69.449C5.7793 69.2771 5.91308 69.1382 6.07793 69.1382H12.9727C13.1375 69.1382 13.2713 69.2771 13.2713 69.449C13.2713 69.6209 13.1375 69.7598 12.9727 69.7598Z" fill="white"/>
<path opacity="0.81" d="M12.9727 62.3003H6.07793C5.91308 62.3003 5.7793 62.1614 5.7793 61.9895C5.7793 61.8176 5.91308 61.6787 6.07793 61.6787H12.9727C13.1375 61.6787 13.2713 61.8176 13.2713 61.9895C13.2713 62.1614 13.1375 62.3003 12.9727 62.3003Z" fill="white"/>
<g opacity="0.81">
<g opacity="0.81">
<g opacity="0.81">
<path opacity="0.81" d="M43.519 78.9665H0.809584C0.363133 78.9665 0 78.5882 0 78.1236V54.988C0 54.5233 0.363133 54.145 0.809584 54.145H43.519C43.9654 54.145 44.3288 54.5233 44.3288 54.988V78.1236C44.3288 78.5882 43.9657 78.9665 43.519 78.9665ZM0.809584 54.767C0.692521 54.767 0.597259 54.8661 0.597259 54.9883V78.1239C0.597259 78.246 0.692521 78.3452 0.809584 78.3452H43.519C43.636 78.3452 43.7316 78.246 43.7316 78.1239V54.9883C43.7316 54.8661 43.6363 54.767 43.519 54.767H0.809584Z" fill="white"/>
<path opacity="0.66" d="M43.519 78.9665H0.809584C0.363133 78.9665 0 78.5882 0 78.1236V54.988C0 54.5233 0.363133 54.145 0.809584 54.145H43.519C43.9654 54.145 44.3288 54.5233 44.3288 54.988V78.1236C44.3288 78.5882 43.9657 78.9665 43.519 78.9665ZM0.809584 54.767C0.692521 54.767 0.597259 54.8661 0.597259 54.9883V78.1239C0.597259 78.246 0.692521 78.3452 0.809584 78.3452H43.519C43.636 78.3452 43.7316 78.246 43.7316 78.1239V54.9883C43.7316 54.8661 43.6363 54.767 43.519 54.767H0.809584Z" fill="white"/>
</g>
</g>
<path opacity="0.81" d="M38.9334 73.3799H6.07793C5.91308 73.3799 5.7793 73.241 5.7793 73.0691C5.7793 72.8972 5.91308 72.7583 6.07793 72.7583H38.9334C39.0983 72.7583 39.2321 72.8972 39.2321 73.0691C39.2321 73.241 39.0983 73.3799 38.9334 73.3799Z" fill="white"/>
<path opacity="0.81" d="M38.9334 66.1392H6.07793C5.91308 66.1392 5.7793 66.0003 5.7793 65.8284C5.7793 65.6565 5.91308 65.5176 6.07793 65.5176H38.9334C39.0983 65.5176 39.2321 65.6565 39.2321 65.8284C39.2321 66.0003 39.0983 66.1392 38.9334 66.1392Z" fill="white"/>
<path opacity="0.81" d="M38.9336 69.7598H21.2198C21.0549 69.7598 20.9211 69.6209 20.9211 69.449C20.9211 69.2771 21.0549 69.1382 21.2198 69.1382H38.9333C39.0981 69.1382 39.2319 69.2771 39.2319 69.449C39.2322 69.6209 39.0984 69.7598 38.9336 69.7598Z" fill="white"/>
<path opacity="0.81" d="M38.9336 62.3003H21.2198C21.0549 62.3003 20.9211 62.1614 20.9211 61.9895C20.9211 61.8176 21.0549 61.6787 21.2198 61.6787H38.9333C39.0981 61.6787 39.2319 61.8176 39.2319 61.9895C39.2322 62.1614 39.0984 62.3003 38.9336 62.3003Z" fill="white"/>
<path opacity="0.81" d="M38.9334 58.8448H26.9873C26.8225 58.8448 26.6887 58.7058 26.6887 58.534C26.6887 58.3621 26.8225 58.2231 26.9873 58.2231H38.9334C39.0983 58.2231 39.232 58.3621 39.232 58.534C39.232 58.7058 39.0983 58.8448 38.9334 58.8448Z" fill="white"/>
</g>
</g>
<path opacity="0.14" d="M93.2644 91.5264L60.5887 71.3625C60.3259 71.2006 60.2393 70.8475 60.3951 70.5739L86.7728 24.267C86.9284 23.9934 87.2676 23.9033 87.5304 24.0655L120.206 44.2294C120.469 44.3913 120.556 44.7444 120.4 45.018L94.022 91.3249C93.8664 91.5982 93.5272 91.6883 93.2644 91.5264Z" fill="#3E479B"/>
<path d="M92.4157 89.6708L59.74 69.5069C59.4775 69.345 59.3906 68.9919 59.5464 68.7184L85.9241 22.4114C86.0797 22.1382 86.4189 22.0478 86.6817 22.21L119.357 42.3739C119.62 42.5358 119.707 42.8889 119.551 43.1624L93.1733 89.4694C93.0177 89.7426 92.6785 89.8327 92.4157 89.6708Z" fill="#64B5F6"/>
<path opacity="0.14" d="M101.802 89.1035L64.4444 81.9363C64.144 81.8788 63.9457 81.5786 64.0009 81.2662L73.377 28.3245C73.4322 28.0118 73.7207 27.8054 74.0208 27.8629L111.378 35.0301C111.679 35.0876 111.877 35.3878 111.822 35.7002L102.446 88.6423C102.391 88.9543 102.102 89.161 101.802 89.1035Z" fill="#3E479B"/>
<path d="M72.68 26.2737L63.1023 80.3457L101.546 87.7225L111.124 33.6505L72.68 26.2737Z" fill="white"/>
<path opacity="0.39" d="M101.003 87.6143L63.6458 80.4471C63.3454 80.3896 63.1471 80.0894 63.2024 79.777L72.5784 26.835C72.6337 26.5223 72.9221 26.3159 73.2223 26.3734L110.58 33.5406C110.88 33.5981 111.079 33.8983 111.023 34.2107L101.647 87.1528C101.592 87.4651 101.304 87.6719 101.003 87.6143Z" fill="#CFD8DC"/>
<path d="M105.305 40.0147C105.288 40.0147 105.269 40.0132 105.251 40.0094L95.8995 38.2154C95.7374 38.1843 95.6302 38.022 95.66 37.8533C95.6902 37.6845 95.8437 37.5732 96.0079 37.604L105.359 39.398C105.521 39.4291 105.629 39.5914 105.599 39.7602C105.572 39.91 105.447 40.0147 105.305 40.0147Z" fill="white"/>
<path d="M104.755 43.1242C104.737 43.1242 104.719 43.1226 104.701 43.1189L95.3492 41.3248C95.1871 41.2937 95.0799 41.1315 95.1097 40.9627C95.1399 40.7943 95.2937 40.6824 95.4576 40.7134L104.809 42.5078C104.971 42.5389 105.079 42.7011 105.049 42.8699C105.022 43.0194 104.896 43.1242 104.755 43.1242Z" fill="white"/>
<path d="M104.157 46.5037C104.139 46.5037 104.121 46.5021 104.102 46.4984L94.7508 44.7043C94.5887 44.6732 94.4815 44.511 94.5113 44.3425C94.5412 44.1738 94.6947 44.0625 94.8592 44.0932L104.211 45.8873C104.373 45.9184 104.48 46.0806 104.45 46.2494C104.423 46.3989 104.298 46.5037 104.157 46.5037Z" fill="white"/>
<path opacity="0.14" d="M89.6885 49.3773L73.6664 46.3033C73.3412 46.2408 73.1265 45.916 73.1862 45.5778L76.3625 27.6435C76.4225 27.305 76.7346 27.0815 77.0595 27.1437L93.0815 30.2177C93.4067 30.2802 93.6214 30.605 93.5617 30.9431L90.3855 48.8775C90.3258 49.216 90.0137 49.4398 89.6885 49.3773Z" fill="#3E479B"/>
<path d="M89.1 48.336L73.8254 45.4056C73.5002 45.3431 73.2854 45.0183 73.3452 44.6801L76.3524 27.7006C76.4124 27.3621 76.7245 27.1386 77.0494 27.2008L92.324 30.1312C92.6492 30.1937 92.8639 30.5185 92.8042 30.8567L89.797 47.8362C89.7372 48.1747 89.4252 48.3985 89.1 48.336Z" fill="#599AF2"/>
<path opacity="0.07" d="M92.5204 32.4592L76.0686 29.3028L76.3556 27.6825C76.4138 27.354 76.7166 27.137 77.0323 27.1973L92.3618 30.1383C92.6658 30.1967 92.8671 30.5007 92.8109 30.8171L92.5204 32.4592Z" fill="#ECF1F7"/>
<path d="M80.6714 37.7476C80.5556 37.7476 80.4382 37.7367 80.3202 37.714L80.0924 37.6702C78.8829 37.438 78.0802 36.2249 78.303 34.9657L78.8776 31.7214C78.9224 31.4681 79.158 31.3002 79.3993 31.3475C79.6427 31.3941 79.8036 31.6372 79.7588 31.8905L79.1843 35.1348C79.0508 35.8883 79.531 36.6143 80.2548 36.7533L80.4827 36.7971C81.0456 36.9059 81.5873 36.5164 81.691 35.9305L83.1456 27.718C83.2525 27.1138 82.8673 26.5313 82.2867 26.4197L81.897 26.3451C81.2783 26.2267 80.6864 26.6528 80.5723 27.2944L80.5368 27.4967C80.4917 27.7504 80.2554 27.9176 80.015 27.871C79.772 27.8243 79.6107 27.5813 79.6555 27.3279L79.6913 27.1253C79.8953 25.9777 80.9575 25.2162 82.0592 25.4279L82.4489 25.5025C83.5153 25.707 84.223 26.7766 84.0268 27.8865L82.5722 36.099C82.4005 37.0681 81.5855 37.7476 80.6714 37.7476Z" fill="#3E479B"/>
<path d="M82.2264 30.8513C82.2175 30.8513 82.2082 30.8504 82.199 30.8489L76.2297 29.7035C76.1487 29.688 76.095 29.6068 76.1099 29.5226C76.1251 29.4381 76.2019 29.3812 76.284 29.398L82.2533 30.5433C82.3345 30.5589 82.388 30.64 82.3731 30.7242C82.3599 30.7991 82.2972 30.8513 82.2264 30.8513Z" fill="white"/>
<path d="M100.479 62.9705C100.462 62.9705 100.443 62.9689 100.424 62.9652L71.8504 57.4829C71.6883 57.4519 71.5811 57.2899 71.6109 57.1208C71.6408 56.9524 71.7943 56.8399 71.9588 56.8716L100.533 62.3538C100.695 62.3849 100.802 62.5468 100.772 62.7159C100.746 62.8657 100.621 62.9705 100.479 62.9705Z" fill="white"/>
<path d="M98.4363 74.506C98.4184 74.506 98.4001 74.5044 98.3816 74.5007L69.8072 69.0188C69.6451 68.9877 69.5379 68.8257 69.5677 68.6567C69.5976 68.4882 69.7514 68.375 69.9156 68.4074L98.49 73.8893C98.6522 73.9204 98.7594 74.0823 98.7295 74.2514C98.7032 74.4015 98.5775 74.506 98.4363 74.506Z" fill="white"/>
<path d="M84.3915 65.8482C84.3735 65.8482 84.3553 65.8466 84.3368 65.8429L70.8292 63.2513C70.667 63.2202 70.5598 63.0582 70.5897 62.8892C70.6199 62.7207 70.7734 62.6072 70.9376 62.6399L84.4452 65.2315C84.6074 65.2626 84.7146 65.4245 84.6847 65.5936C84.6584 65.7434 84.5327 65.8482 84.3915 65.8482Z" fill="white"/>
<path d="M86.2528 55.3385C86.2349 55.3385 86.2166 55.3369 86.1981 55.3332L72.6905 52.7419C72.5284 52.7108 72.4212 52.5486 72.451 52.3798C72.4812 52.2113 72.635 52.1 72.7989 52.1305L86.3065 54.7218C86.4687 54.7529 86.5759 54.9148 86.546 55.0839C86.5195 55.2341 86.394 55.3385 86.2528 55.3385Z" fill="white"/>
<path d="M99.4658 68.6937C99.4479 68.6937 99.4297 68.6922 99.4112 68.6884L86.5411 66.2193C86.379 66.1882 86.2718 66.0263 86.3016 65.8572C86.3315 65.6887 86.485 65.5762 86.6495 65.6079L99.5196 68.077C99.6817 68.1081 99.7889 68.2701 99.7591 68.4392C99.7325 68.589 99.6071 68.6937 99.4658 68.6937Z" fill="white"/>
<path d="M96.4397 7.60049H80.5586C80.0088 7.60049 79.5632 7.13675 79.5632 6.56453V1.03596C79.5632 0.463744 80.0088 0 80.5586 0H96.4397C96.9894 0 97.435 0.463744 97.435 1.03596V6.56453C97.4353 7.13675 96.9894 7.60049 96.4397 7.60049Z" fill="#64B5F6"/>
<path d="M108.404 15.8851H86.1889C85.6392 15.8851 85.1936 15.4213 85.1936 14.8491V6.62727C85.1936 6.05505 85.6392 5.59131 86.1889 5.59131H108.404C108.953 5.59131 109.399 6.05505 109.399 6.62727V14.8491C109.399 15.4213 108.953 15.8851 108.404 15.8851Z" fill="#FFA726"/>
<path d="M91.1091 13.709H115.709C116.452 13.709 117.06 14.3418 117.06 15.1154V22.959C117.06 23.7326 116.452 24.3655 115.709 24.3655H91.1091C90.3658 24.3655 89.7578 23.7326 89.7578 22.959V15.1154C89.7578 14.3418 90.3658 13.709 91.1091 13.709Z" fill="white"/>
<path opacity="0.74" d="M91.1091 13.709H115.709C116.452 13.709 117.06 14.3418 117.06 15.1154V22.959C117.06 23.7326 116.452 24.3655 115.709 24.3655H91.1091C90.3658 24.3655 89.7578 23.7326 89.7578 22.959V15.1154C89.7578 14.3418 90.3658 13.709 91.1091 13.709Z" fill="#CFD8DC"/>
<path d="M108.393 20.2851C107.739 20.2851 107.207 19.7312 107.207 19.0505C107.207 18.3698 107.739 17.8159 108.393 17.8159C109.047 17.8159 109.579 18.3698 109.579 19.0505C109.579 19.7315 109.047 20.2851 108.393 20.2851ZM108.393 18.127C107.904 18.127 107.506 18.5414 107.506 19.0508C107.506 19.5602 107.904 19.9746 108.393 19.9746C108.883 19.9746 109.281 19.5602 109.281 19.0508C109.281 18.5414 108.883 18.127 108.393 18.127Z" fill="white"/>
<path d="M103.5 20.2851C102.846 20.2851 102.314 19.7312 102.314 19.0505C102.314 18.3698 102.846 17.8159 103.5 17.8159C104.154 17.8159 104.686 18.3698 104.686 19.0505C104.686 19.7315 104.154 20.2851 103.5 20.2851ZM103.5 18.127C103.01 18.127 102.612 18.5414 102.612 19.0508C102.612 19.5602 103.01 19.9746 103.5 19.9746C103.989 19.9746 104.387 19.5602 104.387 19.0508C104.387 18.5414 103.989 18.127 103.5 18.127Z" fill="white"/>
<path d="M98.9384 20.2851C98.2844 20.2851 97.7522 19.7312 97.7522 19.0505C97.7522 18.3698 98.2841 17.8159 98.9384 17.8159C99.5923 17.8159 100.124 18.3698 100.124 19.0505C100.124 19.7315 99.5926 20.2851 98.9384 20.2851ZM98.9384 18.127C98.4489 18.127 98.0508 18.5414 98.0508 19.0508C98.0508 19.5602 98.4489 19.9746 98.9384 19.9746C99.4278 19.9746 99.8259 19.5602 99.8259 19.0508C99.8259 18.5414 99.4278 18.127 98.9384 18.127Z" fill="white"/>
<path d="M31.2663 0.744385H69.384C70.1517 0.744385 70.7741 1.39213 70.7741 2.19125V60.6267C70.7741 63.3834 68.6269 65.6182 65.9784 65.6182H39.5121C33.8683 65.6182 29.293 60.8561 29.293 54.9819V2.79829C29.2933 1.6641 30.1766 0.744385 31.2663 0.744385Z" fill="white"/>
<path opacity="0.39" d="M33.3069 0.744385H70.1849C70.5104 0.744385 70.7741 1.01884 70.7741 1.35763V61.0212C70.7741 63.5599 68.7969 65.6179 66.3577 65.6179H42.1323C37.0762 65.6179 32.9778 61.3519 32.9778 56.0894V1.08722C32.9778 0.89793 33.1253 0.744385 33.3069 0.744385Z" fill="#64B5F6"/>
<path d="M64.4785 48.1685H40.5228C40.3579 48.1685 40.2241 48.0293 40.2241 47.8577C40.2241 47.6861 40.3579 47.5469 40.5228 47.5469H64.4785C64.6436 47.5469 64.7771 47.6861 64.7771 47.8577C64.7771 48.0293 64.6433 48.1685 64.4785 48.1685Z" fill="white"/>
<path d="M64.9807 37.6705H40.0748C39.9099 37.6705 39.7761 37.5312 39.7761 37.3596C39.7761 37.1881 39.9099 37.0488 40.0748 37.0488H64.9807C65.1459 37.0488 65.2794 37.1881 65.2794 37.3596C65.2794 37.5312 65.1459 37.6705 64.9807 37.6705Z" fill="white"/>
<path d="M52.5004 42.9153H39.774C39.6091 42.9153 39.4753 42.7761 39.4753 42.6045C39.4753 42.4329 39.6091 42.2937 39.774 42.2937H52.5004C52.6652 42.2937 52.799 42.4329 52.799 42.6045C52.799 42.7761 52.6652 42.9153 52.5004 42.9153Z" fill="white"/>
<path d="M51.536 42.9153H40.7378C40.573 42.9153 40.4392 42.7761 40.4392 42.6045C40.4392 42.4329 40.573 42.2937 40.7378 42.2937H51.536C51.7008 42.2937 51.8346 42.4329 51.8346 42.6045C51.8346 42.7761 51.7011 42.9153 51.536 42.9153Z" fill="white"/>
<path d="M56.6429 26.4456H40.2478C40.083 26.4456 39.9492 26.3064 39.9492 26.1348C39.9492 25.9632 40.083 25.824 40.2478 25.824H56.6429C56.8077 25.824 56.9415 25.9632 56.9415 26.1348C56.9415 26.3067 56.8077 26.4456 56.6429 26.4456Z" fill="white"/>
<path d="M64.2433 26.4456H59.2491C59.0842 26.4456 58.9504 26.3064 58.9504 26.1348C58.9504 25.9632 59.0842 25.824 59.2491 25.824H64.2433C64.4085 25.824 64.542 25.9632 64.542 26.1348C64.542 26.3067 64.4085 26.4456 64.2433 26.4456Z" fill="white"/>
<path d="M64.9806 31.6905H47.2271C47.0623 31.6905 46.9285 31.5512 46.9285 31.3797C46.9285 31.2081 47.0623 31.0688 47.2271 31.0688H64.9806C65.1457 31.0688 65.2792 31.2081 65.2792 31.3797C65.2792 31.5512 65.1457 31.6905 64.9806 31.6905Z" fill="white"/>
<path d="M45.4737 31.6905H40.0745C39.9097 31.6905 39.7759 31.5512 39.7759 31.3797C39.7759 31.2081 39.9097 31.0688 40.0745 31.0688H45.4737C45.6386 31.0688 45.7724 31.2081 45.7724 31.3797C45.7724 31.5512 45.6389 31.6905 45.4737 31.6905Z" fill="white"/>
<path d="M64.4785 22.0049H40.5228C40.3579 22.0049 40.2241 21.8657 40.2241 21.6941C40.2241 21.5225 40.3579 21.3833 40.5228 21.3833H64.4785C64.6436 21.3833 64.7771 21.5225 64.7771 21.6941C64.7771 21.8657 64.6433 22.0049 64.4785 22.0049Z" fill="white"/>
<path d="M64.4785 11.5066H40.5228C40.3579 11.5066 40.2241 11.3674 40.2241 11.1958C40.2241 11.0243 40.3579 10.885 40.5228 10.885H64.4785C64.6436 10.885 64.7771 11.0243 64.7771 11.1958C64.7771 11.3674 64.6433 11.5066 64.4785 11.5066Z" fill="white"/>
<path d="M49.3145 16.7515H40.2478C40.083 16.7515 39.9492 16.6123 39.9492 16.4407C39.9492 16.2691 40.083 16.1299 40.2478 16.1299H49.3145C49.4794 16.1299 49.6132 16.2691 49.6132 16.4407C49.6132 16.6123 49.4794 16.7515 49.3145 16.7515Z" fill="white"/>
<path d="M64.296 16.7515H53.4978C53.333 16.7515 53.1992 16.6123 53.1992 16.4407C53.1992 16.2691 53.333 16.1299 53.4978 16.1299H64.296C64.4611 16.1299 64.5946 16.2691 64.5946 16.4407C64.5946 16.6123 64.4611 16.7515 64.296 16.7515Z" fill="white"/>
<path opacity="0.21" d="M96.5084 53.0725C103.89 45.39 103.89 32.9342 96.5084 25.2517C89.1273 17.5692 77.16 17.5692 69.7789 25.2517C62.3977 32.9342 62.3977 45.39 69.7789 53.0725C77.16 60.755 89.1273 60.755 96.5084 53.0725Z" fill="white"/>
<path opacity="0.76" d="M68.3329 40.5755C67.6733 40.5755 67.1384 40.0188 67.1384 39.3322C67.1384 29.408 74.8956 21.3345 84.4303 21.3345C85.0899 21.3345 85.6248 21.8912 85.6248 22.5778C85.6248 23.2644 85.0899 23.821 84.4303 23.821C76.2126 23.821 69.5275 30.7794 69.5275 39.3322C69.5275 40.0188 68.9926 40.5755 68.3329 40.5755Z" fill="white"/>
<path opacity="0.58" d="M83.1441 59.4556C72.3929 59.4556 63.646 50.3517 63.646 39.1615C63.646 27.9714 72.3929 18.8674 83.1441 18.8674C93.8954 18.8674 102.642 27.9714 102.642 39.1615C102.642 50.352 93.8954 59.4556 83.1441 59.4556ZM83.1441 20.1107C73.0513 20.1107 64.8405 28.657 64.8405 39.1615C64.8405 49.666 73.0513 58.2123 83.1441 58.2123C93.2369 58.2123 101.448 49.666 101.448 39.1615C101.448 28.657 93.2369 20.1107 83.1441 20.1107Z" fill="#3E479B"/>
<path d="M100.517 53.257C100.545 53.2281 100.576 53.2048 100.606 53.1808C103.485 49.3027 105.2 44.4418 105.2 39.1619C105.2 26.4832 95.3254 16.2053 83.1443 16.2053C70.9632 16.2053 61.0881 26.4832 61.0881 39.1619C61.0881 51.8406 70.9632 62.1185 83.1443 62.1185C88.1959 62.1185 92.8459 60.3443 96.5644 57.3707L99.1162 54.715L100.517 53.257ZM83.144 58.8343C72.7054 58.8343 64.2432 50.0266 64.2432 39.1619C64.2432 28.2972 72.7054 19.4894 83.144 19.4894C93.5826 19.4894 102.045 28.2972 102.045 39.1619C102.045 50.0266 93.5829 58.8343 83.144 58.8343Z" fill="#263238"/>
<path d="M83.1441 62.4293C70.8176 62.4293 60.7893 51.9914 60.7893 39.1619C60.7893 26.3322 70.8176 15.8945 83.1441 15.8945C95.4706 15.8945 105.499 26.3325 105.499 39.1619C105.499 44.3533 103.889 49.2667 100.842 53.3708L100.786 53.4286C100.757 53.4516 100.741 53.4622 100.728 53.4762L96.7461 57.6169C92.8098 60.7652 88.1061 62.4293 83.1441 62.4293ZM83.1441 16.5159C71.147 16.5159 61.3866 26.6747 61.3866 39.1616C61.3866 51.6485 71.1473 61.8074 83.1441 61.8074C87.9667 61.8074 92.5387 60.1924 96.3668 57.1364L100.305 53.037C100.333 53.0077 100.363 52.9823 100.394 52.9577C103.343 48.9699 104.902 44.2003 104.902 39.1616C104.902 26.6747 95.1412 16.5159 83.1441 16.5159ZM83.1441 59.1449C72.5574 59.1449 63.9446 50.1805 63.9446 39.1616C63.9446 28.1427 72.5574 19.1783 83.1441 19.1783C93.7308 19.1783 102.344 28.1427 102.344 39.1616C102.344 50.1805 93.7311 59.1449 83.1441 59.1449ZM83.1441 19.8C72.8868 19.8 64.5419 28.4856 64.5419 39.1616C64.5419 49.8377 72.8868 58.5233 83.1441 58.5233C93.4014 58.5233 101.746 49.8377 101.746 39.1616C101.746 28.4856 93.4014 19.8 83.1441 19.8Z" fill="#3E479B"/>
<path d="M99.9715 56.8464L99.116 55.9559C98.7866 55.6131 98.7866 55.0577 99.116 54.7148L96.5642 57.3705L96.5227 57.4137C96.1933 57.7565 96.1933 58.312 96.5227 58.6548L97.561 59.7355C97.9035 59.1384 98.9051 57.9688 99.9715 56.8464Z" fill="#4C65BA"/>
<path d="M99.1159 54.7148C98.7865 55.0576 98.7865 55.6134 99.1159 55.9559L99.9715 56.8464C101.004 55.7601 102.092 54.7226 102.703 54.2918L101.709 53.257C101.408 52.9434 100.937 52.9201 100.606 53.1809C100.576 53.2048 100.545 53.2281 100.517 53.257L99.1159 54.7148Z" fill="#4C65BA"/>
<path opacity="0.43" d="M99.1159 54.7148C98.7865 55.0576 98.7865 55.6134 99.1159 55.9559L99.9715 56.8464C101.004 55.7601 102.092 54.7226 102.703 54.2918L101.709 53.257C101.408 52.9434 100.937 52.9201 100.606 53.1809C100.576 53.2048 100.545 53.2281 100.517 53.257L99.1159 54.7148Z" fill="#3E479B"/>
<path d="M118.706 70.4422L103.174 54.0999C103.118 54.0412 102.948 54.1192 102.703 54.2917C102.092 54.7228 101.004 55.7603 99.9716 56.8463C98.9052 57.9687 97.9039 59.1383 97.5611 59.7357C97.4497 59.93 97.4067 60.0649 97.4554 60.1165L112.987 76.4588C114.567 78.1201 117.127 78.1201 118.706 76.4588C120.285 74.7971 120.285 72.1036 118.706 70.4422Z" fill="#599AF2"/>
<path d="M62.079 61.7666H36.6659C34.8873 61.7666 33.4455 60.2659 33.4455 58.4147V56.2165C33.4455 54.3588 31.9983 52.8525 30.2134 52.8525H18.4755C16.6906 52.8525 15.2434 54.3588 15.2434 56.2165V64.8999V74.8826V91.132C15.2434 92.8623 16.5911 94.2653 18.2539 94.2653H62.079C63.7414 94.2653 65.0894 92.8626 65.0894 91.132V64.8999C65.0894 63.1693 63.7414 61.7666 62.079 61.7666Z" fill="#FFA726"/>
<path d="M59.2787 61.7666H33.8656C32.087 61.7666 30.6452 60.2659 30.6452 58.4147V56.2165C30.6452 54.3588 29.1981 52.8525 27.4132 52.8525H15.6749C13.89 52.8525 12.4429 54.3588 12.4429 56.2165V64.8999V74.8826V91.1316C12.4429 92.862 13.7906 94.265 15.4534 94.265H59.2787C60.9412 94.265 62.2892 92.8623 62.2892 91.1316V64.8996C62.2889 63.1693 60.9412 61.7666 59.2787 61.7666Z" fill="#FFA726"/>
<path d="M14.7911 65.2578C14.6262 65.2578 14.4924 65.1188 14.4924 64.947V57.3197C14.4924 56.1383 15.4158 55.1772 16.5506 55.1772H25.2004C25.3652 55.1772 25.499 55.3162 25.499 55.4881C25.499 55.66 25.3652 55.7989 25.2004 55.7989H16.5506C15.7452 55.7989 15.0897 56.4808 15.0897 57.3197V64.947C15.0897 65.1185 14.9562 65.2578 14.7911 65.2578Z" fill="white"/>
</g>
<defs>
<clipPath id="clip0_1727_2442">
<rect width="128" height="103" fill="white"/>
</clipPath>
</defs>
</svg>
