<svg width="148" height="140" viewBox="0 0 148 140" fill="none" xmlns="http://www.w3.org/2000/svg">
<path opacity="0.5" d="M63.9609 126.824C85.9461 126.824 103.769 109.001 103.769 87.0163C103.769 65.0312 85.9461 47.2087 63.9609 47.2087C41.9758 47.2087 24.1533 65.0312 24.1533 87.0163C24.1533 109.001 41.9758 126.824 63.9609 126.824Z" fill="white"/>
<path d="M112.658 88.9052H74.8419C73.7427 88.9052 72.8516 88.0142 72.8516 86.915V35.1658C72.8516 34.0665 73.7427 33.1755 74.8419 33.1755H112.658C113.757 33.1755 114.649 34.0665 114.649 35.1658V86.9148C114.649 88.0137 113.758 88.9052 112.658 88.9052Z" fill="#CCE9FF"/>
<path d="M102.707 49.0984H84.7936C84.2441 49.0984 83.7983 48.6528 83.7983 48.1031C83.7983 47.5537 84.2441 47.1082 84.7936 47.1082H102.707C103.256 47.1082 103.702 47.5537 103.702 48.1031C103.702 48.6528 103.256 49.0984 102.707 49.0984Z" fill="#F7F7F7"/>
<path opacity="0.97" d="M82.3056 57.0598H80.3152C79.7656 57.0598 79.3201 56.6142 79.3201 56.0649C79.3201 55.5155 79.7656 55.0696 80.3152 55.0696H82.3056C82.8551 55.0696 83.3007 55.5155 83.3007 56.0649C83.3007 56.6146 82.8551 57.0598 82.3056 57.0598Z" fill="#D3D3D3"/>
<path opacity="0.97" d="M108.181 56.0655C108.181 56.3409 108.07 56.589 107.889 56.7682C107.709 56.9486 107.46 57.0595 107.185 57.0595H86.2859C85.7362 57.0595 85.2917 56.6136 85.2917 56.0655C85.2917 55.7898 85.4029 55.5417 85.5832 55.3612C85.762 55.1808 86.0118 55.0696 86.2859 55.0696H107.185C107.735 55.0696 108.181 55.5156 108.181 56.0655Z" fill="#F7F7F7"/>
<path opacity="0.97" d="M82.3056 61.0403H80.3152C79.7656 61.0403 79.3201 60.5947 79.3201 60.0453C79.3201 59.4956 79.7656 59.05 80.3152 59.05H82.3056C82.8551 59.05 83.3007 59.4956 83.3007 60.0453C83.3007 60.595 82.8551 61.0403 82.3056 61.0403Z" fill="#D3D3D3"/>
<path opacity="0.97" d="M108.18 60.0447C108.18 60.3205 108.069 60.5686 107.889 60.749C107.708 60.9295 107.46 61.0407 107.184 61.0407H86.2854C85.7357 61.0407 85.2913 60.5945 85.2913 60.0447C85.2913 59.7693 85.4024 59.5212 85.5827 59.3421C85.7615 59.1616 86.0113 59.0508 86.2854 59.0508H107.184C107.734 59.0506 108.18 59.4952 108.18 60.0447Z" fill="#F7F7F7"/>
<path opacity="0.97" d="M82.3056 65.0211H80.3152C79.7656 65.0211 79.3201 64.5755 79.3201 64.0261C79.3201 63.4764 79.7656 63.0305 80.3152 63.0305H82.3056C82.8551 63.0305 83.3007 63.4764 83.3007 64.0261C83.3007 64.5755 82.8551 65.0211 82.3056 65.0211Z" fill="#D3D3D3"/>
<path opacity="0.97" d="M108.18 64.0261C108.18 64.3002 108.069 64.5496 107.889 64.7301C107.708 64.9105 107.46 65.0217 107.184 65.0217H86.2854C85.7357 65.0217 85.2913 64.5758 85.2913 64.0261C85.2913 63.752 85.4024 63.5023 85.5827 63.3218C85.7615 63.1414 86.0113 63.0305 86.2854 63.0305H107.184C107.734 63.0305 108.18 63.4764 108.18 64.0261Z" fill="#F7F7F7"/>
<path d="M87.2816 73.9773H80.3155C79.766 73.9773 79.3202 73.5317 79.3202 72.9823C79.3202 72.4326 79.766 71.9871 80.3155 71.9871H87.2816C87.8311 71.9871 88.2769 72.4326 88.2769 72.9823C88.2767 73.5319 87.8311 73.9773 87.2816 73.9773ZM84.2959 77.9582H80.3153C79.7658 77.9582 79.3201 77.5126 79.3201 76.9629C79.3201 76.4135 79.7658 75.968 80.3153 75.968H84.2959C84.8455 75.968 85.2912 76.4135 85.2912 76.9629C85.2912 77.5126 84.8456 77.9582 84.2959 77.9582Z" fill="#0B4870"/>
<path d="M99.7209 45.1174H87.7788C87.2293 45.1174 86.7837 44.6718 86.7837 44.1224C86.7837 43.5727 87.2293 43.1271 87.7788 43.1271H99.7209C100.27 43.1271 100.716 43.5727 100.716 44.1224C100.716 44.672 100.27 45.1174 99.7209 45.1174ZM99.7209 40.7102H87.7788C87.2293 40.7102 86.7837 40.2646 86.7837 39.7152C86.7837 39.1655 87.2293 38.72 87.7788 38.72H99.7209C100.27 38.72 100.716 39.1655 100.716 39.7152C100.716 40.2648 100.27 40.7102 99.7209 40.7102Z" fill="#F7F7F7"/>
<g opacity="0.9">
<path opacity="0.9" d="M110.673 88.623L108.027 89.1176L107.465 91.7503C107.345 92.3164 106.642 92.5191 106.238 92.105L98.5667 84.2367L103.387 79.5369L111.058 87.4052C111.462 87.8193 111.241 88.5166 110.673 88.623Z" fill="#FFBE55"/>
<path opacity="0.9" d="M90.3745 87.4052L98.0458 79.5369L102.866 84.2367L95.1951 92.105C94.7911 92.5191 94.0883 92.3164 93.9676 91.7503L93.4063 89.1175L90.7604 88.623C90.1917 88.5167 89.9707 87.8195 90.3745 87.4052Z" fill="#FFBE55"/>
</g>
<path d="M110.326 78.5655C110.326 78.7302 110.255 78.8869 110.132 78.996L108.308 80.5996L109.086 82.9004C109.138 83.0562 109.121 83.2276 109.039 83.3702C108.956 83.5129 108.816 83.6136 108.655 83.646L106.274 84.1238L105.797 86.5042C105.765 86.6654 105.664 86.8059 105.521 86.8881C105.433 86.939 105.334 86.9652 105.234 86.9652C105.173 86.9652 105.111 86.955 105.051 86.9344L102.751 86.1576L101.147 87.9806C101.038 88.1044 100.881 88.1753 100.716 88.1753C100.552 88.1753 100.394 88.1042 100.286 87.9806L98.6821 86.1576L96.3821 86.9344C96.3221 86.9549 96.2601 86.9652 96.1985 86.9652C96.0988 86.9652 95.9997 86.939 95.9116 86.8881C95.7688 86.8059 95.6684 86.6655 95.6359 86.5042L95.1584 84.1238L92.7779 83.646C92.6163 83.6137 92.4765 83.513 92.3943 83.3702C92.3116 83.2276 92.2945 83.0562 92.3474 82.9004L93.1241 80.5996L91.3014 78.996C91.1774 78.8869 91.1067 78.7302 91.1067 78.5655C91.1067 78.4001 91.1774 78.2437 91.3014 78.1347L93.1241 76.5307L92.3474 74.2302C92.2945 74.0745 92.3116 73.903 92.3943 73.7604C92.4765 73.6181 92.6163 73.5171 92.7779 73.4843L95.1584 73.0072L95.6359 70.6267C95.6684 70.4653 95.7688 70.3251 95.9116 70.2426C95.9997 70.192 96.0988 70.1654 96.1985 70.1654C96.2601 70.1654 96.3221 70.1759 96.3821 70.1959L98.6821 70.9727L100.286 69.15C100.394 69.0262 100.551 68.9553 100.716 68.9553C100.881 68.9553 101.038 69.0264 101.147 69.15L102.751 70.9727L105.051 70.1959C105.111 70.1761 105.173 70.1654 105.234 70.1654C105.334 70.1654 105.433 70.192 105.521 70.2426C105.664 70.3251 105.765 70.4651 105.797 70.6267L106.274 73.0072L108.655 73.4843C108.816 73.5169 108.956 73.6179 109.039 73.7604C109.121 73.903 109.138 74.0745 109.086 74.2302L108.308 76.5307L110.132 78.1347C110.255 78.2437 110.326 78.4001 110.326 78.5655Z" fill="#2A94F4"/>
<path d="M100.716 84.4685C103.976 84.4685 106.619 81.8255 106.619 78.5653C106.619 75.3051 103.976 72.6621 100.716 72.6621C97.4559 72.6621 94.813 75.3051 94.813 78.5653C94.813 81.8255 97.4559 84.4685 100.716 84.4685Z" fill="#FFBE55"/>
<path d="M72.12 106.9V108H66.84V107.13L69.71 104.49C70.0367 104.19 70.2567 103.93 70.37 103.71C70.4833 103.49 70.54 103.267 70.54 103.04C70.54 102.72 70.42 102.473 70.18 102.3C69.9467 102.12 69.6067 102.03 69.16 102.03C68.4067 102.03 67.83 102.273 67.43 102.76L66.52 102.06C66.8 101.693 67.18 101.41 67.66 101.21C68.14 101.003 68.6767 100.9 69.27 100.9C69.79 100.9 70.2433 100.983 70.63 101.15C71.0233 101.31 71.3233 101.543 71.53 101.85C71.7433 102.15 71.85 102.503 71.85 102.91C71.85 103.277 71.7633 103.63 71.59 103.97C71.4233 104.303 71.1033 104.687 70.63 105.12L68.71 106.9H72.12ZM76.502 108.1C75.922 108.1 75.4053 107.957 74.952 107.67C74.5053 107.377 74.1553 106.96 73.902 106.42C73.6553 105.873 73.532 105.233 73.532 104.5C73.532 103.767 73.6553 103.13 73.902 102.59C74.1553 102.043 74.5053 101.627 74.952 101.34C75.4053 101.047 75.922 100.9 76.502 100.9C77.082 100.9 77.5953 101.047 78.042 101.34C78.4953 101.627 78.8453 102.043 79.092 102.59C79.3453 103.13 79.472 103.767 79.472 104.5C79.472 105.233 79.3453 105.873 79.092 106.42C78.8453 106.96 78.4953 107.377 78.042 107.67C77.5953 107.957 77.082 108.1 76.502 108.1ZM76.502 106.97C77.002 106.97 77.402 106.76 77.702 106.34C78.0086 105.913 78.162 105.3 78.162 104.5C78.162 103.7 78.0086 103.09 77.702 102.67C77.402 102.243 77.002 102.03 76.502 102.03C76.002 102.03 75.5986 102.243 75.292 102.67C74.992 103.09 74.842 103.7 74.842 104.5C74.842 105.3 74.992 105.913 75.292 106.34C75.5986 106.76 76.002 106.97 76.502 106.97ZM85.9639 106.91V108H81.3839V106.91H83.1139V102.09H81.5039V101H84.4239V106.91H85.9639ZM90.1159 103.71C91.1692 103.71 91.9425 103.903 92.4359 104.29C92.9359 104.67 93.1859 105.19 93.1859 105.85C93.1859 106.27 93.0792 106.65 92.8659 106.99C92.6525 107.33 92.3292 107.6 91.8959 107.8C91.4692 108 90.9392 108.1 90.3059 108.1C89.7859 108.1 89.2792 108.03 88.7859 107.89C88.2992 107.743 87.8925 107.543 87.5659 107.29L88.1159 106.28C88.3892 106.493 88.7192 106.663 89.1059 106.79C89.4925 106.91 89.8925 106.97 90.3059 106.97C90.7992 106.97 91.1825 106.877 91.4559 106.69C91.7359 106.497 91.8759 106.233 91.8759 105.9C91.8759 105.54 91.7225 105.27 91.4159 105.09C91.1159 104.903 90.5992 104.81 89.8659 104.81H88.0859L88.4559 101H92.7259V102.09H89.5459L89.3959 103.71H90.1159Z" fill="black"/>
<path d="M30.7691 84.8688C32.1632 86.1472 32.9414 88.4973 31.9359 89.5939C30.9303 90.6905 28.5217 90.1184 27.1276 88.8399C25.7334 87.5615 25.8817 86.061 26.8872 84.9644C27.8929 83.8678 29.375 83.5904 30.7691 84.8688Z" fill="#363E44"/>
<path d="M29.1103 90.572C28.234 90.572 27.3039 90.3639 26.5295 89.9761C25.6422 89.5316 25.0501 88.8909 24.8168 88.1232C24.6022 87.4166 24.6932 86.6351 25.08 85.863C25.467 85.0909 26.0383 84.5499 26.7327 84.2988C27.4871 84.0257 28.355 84.1165 29.2423 84.5609C30.1525 85.0169 31.013 85.8108 31.5438 86.6844C32.1281 87.646 32.2538 88.5672 31.8977 89.2782C31.4525 90.1664 30.3336 90.572 29.1103 90.572ZM27.6295 84.4202C27.3493 84.4202 27.0802 84.4658 26.8264 84.5576C26.1996 84.7844 25.6808 85.2785 25.3263 85.9865C24.9717 86.6942 24.8866 87.4055 25.0803 88.0432C25.291 88.7369 25.8347 89.3201 26.653 89.7298C28.358 90.5843 30.9683 90.5183 31.6513 89.1548C31.9637 88.5317 31.8418 87.7052 31.3085 86.8275C30.8034 85.9963 29.9848 85.241 29.1188 84.8073C28.6054 84.55 28.1018 84.4202 27.6295 84.4202Z" fill="#363E44"/>
<path d="M31.7745 89.2168C31.7745 89.2168 31.8743 92.0751 24.9133 93.131C16.4805 94.4101 21.8826 102.645 13.3354 103.556C4.7883 104.466 5.1437 110.516 5.1437 110.516L7.41948 112.898C8.07832 111.253 9.76694 108.34 13.6208 107.626C13.6208 107.626 9.66342 109.361 8.95388 114.504L13.9607 119.744L42.2063 99.1372L31.7745 89.2168Z" fill="#363E44"/>
<path d="M54.5906 86.2244C54.5906 86.2244 63.6318 77.0642 66.8181 74.2275C70.1644 71.2483 75.5387 67.3369 76.0762 68.0957C76.3823 68.528 75.7597 69.213 73.9737 70.9332C74.1509 70.9365 74.6854 71.0794 74.9036 71.5269C75.2266 72.1891 74.7631 72.5968 74.7395 72.652C74.7997 72.6482 75.4877 72.6423 75.7789 73.049C76.1069 73.5071 76.0151 73.9765 75.7866 74.355C75.9362 74.3504 76.574 74.4357 76.834 74.8403C77.1721 75.3663 76.8601 75.9841 76.4696 76.3217C75.753 76.9408 73.753 78.5839 72.8064 79.588C70.9433 81.5637 65.2693 89.4681 61.8219 91.6119C61.0586 88.182 54.5906 86.2244 54.5906 86.2244Z" fill="#FFD5CF"/>
<path d="M70.1504 77.9201C70.1278 77.9201 70.1049 77.9146 70.0837 77.9027C70.0173 77.8659 69.9932 77.7821 70.0302 77.7156C70.4926 76.8824 70.521 76.1048 70.544 75.48C70.5675 74.8389 70.588 74.2852 71.149 74.094C71.4844 73.9796 71.8353 73.6693 72.1637 73.1965C72.2417 73.0842 72.2144 72.965 72.1629 72.8909C72.1104 72.8155 72.0065 72.7471 71.8713 72.7822L69.0507 73.5077C68.9784 73.5269 68.9022 73.4824 68.883 73.4086C68.8641 73.3349 68.9085 73.2599 68.9821 73.2409L71.8027 72.5154C72.0263 72.458 72.2565 72.5434 72.3889 72.7336C72.5201 72.9223 72.5205 73.1656 72.3898 73.3535C72.0224 73.8824 71.6348 74.2193 71.2377 74.3545C70.8723 74.4791 70.8441 74.8111 70.8192 75.4901C70.7951 76.1442 70.7651 76.9583 70.2708 77.8492C70.2457 77.8945 70.1988 77.9201 70.1504 77.9201Z" fill="#363E44"/>
<path d="M74.8732 77.0965C74.8347 77.0965 74.7966 77.0805 74.7693 77.0492C74.3211 76.5333 74.263 75.7988 74.5817 75.2262L74.4684 75.2995C74.0345 75.5797 73.4634 75.5099 73.1097 75.134C72.9104 74.9222 72.8077 74.6456 72.8203 74.3552C72.8329 74.0648 72.9593 73.7983 73.1762 73.6045L73.4079 73.3975C73.1287 73.4088 72.8442 73.2861 72.6649 73.0464C72.396 72.6866 72.4397 72.1833 72.7668 71.8755L73.544 71.1449C73.5991 71.0929 73.6862 71.0951 73.7385 71.1509C73.7905 71.2063 73.7879 71.2934 73.7325 71.3455L72.9554 72.0761C72.7305 72.2877 72.7003 72.6339 72.8854 72.8814C73.0818 73.1438 73.4582 73.2019 73.7248 73.0106L74.3222 72.5817C74.3815 72.5391 74.464 72.5504 74.5099 72.6074C74.5556 72.6645 74.5488 72.7475 74.4942 72.7962L73.3596 73.8099C73.1987 73.9536 73.1049 74.1515 73.0954 74.3672C73.086 74.5827 73.1624 74.7881 73.3103 74.9453C73.5727 75.2246 73.9971 75.276 74.3189 75.0683L75.279 74.4481C75.3381 74.4095 75.4166 74.4225 75.4608 74.4773C75.5051 74.532 75.5008 74.6113 75.451 74.661L75.0398 75.0723C74.5529 75.5595 74.5254 76.3485 74.9772 76.8685C75.0271 76.9259 75.021 77.0129 74.9636 77.0628C74.9374 77.0854 74.9053 77.0965 74.8732 77.0965Z" fill="#363E44"/>
<path d="M59.6805 78.6997L68.0599 87.8196L53.0756 103.309L65.584 138.367L24.561 137.85V131.549C24.561 131.549 23.674 131.84 19.4805 131.93C16.734 131.988 11.1385 129.777 11.9458 123.498C13.3182 112.823 44.4185 93.3999 59.6805 78.6997Z" fill="#EFBC73"/>
<path d="M17.776 122.461C17.7366 122.461 17.6975 122.444 17.6702 122.412C17.6215 122.353 17.6292 122.267 17.6875 122.218C20.9681 119.475 23.4776 118.452 25.1478 119.177C26.8642 119.922 27.0101 122.218 27.0156 122.316C27.0199 122.392 26.9617 122.457 26.8858 122.461C26.8085 122.463 26.745 122.407 26.7408 122.331C26.7395 122.309 26.5975 120.105 25.0369 119.429C23.4708 118.75 21.0575 119.759 17.8642 122.429C17.8384 122.451 17.807 122.461 17.776 122.461Z" fill="#E0AA63"/>
<path d="M24.5608 108.634C24.5608 108.634 30.448 97.5527 46.3269 93.6182L46.1455 101.83L48.2683 102.283C48.2683 102.283 48.5897 112.763 50.0962 118.457L36.1174 127.205C36.1174 127.205 33.1721 119.02 27.8701 114.438L29.2028 112.289L24.5608 108.634Z" fill="#E0AA63"/>
<path d="M28.6709 105.203C28.6709 105.203 37.5258 97.7927 40.9307 96.3115L51.5439 119.822L51.1177 138.572L38.8796 138.294L28.6709 105.203Z" fill="white"/>
<path d="M51.5437 119.959C51.5427 119.959 51.5417 119.959 51.5406 119.959C51.4645 119.958 51.4043 119.895 51.406 119.819L51.626 110.141C51.6278 110.066 51.6891 110.007 51.7637 110.007C51.7646 110.007 51.7657 110.007 51.7668 110.007C51.8429 110.009 51.9031 110.072 51.9013 110.148L51.6813 119.825C51.6796 119.9 51.6183 119.959 51.5437 119.959Z" fill="#E0AA63"/>
<path d="M33.4818 104.981C33.3931 104.981 33.3006 104.97 33.2053 104.948C32.8779 104.873 32.554 104.675 32.2929 104.391C32.0319 104.106 31.8627 103.766 31.8164 103.433C31.7676 103.082 31.8602 102.779 32.0769 102.58C32.5096 102.184 33.3101 102.351 33.8616 102.952C34.1226 103.237 34.2918 103.577 34.338 103.909C34.3868 104.26 34.2943 104.563 34.0776 104.762C33.9205 104.906 33.7147 104.981 33.4818 104.981ZM32.677 102.636C32.5162 102.636 32.372 102.683 32.2629 102.783C32.1148 102.919 32.0531 103.137 32.0891 103.396C32.1276 103.673 32.2722 103.961 32.4958 104.204C32.7194 104.448 32.9931 104.617 33.2666 104.679C33.5213 104.738 33.7433 104.695 33.8914 104.559C34.0395 104.423 34.1012 104.206 34.0653 103.947C34.0267 103.669 33.8823 103.382 33.6586 103.138C33.3623 102.815 32.9889 102.636 32.677 102.636Z" fill="#E0AA63"/>
<path d="M34.8262 105.785C34.6481 105.785 34.4609 105.759 34.2731 105.704C33.4895 105.476 32.9853 104.832 33.1494 104.269C33.3133 103.705 34.0844 103.433 34.8679 103.661C35.6514 103.889 36.1555 104.533 35.9916 105.096C35.867 105.524 35.3913 105.785 34.8262 105.785ZM34.3038 103.854C33.8642 103.854 33.5035 104.037 33.4137 104.346C33.2922 104.763 33.7121 105.254 34.35 105.44C34.9878 105.625 35.6058 105.437 35.7274 105.019C35.8487 104.602 35.4288 104.111 34.791 103.925C34.6244 103.877 34.4591 103.854 34.3038 103.854ZM35.8595 105.058H35.8608H35.8595Z" fill="#E0AA63"/>
<path d="M36.5144 105.995C35.7892 105.995 35.1904 105.605 35.1381 105.07C35.1094 104.778 35.2429 104.49 35.514 104.261C35.7703 104.045 36.1234 103.905 36.5077 103.867C37.3205 103.788 38.0273 104.198 38.0843 104.782C38.1413 105.366 37.5269 105.906 36.7147 105.985C36.647 105.992 36.5802 105.995 36.5144 105.995ZM36.713 104.132C36.6545 104.132 36.595 104.135 36.5346 104.141C36.2053 104.173 35.9059 104.291 35.6916 104.472C35.4918 104.64 35.3926 104.843 35.4121 105.043C35.4545 105.476 36.0265 105.776 36.6878 105.711C37.3491 105.647 37.8526 105.242 37.8104 104.809C37.7719 104.416 37.2957 104.132 36.713 104.132Z" fill="#E0AA63"/>
<path d="M38.0706 105.339C38.0651 105.339 38.0597 105.339 38.0544 105.339C37.6997 105.334 37.4141 105.198 37.2497 104.954C36.922 104.467 37.206 103.701 37.8829 103.245C38.5602 102.789 39.3775 102.814 39.7051 103.301C39.8694 103.544 39.8885 103.861 39.7589 104.191C39.6362 104.503 39.3922 104.794 39.0719 105.01C38.7567 105.222 38.4017 105.339 38.0706 105.339ZM38.8867 103.189C38.6226 103.189 38.3173 103.284 38.0368 103.473C37.4858 103.844 37.2351 104.44 37.4781 104.8C37.5903 104.967 37.7961 105.06 38.0576 105.063C38.0619 105.063 38.0664 105.063 38.0708 105.063C38.3476 105.063 38.6479 104.964 38.9181 104.782C39.1927 104.597 39.4002 104.351 39.5027 104.09C39.5983 103.847 39.589 103.621 39.4769 103.454C39.3576 103.277 39.1413 103.189 38.8867 103.189Z" fill="#E0AA63"/>
<path d="M39.6119 104.081C39.4377 104.081 39.2765 104.034 39.1386 103.94C38.8954 103.774 38.7603 103.488 38.7578 103.133C38.7557 102.797 38.8741 102.437 39.0914 102.118C39.3088 101.798 39.6009 101.556 39.914 101.435C40.2445 101.307 40.5606 101.327 40.804 101.493C41.047 101.658 41.1823 101.944 41.1845 102.299C41.1866 102.635 41.0683 102.996 40.851 103.315C40.6338 103.634 40.3416 103.877 40.0285 103.998C39.8854 104.053 39.7449 104.081 39.6119 104.081ZM40.3296 101.627C40.2304 101.627 40.1238 101.649 40.0134 101.691C39.7519 101.792 39.5053 101.999 39.3191 102.272C39.133 102.546 39.0313 102.851 39.0332 103.132C39.0349 103.393 39.1274 103.599 39.2934 103.712C39.4594 103.825 39.6853 103.836 39.9292 103.741C40.1906 103.64 40.4372 103.434 40.6233 103.16C40.8095 102.886 40.9111 102.581 40.9092 102.301C40.9075 102.039 40.8151 101.833 40.6491 101.72C40.5582 101.658 40.4493 101.627 40.3296 101.627Z" fill="#E0AA63"/>
<path d="M40.5547 102.143C40.2803 102.143 40.0179 102.002 39.811 101.74C39.6025 101.477 39.4738 101.12 39.4484 100.734C39.4231 100.349 39.5039 99.9781 39.6761 99.6899C39.858 99.3854 40.1197 99.207 40.4132 99.1878C40.7051 99.1684 40.9894 99.3109 41.2096 99.589C41.4181 99.8523 41.5468 100.209 41.5722 100.595C41.5975 100.98 41.5167 101.351 41.3445 101.639C41.1626 101.944 40.9009 102.122 40.6074 102.142C40.5897 102.143 40.5721 102.143 40.5547 102.143ZM40.4649 99.4615C40.4537 99.4615 40.4425 99.4617 40.4313 99.4626C40.2309 99.4757 40.0467 99.6065 39.9125 99.8311C39.7686 100.072 39.7015 100.386 39.7232 100.716C39.7448 101.047 39.8526 101.35 40.0268 101.569C40.1891 101.774 40.3897 101.882 40.5894 101.867C40.7898 101.854 40.974 101.723 41.1082 101.498C41.252 101.258 41.3192 100.943 41.2975 100.613C41.2758 100.283 41.168 99.9799 40.9939 99.7599C40.8406 99.5664 40.6539 99.4615 40.4649 99.4615ZM40.4222 99.3252H40.4235H40.4222Z" fill="#E0AA63"/>
<path d="M40.329 100.077C40.1551 100.077 39.9722 100.025 39.792 99.9217C39.5007 99.7548 39.2485 99.471 39.0818 99.1226C38.7297 98.3864 38.8738 97.5813 39.4031 97.3281C39.933 97.0755 40.6496 97.4679 41.0018 98.2041C41.1685 98.5526 41.2312 98.9271 41.1785 99.2586C41.1226 99.6088 40.9458 99.8716 40.6805 99.9985C40.5706 100.051 40.452 100.077 40.329 100.077ZM39.522 97.5765C39.1296 97.7642 39.0435 98.4045 39.3303 99.0037C39.4731 99.3022 39.6858 99.5434 39.929 99.6829C40.1557 99.8129 40.3803 99.8368 40.5618 99.7501C40.743 99.6635 40.8655 99.4736 40.9066 99.2153C40.9507 98.9384 40.8964 98.6214 40.7535 98.323C40.4668 97.7236 39.9144 97.3885 39.522 97.5765Z" fill="#E0AA63"/>
<path d="M83.6404 136.224C82.962 137.674 81.5057 138.601 79.9048 138.601H54.2007L65.7123 113.993H94.0401L83.6404 136.224Z" fill="#363E44"/>
<path d="M37.3284 136.13C37.3284 137.501 38.4396 138.613 39.8104 138.613H63.5118L64.6731 136.13H37.3284Z" fill="#363E44"/>
<path d="M77.5105 125.011C77.5172 124.076 76.7646 123.313 75.8297 123.306C74.8948 123.3 74.1315 124.052 74.1248 124.987C74.1182 125.923 74.8707 126.686 75.8056 126.693C76.7406 126.699 77.5039 125.947 77.5105 125.011Z" fill="white"/>
<path d="M51.6092 132.991C50.8723 132.139 48.3773 128.101 46.1733 128.283C43.9536 128.467 42.192 130.187 41.1782 132.17C41.1808 132.179 41.1835 132.189 41.186 132.197C41.1617 132.814 41.2197 133.739 41.7402 134.617C42.3335 135.617 42.9595 135.598 43.75 136.556C45.0843 138.174 44.5733 139.862 45.3151 139.902C45.8242 139.929 46.1645 138.959 46.2446 137.992C46.3269 137 45.9626 136.324 46.1115 136.258C46.2748 136.185 46.556 136.92 46.9896 137.801C47.191 138.21 47.0516 139.676 47.7416 139.816C48.2918 139.928 48.8178 138.441 48.5248 137.096C48.3175 136.145 47.5644 135.575 47.6977 135.457C47.7977 135.369 48.2381 135.72 48.5275 136.136C49.0051 136.821 48.8786 138.322 49.5162 138.439C50.1409 138.553 50.5775 137.246 50.3863 135.993C50.2251 134.936 49.3549 134.34 49.5197 134.193C49.6357 134.089 50.0807 134.275 50.8552 134.924C51.5016 135.465 52.4096 136.934 53.0772 136.342C53.6386 135.844 52.7215 134.278 51.6092 132.991Z" fill="#FFD5CF"/>
<path d="M24.4055 121.031C24.4055 121.031 16.4917 126.055 20.8992 131.033L42.9512 133.143L47.2528 128.493C40.2296 124.513 31.9322 121.632 24.4055 121.031Z" fill="#FFD5CF"/>
<path d="M34.7274 123.221C34.7167 123.221 34.7056 123.219 34.6947 123.217L28.4597 121.698C28.3857 121.68 28.3404 121.605 28.3585 121.531C28.3765 121.458 28.4512 121.412 28.5248 121.43L34.7599 122.949C34.8338 122.967 34.8791 123.042 34.8611 123.115C34.8457 123.178 34.7894 123.221 34.7274 123.221Z" fill="#363E44"/>
<path d="M40.1898 95.4474C39.2727 96.5672 35.457 95.252 35.457 95.252L32.5647 91.9071C32.0275 89.9431 33.1841 87.9154 35.1481 87.3781C37.1122 86.8409 39.1398 87.9976 39.6771 89.9616C39.677 89.9616 41.124 94.307 40.1898 95.4474Z" fill="#FFD5CF"/>
<path d="M38.1676 100.636L38.0405 92.3843L33.574 92.4811L33.7011 100.733C33.7278 101.966 34.7494 102.944 35.9828 102.918C37.2162 102.891 38.1943 101.869 38.1676 100.636Z" fill="#FFD5CF"/>
<path d="M39.5244 91.0088C39.5244 91.0088 40.8077 91.781 40.8301 92.0715C40.8568 92.4182 39.8007 92.923 39.8007 92.923C39.8007 92.923 39.5516 91.0041 39.5244 91.0088Z" fill="#FFD5CF"/>
<path d="M36.3035 92.2093C36.3035 92.2093 36.6198 91.5838 37.23 91.1582C37.3598 91.0676 37.8397 92.2774 37.6754 92.3046C36.9531 92.4239 36.3035 92.2093 36.3035 92.2093Z" fill="white"/>
<path d="M38.1728 92.1648C39.0634 91.7969 39.5286 90.877 39.5286 90.877C39.5286 90.877 38.5498 90.5536 37.6593 90.9215C37.5033 90.9859 37.3613 91.0678 37.2316 91.1582C37.1683 91.605 37.3479 92.0334 37.6747 92.3045C37.8393 92.2773 38.0076 92.2331 38.1728 92.1648Z" fill="#363E44"/>
<path d="M38.9518 93.935C38.8858 93.935 38.8193 93.9249 38.7545 93.9043C38.519 93.8293 38.343 93.622 38.306 93.3761C38.2947 93.3009 38.3466 93.2308 38.4217 93.2195C38.4985 93.2098 38.5672 93.26 38.5783 93.3352C38.5997 93.4781 38.7016 93.5985 38.8381 93.6418C38.9794 93.6871 39.1359 93.6443 39.2363 93.5327C39.2872 93.4763 39.3742 93.4716 39.4306 93.5225C39.4871 93.5733 39.4917 93.6604 39.4409 93.7169C39.3141 93.8578 39.1349 93.935 38.9518 93.935Z" fill="#363E44"/>
<path d="M38.2992 96.1489C38.2953 96.1489 38.2914 96.1488 38.2875 96.1483C36.9429 96.0348 35.4849 95.4657 35.4235 95.4415C35.3527 95.4136 35.318 95.3337 35.3458 95.263C35.3736 95.1922 35.4537 95.1577 35.5243 95.1852C35.5389 95.1911 37.007 95.7638 38.3106 95.8741C38.3864 95.8804 38.4426 95.9471 38.4361 96.0228C38.4301 96.0946 38.3701 96.1489 38.2992 96.1489Z" fill="#363E44"/>
<path d="M33.0992 99.2643C32.0582 98.7359 31.0213 91.0423 31.7041 89.4677C32.5844 87.4376 35.0298 86.2828 36.9797 86.4921C37.459 86.5435 38.5511 86.8033 38.9001 87.4961C39.1717 88.0355 38.6057 89.1308 37.6823 89.4283C36.3839 89.8466 34.5854 89.5076 35.2193 90.9906C37.14 95.4846 34.2431 99.8448 33.0992 99.2643Z" fill="#363E44"/>
</svg>
