<svg width="132" height="100" viewBox="0 0 132 100" fill="none" xmlns="http://www.w3.org/2000/svg">
<g clip-path="url(#clip0_1727_2813)">
<path d="M69.8533 73.3859L87.2766 80.3648L108.844 26.8036L94.1167 20.9046C92.628 20.3082 90.9364 21.0285 90.3384 22.5133L69.8533 73.3859Z" fill="#F4A640"/>
<path d="M67.8084 71.3891L101.168 77.2891L109.485 30.5102L76.1258 24.6102L67.8084 71.3891Z" fill="#ADCFD8"/>
<path d="M84.4909 31.2203L99.3879 33.855L99.4472 33.5214L84.5502 30.8867L84.4909 31.2203Z" fill="#55769F"/>
<path d="M81.5116 29.8208L102.667 33.5625L102.727 33.2289L81.5709 29.4873L81.5116 29.8208Z" fill="#55769F"/>
<path d="M78.4832 33.7708L104.15 38.3103L104.21 37.9767L78.5425 33.4372L78.4832 33.7708Z" fill="#55769F"/>
<path d="M78.1984 35.3751L103.865 39.9146L103.925 39.581L78.2577 35.0415L78.1984 35.3751Z" fill="#55769F"/>
<path d="M77.6281 38.5841L103.295 43.1235L103.354 42.79L77.6874 38.2505L77.6281 38.5841Z" fill="#55769F"/>
<path d="M77.3429 40.1886L103.01 44.728L103.069 44.3945L77.4022 39.855L77.3429 40.1886Z" fill="#55769F"/>
<path d="M77.0578 41.7925L102.725 46.332L102.784 45.9985L77.1171 41.459L77.0578 41.7925Z" fill="#55769F"/>
<path d="M75.8039 48.8497L101.471 53.3892L101.53 53.0556L75.8632 48.5161L75.8039 48.8497Z" fill="#55769F"/>
<path d="M75.508 50.5137L101.175 55.0532L101.234 54.7197L75.5673 50.1802L75.508 50.5137Z" fill="#55769F"/>
<path d="M75.2128 52.1768L100.88 56.7163L100.939 56.3827L75.2721 51.8433L75.2128 52.1768Z" fill="#55769F"/>
<path d="M74.9167 53.8409L100.584 58.3804L100.643 58.0468L74.976 53.5073L74.9167 53.8409Z" fill="#55769F"/>
<path d="M74.6211 55.5045L100.288 60.0439L100.347 59.7103L74.6804 55.1708L74.6211 55.5045Z" fill="#55769F"/>
<path d="M74.3255 57.1685L99.9924 61.708L100.052 61.3744L74.3848 56.835L74.3255 57.1685Z" fill="#55769F"/>
<path d="M74.0298 58.8321L99.6968 63.3716L99.7561 63.038L74.0891 58.4985L74.0298 58.8321Z" fill="#55769F"/>
<path d="M68.7993 69.3904L101.566 77.9902L113.689 32.0427L80.9229 23.4428L68.7993 69.3904Z" fill="#DAEEF7"/>
<path d="M88.72 30.7167L103.352 34.5571L103.439 34.2295L88.8065 30.3891L88.72 30.7167Z" fill="#55769F"/>
<path d="M85.8653 29.0793L106.645 34.5332L106.732 34.2056L85.9518 28.7517L85.8653 29.0793Z" fill="#55769F"/>
<path d="M82.5231 32.7684L107.734 39.3853L107.82 39.0576L82.6095 32.4408L82.5231 32.7684Z" fill="#55769F"/>
<path d="M82.1073 34.3444L107.318 40.9612L107.405 40.6335L82.1938 34.0167L82.1073 34.3444Z" fill="#55769F"/>
<path d="M81.2757 37.4955L106.487 44.1123L106.573 43.7848L81.3621 37.1679L81.2757 37.4955Z" fill="#55769F"/>
<path d="M80.8597 39.0712L106.071 45.688L106.157 45.3604L80.9461 38.7436L80.8597 39.0712Z" fill="#55769F"/>
<path d="M80.4442 40.6468L105.655 47.2637L105.741 46.936L80.5307 40.3192L80.4442 40.6468Z" fill="#55769F"/>
<path d="M78.6153 47.577L103.826 54.1938L103.913 53.8662L78.7018 47.2494L78.6153 47.577Z" fill="#55769F"/>
<path d="M78.184 49.2113L103.395 55.8281L103.481 55.5005L78.2704 48.8837L78.184 49.2113Z" fill="#55769F"/>
<path d="M77.7532 50.8451L102.964 57.4619L103.051 57.1343L77.8397 50.5174L77.7532 50.8451Z" fill="#55769F"/>
<path d="M77.3219 52.4789L102.533 59.0957L102.619 58.768L77.4084 52.1511L77.3219 52.4789Z" fill="#55769F"/>
<path d="M76.8909 54.1127L102.102 60.7295L102.188 60.4019L76.9773 53.785L76.8909 54.1127Z" fill="#55769F"/>
<path d="M76.4593 55.7469L101.67 62.3638L101.757 62.0361L76.5458 55.4193L76.4593 55.7469Z" fill="#55769F"/>
<path d="M76.0286 57.3802L101.24 63.9971L101.326 63.6694L76.1151 57.0526L76.0286 57.3802Z" fill="#55769F"/>
<path d="M76.4644 76.0341L111.541 90.084L132 39.2773L102.524 21.1424C100.868 20.1233 98.6903 20.8384 97.9649 22.6397L76.4644 76.0341Z" fill="#FEB546"/>
<path d="M118.683 70.7019L125.038 68.8451C126.157 64.2324 126.829 60.3037 126.829 60.3037C119.16 60.6121 113.259 62.9527 108.72 66.2801L107.781 73.8138L105.753 68.7628C95.0374 78.9552 93.7837 94.689 93.7837 94.689C93.7837 94.689 115.352 86.2724 119.463 82.804C121.05 81.4647 122.51 77.8052 123.704 73.8168C121.558 72.6644 118.683 70.7019 118.683 70.7019Z" fill="#64B5F6"/>
<path d="M126.829 60.3037C126.829 60.3037 101.588 80.0505 93.7837 94.6889C93.7837 94.6889 115.352 86.2723 119.463 82.8039C121.05 81.4646 122.51 77.8051 123.704 73.8168C121.558 72.6644 118.683 70.7019 118.683 70.7019L125.038 68.8451C126.157 64.2324 126.829 60.3037 126.829 60.3037Z" fill="#2196F3"/>
<path d="M131.162 79.6845C126.683 78.399 122.466 78.2073 118.58 78.7317C117.855 80.394 116.945 82.3646 116.945 82.3646L115.927 79.2086C101.362 82.4774 92.0757 95.3409 92.0757 95.3409C101.844 98.307 109.347 97.8135 115.041 95.7581C115.08 94.5462 115.111 92.7458 115.111 92.7458L116.843 95.032C119.515 93.8361 121.74 92.2963 123.576 90.655C122.666 89.4722 121.675 88.1067 121.675 88.1067L125.257 89.0179C129.585 84.4331 131.162 79.6845 131.162 79.6845Z" fill="#64B5F6"/>
<path d="M115.041 95.7582C115.08 94.5463 115.111 92.7459 115.111 92.7459L116.843 95.0321C119.515 93.8362 121.74 92.2964 123.576 90.6552C122.666 89.4723 121.675 88.1068 121.675 88.1068L125.257 89.018C129.585 84.4332 131.162 79.6846 131.162 79.6846C113.871 82.3232 92.0757 95.341 92.0757 95.341C101.844 98.3071 109.347 97.8135 115.041 95.7582Z" fill="#2196F3"/>
<path d="M20.9637 41.1531H18.5649C18.9574 40.8854 19.4483 40.7253 19.9824 40.7253H80.0743C83.2183 40.7253 85.767 42.9786 85.767 45.758V48.9548C85.767 51.7343 83.2183 53.9876 80.0743 53.9876L20.6544 53.9698L20.9637 41.1531Z" fill="#64B5F6"/>
<path d="M80.7261 48.9548V45.758C80.7261 42.9786 78.1775 40.7253 75.0334 40.7253H76.3239C79.4678 40.7253 82.0165 42.9786 82.0165 45.758V48.9548C82.0165 51.7343 79.4678 53.9876 76.3239 53.9876L75.0505 53.9872C78.1867 53.979 80.7261 51.7293 80.7261 48.9548Z" fill="#FEB546"/>
<path d="M66.6527 48.9548V45.758C66.6527 42.9786 64.104 40.7253 60.96 40.7253H62.2504C65.3944 40.7253 67.9432 42.9786 67.9432 45.758V48.9548C67.9432 51.7343 65.3944 53.9876 62.2504 53.9876L60.9771 53.9872C64.1131 53.979 66.6527 51.7293 66.6527 48.9548Z" fill="#FEB546"/>
<path d="M55.0791 40.7371C58.0858 40.7371 60.5231 42.8918 60.5231 45.55V49.1627C60.5231 51.8208 58.0858 53.9756 55.0791 53.9756H17.6704V53.1676H17.8249L27.335 52.3713L29.2573 45.7045C29.2573 45.7045 25.5473 42.0205 25.3054 41.9254C25.0635 41.8304 17.8249 41.5422 17.8249 41.5422L17.6704 41.5407V40.7371H55.0791Z" fill="#1A237E"/>
<path d="M20.0966 47.3326C20.0966 43.4347 17.8181 41.5452 17.8181 41.5452H54.3128C57.0743 41.5452 59.3131 43.5245 59.3131 45.966V48.7468C59.3131 51.1884 57.0743 53.1677 54.3128 53.1677H17.8181C17.8181 53.1676 20.0966 52.2406 20.0966 47.3326Z" fill="#DAEEF7"/>
<path d="M59.3132 45.9659V48.7467C59.3132 49.1124 59.2621 49.4673 59.1674 49.807C57.9366 47.1445 55.5776 44.5802 51.0869 43.7556C40.6022 41.8304 17.8181 41.5452 17.8181 41.5452H54.3128C57.0744 41.5451 59.3132 43.5244 59.3132 45.9659Z" fill="#DAEEF7"/>
<path d="M21.9532 67.6615H19.2383C19.6825 67.3264 20.2381 67.126 20.8426 67.126H88.8549C92.4134 67.126 95.2979 69.9465 95.2979 73.4255V77.4269C95.2979 80.9061 92.4134 83.7265 88.8549 83.7265L21.6033 83.7041L21.9532 67.6615Z" fill="#07085B"/>
<path d="M60.5654 67.1406C63.9682 67.1406 66.7268 69.8379 66.7268 73.165V77.6871C66.7268 81.0142 63.9683 83.7115 60.5654 83.7115H18.2258V82.6999H18.4009L29.1645 81.7034L31.34 73.3584C31.34 73.3584 27.1411 68.7471 26.8672 68.6281C26.5934 68.5091 18.4009 68.1484 18.4009 68.1484L18.2258 68.1465V67.1406H60.5654Z" fill="#55769F"/>
<path d="M20.9718 75.3961C20.9718 70.5171 18.3933 68.1519 18.3933 68.1519H59.6982C62.8238 68.1519 65.3577 70.6294 65.3577 73.6854V77.1663C65.3577 80.2222 62.8238 82.6997 59.6982 82.6997H18.3933C18.3933 82.6997 20.9718 81.5394 20.9718 75.3961Z" fill="#DAEEF7"/>
<path d="M65.3577 73.6859V77.1668C65.3577 77.6243 65.2997 78.0685 65.1927 78.4938C63.7996 75.1612 61.1295 71.9513 56.0469 70.9192C44.1803 68.5094 18.3933 68.1523 18.3933 68.1523H59.6982C62.8238 68.1524 65.3577 70.6299 65.3577 73.6859Z" fill="#DAEEF7"/>
<path d="M97.5394 54.3785H100.255C99.811 54.1127 99.2551 53.9536 98.6504 53.9536H30.6114C27.0515 53.9536 24.1658 56.1915 24.1658 58.9522V62.1272C24.1658 64.888 27.0515 67.1258 30.6114 67.1258L97.8894 67.1082L97.5394 54.3785Z" fill="#02CCC0"/>
<path d="M58.9121 53.9654C55.5078 53.9654 52.748 56.1055 52.748 58.7456V62.3338C52.748 64.9738 55.5078 67.114 58.9121 67.114H101.268V66.3114H101.093L90.3252 65.5206L88.1488 58.899C88.1488 58.899 92.3494 55.2401 92.6233 55.1458C92.8973 55.0513 101.093 54.7651 101.093 54.7651L101.268 54.7636V53.9653H58.9121V53.9654Z" fill="#06BFAD"/>
<path d="M98.5214 60.5161C98.5214 56.6448 101.101 54.7681 101.101 54.7681H59.7799C56.6529 54.7681 54.1182 56.7338 54.1182 59.1588V61.9207C54.1182 64.3455 56.653 66.3114 59.7799 66.3114H101.101C101.101 66.3115 98.5214 65.3909 98.5214 60.5161Z" fill="#DAEEF7"/>
<path d="M54.1182 59.1589V61.9208C54.1182 62.2839 54.1761 62.6363 54.2833 62.9738C55.677 60.3294 58.3479 57.7824 63.4325 56.9634C75.3038 55.0515 101.101 54.7681 101.101 54.7681H59.7799C56.653 54.7681 54.1182 56.7338 54.1182 59.1589Z" fill="#DAEEF7"/>
<path opacity="0.5" d="M36.6302 62.1272V58.9522C36.6302 56.1915 39.5159 53.9536 43.0758 53.9536H36.6147C33.055 53.9536 30.1692 56.1915 30.1692 58.9522V62.1272C30.1692 64.888 33.055 67.1259 36.6147 67.1259L42.9902 67.1241C39.47 67.0885 36.6302 64.8656 36.6302 62.1272Z" fill="#55769F"/>
<path d="M102.021 84.2346H105.426C104.869 83.9376 104.172 83.7598 103.414 83.7598H18.1155C13.6528 83.7598 10.0349 86.2603 10.0349 89.3446V92.8921C10.0349 95.9764 13.6528 98.477 18.1155 98.477L102.46 98.4572L102.021 84.2346Z" fill="#FEB546"/>
<path d="M53.5951 83.7734C49.3273 83.7734 45.8674 86.1647 45.8674 89.1144V93.1234C45.8674 96.0732 49.3272 98.4644 53.5951 98.4644H106.696V97.5676H106.476L92.9769 96.684L90.2484 89.2859C90.2484 89.2859 95.5146 85.1977 95.858 85.0923C96.2014 84.9868 106.476 84.6669 106.476 84.6669L106.696 84.6652V83.7734H53.5951Z" fill="#F4A640"/>
<path d="M103.252 91.0923C103.252 86.7669 106.486 84.6699 106.486 84.6699H54.6829C50.7629 84.6699 47.585 86.8663 47.585 89.5756V92.6616C47.585 95.371 50.7629 97.5673 54.6829 97.5673H106.486C106.486 97.5673 103.252 96.5387 103.252 91.0923Z" fill="#DAEEF7"/>
<path d="M47.585 89.5761V92.662C47.585 93.0677 47.6576 93.4615 47.792 93.8386C49.5391 90.8841 52.8878 88.0383 59.2622 87.1232C74.1449 84.9869 106.486 84.6704 106.486 84.6704H54.683C50.7629 84.6703 47.585 86.8668 47.585 89.5761Z" fill="#DAEEF7"/>
<path d="M0.661952 100H124.365C124.731 100 125.027 99.7044 125.027 99.3399V99.0361C125.027 98.6715 124.731 98.376 124.365 98.376H0.661952C0.296425 98.376 0 98.6715 0 99.0361V99.3399C0 99.7044 0.296425 100 0.661952 100Z" fill="#C4DFE8"/>
<path d="M125.785 44.8864L101.904 31.2632L98.6758 37.64L123.112 50.5338L125.785 44.8864Z" fill="#F4A640"/>
<path d="M61.2839 34.2967L51.3123 33.5881C50.8076 33.5522 50.4278 33.1152 50.4638 32.612C50.4996 32.1087 50.9378 31.7299 51.4423 31.7658L61.414 32.4742C61.9187 32.5101 62.2984 32.9473 62.2626 33.4504C62.2267 33.9536 61.7884 34.3325 61.2839 34.2967Z" fill="#FEB546"/>
<path d="M58.4123 4.3479L61.8971 12.8676L70.9098 14.8345L63.8624 20.7727L64.7717 29.9291L56.9315 25.0795L48.4809 28.7716L50.6828 19.8362L44.5505 12.9615L53.7519 12.2889L58.4123 4.3479Z" fill="#FEB546"/>
<path d="M58.4123 4.3479L57.5193 16.8492L61.8971 12.8676L58.4123 4.3479Z" fill="#F4A640"/>
<path d="M70.9097 14.8347L57.5193 16.8494L63.8623 20.7729L70.9097 14.8347Z" fill="#F4A640"/>
<path d="M57.5196 16.8496L53.7521 12.2893L44.5508 12.962L57.5196 16.8496Z" fill="#F4A640"/>
<path d="M48.481 28.7718L57.5194 16.8494L50.6828 19.8364L48.481 28.7718Z" fill="#F4A640"/>
<path d="M64.7719 29.9293L57.5195 16.8494L56.9316 25.0797L64.7719 29.9293Z" fill="#F4A640"/>
<path d="M63.8616 34.6788L48.7114 33.6018L48.3319 38.9122L63.4821 39.9892L63.8616 34.6788Z" fill="#6F747A"/>
<path d="M48.368 38.3244L48.3267 38.9043L63.4769 39.9798L63.5183 39.3999L48.368 38.3244Z" fill="#CDD6E0"/>
<path d="M48.7159 33.4455L48.6746 34.0254L63.8248 35.1009L63.8662 34.521L48.7159 33.4455Z" fill="#CDD6E0"/>
<path d="M63.727 34.9261L48.8044 33.8659C48.4267 33.839 48.1422 33.5118 48.169 33.1349C48.1959 32.7582 48.5241 32.4743 48.9019 32.5013L63.8245 33.5615C64.2022 33.5884 64.4867 33.9156 64.4599 34.2923C64.433 34.6693 64.1048 34.953 63.727 34.9261Z" fill="#F4A640"/>
<path d="M63.6758 41.2313L47.7531 40.0999C47.6513 40.0927 47.575 40.0045 47.5823 39.9033L47.6535 38.9057C47.6608 38.8043 47.7492 38.7281 47.8507 38.7353L63.7734 39.8667C63.8752 39.8739 63.9516 39.9619 63.9443 40.0633L63.8731 41.0609C63.8656 41.1621 63.7776 41.2384 63.6758 41.2313Z" fill="#6F747A"/>
<path d="M58.824 38.2439L53.063 37.8345C52.3472 37.7836 51.808 37.1636 51.8591 36.4496C51.9101 35.7357 52.5318 35.1979 53.2478 35.249L59.0086 35.6582C59.7246 35.7091 60.2636 36.3291 60.2126 37.0431C60.1616 37.7572 59.5398 38.2948 58.824 38.2439Z" fill="#FEB546"/>
<path d="M53.0938 37.4042C52.5821 37.3677 52.2047 36.8928 52.3054 36.3746C52.3898 35.9396 52.811 35.6515 53.2539 35.683L58.941 36.0872C59.3841 36.1187 59.7599 36.4634 59.7816 36.906C59.8076 37.4331 59.3665 37.8499 58.8548 37.8136L53.0938 37.4042Z" fill="#D9D9D9"/>
<path d="M57.9919 32.7862L54.7871 32.5585L54.8084 32.2623C54.8944 31.0574 55.0289 28.5539 56.9318 25.0798C58.3781 29.0525 58.0992 31.285 58.013 32.4899L57.9919 32.7862Z" fill="#FEB546"/>
</g>
<defs>
<clipPath id="clip0_1727_2813">
<rect width="132" height="100" fill="white"/>
</clipPath>
</defs>
</svg>
