<svg width="24" height="24" viewBox="0 0 24 24" fill="none" xmlns="http://www.w3.org/2000/svg">
<path d="M19.5 14.6C21 16 21.4 16.7 21.4 16.8C22 17.9 20.7 17.9 20.7 17.9H18.1C18.1 17.9 17.5 18 16.8 17.5C15.8 16.8 14.9 15.1 14.2 15.3C13.5 15.5 13.5 17.1 13.5 17.1C13.5 17.1 13.5 17.3 13.3 17.5C13.1 17.7 12.8 17.6 12.8 17.6H11.6C11.6 17.6 8.99996 17.9 6.79996 15.5C4.39996 13 2.19996 8 2.19996 8C2.19996 8 2.09996 7.7 2.19996 7.5C2.49996 7.5 2.99996 7.5 2.99996 7.5H5.79996C5.79996 7.5 6.09996 7.5 6.19996 7.7C6.29996 7.8 6.39996 8 6.39996 8C6.39996 8 6.79996 9.1 7.39996 10.1C8.59996 12.1 9.09996 12.5 9.49996 12.3C10.1 12 9.89996 9.5 9.89996 9.5C9.89996 9.5 9.89996 8.6 9.59996 8.2C9.39996 7.9 8.99996 7.8 8.79996 7.8C8.59996 7.8 8.89996 7.4 9.19996 7.2C9.69996 7 10.6 7 11.6 7C12.4 7 12.6 7.1 13 7.1C14 7.3 13.6 8.2 13.6 10.3C13.6 11 13.5 11.9 14 12.3C14.2 12.4 14.7 12.3 16 10.1C16.6 9.1 17.1 7.8 17.1 7.8C17.1 7.8 17.2 7.6 17.4 7.5C17.6 7.4 17.8 7.4 17.8 7.4H20.7C20.7 7.4 21.6 7.3 21.7 7.7C21.8 8.1 21.4 9.1 20.2 10.6C18.1 13.3 17.9 13.1 19.5 14.6Z" fill="#2196F3"/>
</svg>
