<svg width="124" height="124" viewBox="0 0 124 124" fill="none" xmlns="http://www.w3.org/2000/svg">
<g id="Group">
<path id="Vector" d="M117.999 120.023C117.999 118.357 119.343 117.006 120.999 117.006C122.656 117.006 124 118.357 124 120.023C124 121.688 122.656 123.039 120.999 123.039C119.343 123.039 117.999 121.688 117.999 120.023Z" fill="#CDE9FE"/>
<path id="Vector_2" d="M78.8617 120.023C78.8617 118.357 80.2056 117.006 81.8623 117.006C83.5191 117.006 84.863 118.357 84.863 120.023C84.863 121.688 83.5191 123.039 81.8609 123.039C80.2041 123.039 78.8617 121.688 78.8617 120.023Z" fill="#CDE9FE"/>
<path id="Vector_3" d="M39.7232 120.023C39.7232 118.357 41.0671 117.006 42.7239 117.006C44.3807 117.006 45.7246 118.357 45.7246 120.023C45.7246 121.688 44.3807 123.039 42.7239 123.039C41.0671 123.039 39.7232 121.688 39.7232 120.023Z" fill="#CDE9FE"/>
<path id="Vector_4" d="M3.58573 117.006C1.92849 117.006 0.585037 118.357 0.585037 120.023C0.585037 121.689 1.92849 123.039 3.58573 123.039C5.24297 123.039 6.58643 121.689 6.58643 120.023C6.58643 118.357 5.24297 117.006 3.58573 117.006Z" fill="#CDE9FE"/>
<path id="Vector_5" d="M117.999 81.0207C117.999 79.355 119.343 78.0039 120.999 78.0039C122.656 78.0039 124 79.355 124 81.0207C124 82.6863 122.656 84.0375 120.999 84.0375C119.343 84.0375 117.999 82.6863 117.999 81.0207Z" fill="#CDE9FE"/>
<path id="Vector_6" d="M78.8617 81.0207C78.8617 79.355 80.2056 78.0039 81.8623 78.0039C83.5191 78.0039 84.863 79.355 84.863 81.0207C84.863 82.6863 83.5191 84.0375 81.8623 84.0375C80.2041 84.0375 78.8617 82.6863 78.8617 81.0207Z" fill="#CDE9FE"/>
<path id="Vector_7" d="M39.7232 81.0207C39.7232 79.355 41.0671 78.0039 42.7239 78.0039C44.3807 78.0039 45.7246 79.355 45.7246 81.0207C45.7246 82.6863 44.3807 84.0375 42.7239 84.0375C41.0671 84.0375 39.7232 82.6863 39.7232 81.0207Z" fill="#CDE9FE"/>
<path id="Vector_8" d="M3.58573 78.0039C1.92849 78.0039 0.585037 79.3545 0.585037 81.0207C0.585037 82.6868 1.92849 84.0375 3.58573 84.0375C5.24297 84.0375 6.58643 82.6868 6.58643 81.0207C6.58643 79.3545 5.24297 78.0039 3.58573 78.0039Z" fill="#CDE9FE"/>
<path id="Vector_9" d="M117.999 42.0187C117.999 40.353 119.343 39.0019 120.999 39.0019C122.656 39.0019 124 40.3516 124 42.0187C124 43.6844 122.656 45.0355 120.999 45.0355C119.343 45.0355 117.999 43.6844 117.999 42.0187Z" fill="#CDE9FE"/>
<path id="Vector_10" d="M78.8617 42.0187C78.8617 40.353 80.2056 39.0019 81.8623 39.0019C83.5191 39.0019 84.863 40.353 84.863 42.0187C84.863 43.6844 83.5191 45.0355 81.8623 45.0355C80.2041 45.0355 78.8617 43.6844 78.8617 42.0187Z" fill="#CDE9FE"/>
<path id="Vector_11" d="M39.7232 42.0187C39.7232 40.353 41.0671 39.0019 42.7239 39.0019C44.3807 39.0019 45.7246 40.353 45.7246 42.0187C45.7246 43.6844 44.3807 45.0355 42.7239 45.0355C41.0671 45.0355 39.7232 43.6844 39.7232 42.0187Z" fill="#CDE9FE"/>
<path id="Vector_12" d="M0.585037 42.0187C0.585037 40.353 1.92895 39.0019 3.58573 39.0019C5.24251 39.0019 6.58643 40.353 6.58643 42.0187C6.58643 43.6844 5.24251 45.0355 3.58573 45.0355C1.92895 45.0355 0.585037 43.6844 0.585037 42.0187Z" fill="#CDE9FE"/>
<path id="Vector_13" d="M117.999 3.01676C117.999 1.35108 119.343 -5.14984e-05 120.999 -5.14984e-05C122.656 -5.14984e-05 124 1.35108 124 3.01676C124 4.68244 122.656 6.03357 120.999 6.03357C119.343 6.03357 117.999 4.68244 117.999 3.01676Z" fill="#CDE9FE"/>
<path id="Vector_14" d="M78.8617 3.01676C78.8617 1.35108 80.2056 -5.14984e-05 81.8623 -5.14984e-05C83.5191 -5.14984e-05 84.863 1.35108 84.863 3.01676C84.863 4.68244 83.5191 6.03357 81.8623 6.03357C80.2041 6.03357 78.8617 4.68244 78.8617 3.01676Z" fill="#CDE9FE"/>
<path id="Vector_15" d="M39.7232 3.01676C39.7232 1.35108 41.0671 -5.14984e-05 42.7239 -5.14984e-05C44.3807 -5.14984e-05 45.7246 1.35108 45.7246 3.01676C45.7246 4.68244 44.3807 6.03357 42.7239 6.03357C41.0671 6.03357 39.7232 4.68244 39.7232 3.01676Z" fill="#CDE9FE"/>
<path id="Vector_16" d="M3.58573 -5.14984e-05C1.92849 -5.14984e-05 0.585037 1.35062 0.585037 3.01676C0.585037 4.6829 1.92849 6.03357 3.58573 6.03357C5.24297 6.03357 6.58643 4.6829 6.58643 3.01676C6.58643 1.35062 5.24297 -5.14984e-05 3.58573 -5.14984e-05Z" fill="#CDE9FE"/>
</g>
</svg>
