<svg width="120" height="120" viewBox="0 0 120 120" fill="none" xmlns="http://www.w3.org/2000/svg">
<g id="Group">
<g id="Group_2">
<path id="Vector" d="M5.83532 2.94222C5.83532 4.56672 4.52859 5.88445 2.91766 5.88445C1.30672 5.88445 0 4.56672 0 2.94222C0 1.31773 1.30672 0 2.91766 0C4.52859 0 5.83532 1.31773 5.83532 2.94222Z" fill="#CDE9FE"/>
<path id="Vector_2" d="M43.8893 2.94222C43.8893 4.56672 42.5825 5.88445 40.9716 5.88445C39.3607 5.88445 38.054 4.56672 38.054 2.94222C38.054 1.31773 39.3607 0 40.973 0C42.5839 0 43.8893 1.31773 43.8893 2.94222Z" fill="#CDE9FE"/>
<path id="Vector_3" d="M81.9447 2.94222C81.9447 4.56672 80.638 5.88445 79.027 5.88445C77.4161 5.88445 76.1094 4.56672 76.1094 2.94222C76.1094 1.31773 77.4161 0 79.027 0C80.638 0 81.9447 1.31773 81.9447 2.94222Z" fill="#CDE9FE"/>
<path id="Vector_4" d="M117.082 5.88445C118.694 5.88445 120 4.56717 120 2.94222C120 1.31728 118.694 0 117.082 0C115.471 0 114.165 1.31728 114.165 2.94222C114.165 4.56717 115.471 5.88445 117.082 5.88445Z" fill="#CDE9FE"/>
<path id="Vector_5" d="M5.83532 40.9806C5.83532 42.6051 4.52859 43.9228 2.91766 43.9228C1.30672 43.9228 0 42.6051 0 40.9806C0 39.3561 1.30672 38.0383 2.91766 38.0383C4.52859 38.0383 5.83532 39.3561 5.83532 40.9806Z" fill="#CDE9FE"/>
<path id="Vector_6" d="M43.8893 40.9806C43.8893 42.6051 42.5825 43.9228 40.9716 43.9228C39.3607 43.9228 38.054 42.6051 38.054 40.9806C38.054 39.3561 39.3607 38.0383 40.9716 38.0383C42.5839 38.0383 43.8893 39.3561 43.8893 40.9806Z" fill="#CDE9FE"/>
<path id="Vector_7" d="M81.9447 40.9806C81.9447 42.6051 80.638 43.9228 79.027 43.9228C77.4161 43.9228 76.1094 42.6051 76.1094 40.9806C76.1094 39.3561 77.4161 38.0383 79.027 38.0383C80.638 38.0383 81.9447 39.3561 81.9447 40.9806Z" fill="#CDE9FE"/>
<path id="Vector_8" d="M117.082 43.9228C118.694 43.9228 120 42.6055 120 40.9806C120 39.3556 118.694 38.0383 117.082 38.0383C115.471 38.0383 114.165 39.3556 114.165 40.9806C114.165 42.6055 115.471 43.9228 117.082 43.9228Z" fill="#CDE9FE"/>
<path id="Vector_9" d="M5.83532 79.0194C5.83532 80.6439 4.52859 81.9616 2.91766 81.9616C1.30672 81.9616 0 80.6453 0 79.0194C0 77.3949 1.30672 76.0771 2.91766 76.0771C4.52859 76.0771 5.83532 77.3949 5.83532 79.0194Z" fill="#CDE9FE"/>
<path id="Vector_10" d="M43.8893 79.0194C43.8893 80.6439 42.5825 81.9616 40.9716 81.9616C39.3607 81.9616 38.054 80.6439 38.054 79.0194C38.054 77.3949 39.3607 76.0771 40.9716 76.0771C42.5839 76.0771 43.8893 77.3949 43.8893 79.0194Z" fill="#CDE9FE"/>
<path id="Vector_11" d="M81.9447 79.0194C81.9447 80.6439 80.638 81.9616 79.027 81.9616C77.4161 81.9616 76.1094 80.6439 76.1094 79.0194C76.1094 77.3949 77.4161 76.0771 79.027 76.0771C80.638 76.0771 81.9447 77.3949 81.9447 79.0194Z" fill="#CDE9FE"/>
<path id="Vector_12" d="M120 79.0194C120 80.6439 118.693 81.9616 117.082 81.9616C115.471 81.9616 114.165 80.6439 114.165 79.0194C114.165 77.3949 115.471 76.0771 117.082 76.0771C118.693 76.0771 120 77.3949 120 79.0194Z" fill="#CDE9FE"/>
<path id="Vector_13" d="M5.83532 117.058C5.83532 118.682 4.52859 120 2.91766 120C1.30672 120 0 118.682 0 117.058C0 115.433 1.30672 114.115 2.91766 114.115C4.52859 114.115 5.83532 115.433 5.83532 117.058Z" fill="#CDE9FE"/>
<path id="Vector_14" d="M43.8893 117.058C43.8893 118.682 42.5825 120 40.9716 120C39.3607 120 38.054 118.682 38.054 117.058C38.054 115.433 39.3607 114.115 40.9716 114.115C42.5839 114.115 43.8893 115.433 43.8893 117.058Z" fill="#CDE9FE"/>
<path id="Vector_15" d="M81.9447 117.058C81.9447 118.682 80.638 120 79.027 120C77.4161 120 76.1094 118.682 76.1094 117.058C76.1094 115.433 77.4161 114.115 79.027 114.115C80.638 114.115 81.9447 115.433 81.9447 117.058Z" fill="#CDE9FE"/>
<path id="Vector_16" d="M117.082 120C118.694 120 120 118.683 120 117.058C120 115.433 118.694 114.115 117.082 114.115C115.471 114.115 114.165 115.433 114.165 117.058C114.165 118.683 115.471 120 117.082 120Z" fill="#CDE9FE"/>
</g>
</g>
</svg>
