<svg xmlns="http://www.w3.org/2000/svg" xmlns:xlink="http://www.w3.org/1999/xlink" width="0" height="0">

  <symbol id="vk" width="24" height="24" viewBox="0 0 24 24" fill="none">
    <path d="M19.5 14.6C21 16 21.4 16.7 21.4 16.8C22 17.9 20.7 17.9 20.7 17.9H18.1C18.1 17.9 17.5 18 16.8 17.5C15.8 16.8 14.9 15.1 14.2 15.3C13.5 15.5 13.5 17.1 13.5 17.1C13.5 17.1 13.5 17.3 13.3 17.5C13.1 17.7 12.8 17.6 12.8 17.6H11.6C11.6 17.6 8.99996 17.9 6.79996 15.5C4.39996 13 2.19996 8 2.19996 8C2.19996 8 2.09996 7.7 2.19996 7.5C2.49996 7.5 2.99996 7.5 2.99996 7.5H5.79996C5.79996 7.5 6.09996 7.5 6.19996 7.7C6.29996 7.8 6.39996 8 6.39996 8C6.39996 8 6.79996 9.1 7.39996 10.1C8.59996 12.1 9.09996 12.5 9.49996 12.3C10.1 12 9.89996 9.5 9.89996 9.5C9.89996 9.5 9.89996 8.6 9.59996 8.2C9.39996 7.9 8.99996 7.8 8.79996 7.8C8.59996 7.8 8.89996 7.4 9.19996 7.2C9.69996 7 10.6 7 11.6 7C12.4 7 12.6 7.1 13 7.1C14 7.3 13.6 8.2 13.6 10.3C13.6 11 13.5 11.9 14 12.3C14.2 12.4 14.7 12.3 16 10.1C16.6 9.1 17.1 7.8 17.1 7.8C17.1 7.8 17.2 7.6 17.4 7.5C17.6 7.4 17.8 7.4 17.8 7.4H20.7C20.7 7.4 21.6 7.3 21.7 7.7C21.8 8.1 21.4 9.1 20.2 10.6C18.1 13.3 17.9 13.1 19.5 14.6Z" fill="#2196F3"/>
  </symbol>

  <symbol id="facebook" width="24" height="24" viewBox="0 0 24 24" fill="none">
    <path d="M17 2V6H15C14.3 6 14 6.8 14 7.5V10H17V14H14V22H10V14H7V10H10V6C10 3.8 11.8 2 14 2H17Z" fill="#2196F3"/>
  </symbol>

  <symbol id="instagram" width="24" height="24" viewBox="0 0 24 24" fill="none">
    <g>
      <path d="M7.8 2H16.2C19.4 2 22 4.6 22 7.8V16.2C22 19.4 19.4 22 16.2 22H7.8C4.6 22 2 19.4 2 16.2V7.8C2 4.6 4.6 2 7.8 2ZM7.6 4C5.6 4 4 5.6 4 7.6V16.4C4 18.4 5.6 20 7.6 20H16.4C18.4 20 20 18.4 20 16.4V7.6C20 5.6 18.4 4 16.4 4H7.6ZM17.3 5.5C18 5.5 18.6 6.1 18.6 6.8C18.6 7.5 17.9 8 17.3 8C16.7 8 16 7.4 16 6.8C16 6.2 16.6 5.5 17.3 5.5ZM12 7C14.8 7 17 9.2 17 12C17 14.8 14.8 17 12 17C9.2 17 7 14.8 7 12C7 9.2 9.2 7 12 7ZM12 9C10.3 9 9 10.3 9 12C9 13.7 10.3 15 12 15C13.7 15 15 13.7 15 12C15 10.3 13.7 9 12 9Z" fill="#2196F3"/>
    </g>
  </symbol>

  <symbol id="logo" width="174" height="18" viewBox="0 0 174 18" fill="none">
    <path d="M97 2V6C97 7.65 98.35 9 100 9H104V2H106V13.575L117.575 2H119H120V16H118V4.425L106.425 16H105H104V11H100C97.25 11 95 8.75 95 6V2H97ZM147.25 9C147.25 12.85 150.4 16 154.25 16C156.125 16 157.875 15.275 159.2 13.95L157.775 12.525C156.825 13.475 155.575 14 154.25 14C151.5 14 149.25 11.75 149.25 9C149.25 6.25 151.5 4 154.25 4C155.575 4 156.85 4.525 157.775 5.475L159.2 4.05C157.875 2.725 156.125 2 154.25 2C150.4 2 147.25 5.15 147.25 9ZM170 2H172V16H170V12H167.425L163.425 16H160.6L164.75 11.825C162.6 11.275 161 9.325 161 7C161 4.25 163.25 2 166 2H170ZM170 4H166C164.35 4 163 5.35 163 7C163 8.65 164.35 10 166 10H170V4ZM77.575 16H80.4L94.4 2H91.575L86 7.575L80.425 2H77.6L84.6 9L77.575 16ZM37 9C37 12.85 33.85 16 30 16C26.15 16 23 12.85 23 9C23 5.15 26.15 2 30 2C33.85 2 37 5.15 37 9ZM35 9C35 6.25 32.75 4 30 4C27.25 4 25 6.25 25 9C25 11.75 27.25 14 30 14C32.75 14 35 11.75 35 9ZM58.5 2H54H52H45C41.15 2 38 5.15 38 9C38 12.85 41.15 16 45 16C46.875 16 48.625 15.275 49.95 13.95L48.525 12.525C47.575 13.475 46.325 14 45 14C42.25 14 40 11.75 40 9C40 6.25 42.25 4 45 4H52V16H54V4H58.5V2ZM137 2V6H141C143.75 6 146 8.25 146 11C146 13.75 143.75 16 141 16H137H135V2H137ZM137 8V14H141C142.65 14 144 12.65 144 11C144 9.35 142.65 8 141 8H137ZM72.5 9C72.5 12.85 69.35 16 65.5 16C61.65 16 58.5 12.85 58.5 9C58.5 5.15 61.65 2 65.5 2C69.35 2 72.5 5.15 72.5 9ZM70.5 9C70.5 6.25 68.25 4 65.5 4C62.75 4 60.5 6.25 60.5 9C60.5 11.75 62.75 14 65.5 14C68.25 14 70.5 11.75 70.5 9ZM22 7C22 9.75 19.75 12 17 12H13V16H11V4H4V16H2V2H4H11H13H17C19.75 2 22 4.25 22 7ZM20 7C20 5.35 18.65 4 17 4H13V10H17C18.65 10 20 8.65 20 7ZM126.5 2H122V4H126.5V16H128.5V4H133V2H128.5H126.5Z" fill="black"/>
  </symbol>

  <symbol id="youtube" width="24" height="24" viewBox="0 0 24 24" fill="none">
    <g>
      <path id="Vector" d="M20.7131 10.9131C20.7131 10.5252 20.6485 10.0727 20.6485 9.55556C20.5839 9.03838 20.5192 8.52121 20.4545 8.06869C20.3253 7.55151 20.1313 7.16364 19.7434 6.84041C19.4202 6.51717 18.9677 6.32323 18.5152 6.25858C17.0283 6.06464 14.8303 6 11.8566 6C8.88284 6 6.6202 6.06464 5.19798 6.25858C4.74545 6.32323 4.29293 6.51717 3.9697 6.84041C3.64646 7.16364 3.38787 7.55151 3.25858 8.06869C3.12929 8.52121 3.06465 8.97374 3.06465 9.55556C3 10.0727 3 10.5252 3 10.9131C3 11.301 3 11.7535 3 12.4C3 13.0465 3 13.5636 3 13.8869C3 14.2747 3.06465 14.7273 3.06465 15.2444C3.1293 15.7616 3.19394 16.2788 3.25858 16.7313C3.38787 17.2485 3.58182 17.6364 3.9697 17.9596C4.29293 18.2828 4.74545 18.4768 5.19798 18.5414C6.68484 18.7354 8.88284 18.8 11.8566 18.8C14.8303 18.8 17.0929 18.7354 18.5152 18.5414C18.9677 18.4768 19.4202 18.2828 19.7434 17.9596C20.0667 17.6364 20.3253 17.2485 20.4545 16.7313C20.5838 16.2788 20.6485 15.8263 20.6485 15.2444C20.7131 14.7273 20.7131 14.2747 20.7131 13.8869C20.7131 13.499 20.7131 13.0465 20.7131 12.4C20.7131 11.7535 20.7131 11.2364 20.7131 10.9131ZM15.2828 12.9172L10.1758 16.0848C10.1111 16.1495 9.98182 16.2141 9.85253 16.2141C9.72324 16.2141 9.65859 16.2141 9.5293 16.1495C9.33536 16.0202 9.20607 15.8263 9.20607 15.5677V9.16767C9.20607 8.90909 9.33536 8.71515 9.5293 8.58586C9.72324 8.45657 9.98182 8.45657 10.1758 8.58586L15.2828 11.7535C15.4768 11.8828 15.6061 12.0768 15.6061 12.2707C15.6061 12.4646 15.4768 12.7879 15.2828 12.9172Z" fill="#2196F3"/>
    </g>
  </symbol>

  <symbol id="divider" fill="none" xmlns="http://www.w3.org/2000/svg" viewBox="0 0 1300 1">
    <line x1="4.37114e-08" y1="0.5" x2="1300" y2="0.500114" stroke="#37474F"></line>
  </symbol>

</svg>

