<svg xmlns="http://www.w3.org/2000/svg" xmlns:xlink="http://www.w3.org/1999/xlink" width="0" height="0">

  <symbol id="vk" width="24" height="24" viewBox="0 0 24 24" fill="none">
    <path d="M19.5 14.6C21 16 21.4 16.7 21.4 16.8C22 17.9 20.7 17.9 20.7 17.9H18.1C18.1 17.9 17.5 18 16.8 17.5C15.8 16.8 14.9 15.1 14.2 15.3C13.5 15.5 13.5 17.1 13.5 17.1C13.5 17.1 13.5 17.3 13.3 17.5C13.1 17.7 12.8 17.6 12.8 17.6H11.6C11.6 17.6 8.99996 17.9 6.79996 15.5C4.39996 13 2.19996 8 2.19996 8C2.19996 8 2.09996 7.7 2.19996 7.5C2.49996 7.5 2.99996 7.5 2.99996 7.5H5.79996C5.79996 7.5 6.09996 7.5 6.19996 7.7C6.29996 7.8 6.39996 8 6.39996 8C6.39996 8 6.79996 9.1 7.39996 10.1C8.59996 12.1 9.09996 12.5 9.49996 12.3C10.1 12 9.89996 9.5 9.89996 9.5C9.89996 9.5 9.89996 8.6 9.59996 8.2C9.39996 7.9 8.99996 7.8 8.79996 7.8C8.59996 7.8 8.89996 7.4 9.19996 7.2C9.69996 7 10.6 7 11.6 7C12.4 7 12.6 7.1 13 7.1C14 7.3 13.6 8.2 13.6 10.3C13.6 11 13.5 11.9 14 12.3C14.2 12.4 14.7 12.3 16 10.1C16.6 9.1 17.1 7.8 17.1 7.8C17.1 7.8 17.2 7.6 17.4 7.5C17.6 7.4 17.8 7.4 17.8 7.4H20.7C20.7 7.4 21.6 7.3 21.7 7.7C21.8 8.1 21.4 9.1 20.2 10.6C18.1 13.3 17.9 13.1 19.5 14.6Z" fill="#2196F3"/>
  </symbol>

  <symbol id="facebook" width="24" height="24" viewBox="0 0 24 24" fill="none">
    <path d="M17 2V6H15C14.3 6 14 6.8 14 7.5V10H17V14H14V22H10V14H7V10H10V6C10 3.8 11.8 2 14 2H17Z" fill="#2196F3"/>
  </symbol>

  <symbol id="instagram" width="24" height="24" viewBox="0 0 24 24" fill="none">
    <g>
      <path id="Vector" d="M7.8 2H16.2C19.4 2 22 4.6 22 7.8V16.2C22 19.4 19.4 22 16.2 22H7.8C4.6 22 2 19.4 2 16.2V7.8C2 4.6 4.6 2 7.8 2ZM7.6 4C5.6 4 4 5.6 4 7.6V16.4C4 18.4 5.6 20 7.6 20H16.4C18.4 20 20 18.4 20 16.4V7.6C20 5.6 18.4 4 16.4 4H7.6ZM17.3 5.5C18 5.5 18.6 6.1 18.6 6.8C18.6 7.5 17.9 8 17.3 8C16.7 8 16 7.4 16 6.8C16 6.2 16.6 5.5 17.3 5.5ZM12 7C14.8 7 17 9.2 17 12C17 14.8 14.8 17 12 17C9.2 17 7 14.8 7 12C7 9.2 9.2 7 12 7ZM12 9C10.3 9 9 10.3 9 12C9 13.7 10.3 15 12 15C13.7 15 15 13.7 15 12C15 10.3 13.7 9 12 9Z" fill="#2196F3"/>
    </g>
  </symbol>

  <symbol id="logo" width="174" height="18" viewBox="0 0 174 18" fill="none">
    <path d="M97 2V6C97 7.65 98.35 9 100 9H104V2H106V13.575L117.575 2H119H120V16H118V4.425L106.425 16H105H104V11H100C97.25 11 95 8.75 95 6V2H97ZM147.25 9C147.25 12.85 150.4 16 154.25 16C156.125 16 157.875 15.275 159.2 13.95L157.775 12.525C156.825 13.475 155.575 14 154.25 14C151.5 14 149.25 11.75 149.25 9C149.25 6.25 151.5 4 154.25 4C155.575 4 156.85 4.525 157.775 5.475L159.2 4.05C157.875 2.725 156.125 2 154.25 2C150.4 2 147.25 5.15 147.25 9ZM170 2H172V16H170V12H167.425L163.425 16H160.6L164.75 11.825C162.6 11.275 161 9.325 161 7C161 4.25 163.25 2 166 2H170ZM170 4H166C164.35 4 163 5.35 163 7C163 8.65 164.35 10 166 10H170V4ZM77.575 16H80.4L94.4 2H91.575L86 7.575L80.425 2H77.6L84.6 9L77.575 16ZM37 9C37 12.85 33.85 16 30 16C26.15 16 23 12.85 23 9C23 5.15 26.15 2 30 2C33.85 2 37 5.15 37 9ZM35 9C35 6.25 32.75 4 30 4C27.25 4 25 6.25 25 9C25 11.75 27.25 14 30 14C32.75 14 35 11.75 35 9ZM58.5 2H54H52H45C41.15 2 38 5.15 38 9C38 12.85 41.15 16 45 16C46.875 16 48.625 15.275 49.95 13.95L48.525 12.525C47.575 13.475 46.325 14 45 14C42.25 14 40 11.75 40 9C40 6.25 42.25 4 45 4H52V16H54V4H58.5V2ZM137 2V6H141C143.75 6 146 8.25 146 11C146 13.75 143.75 16 141 16H137H135V2H137ZM137 8V14H141C142.65 14 144 12.65 144 11C144 9.35 142.65 8 141 8H137ZM72.5 9C72.5 12.85 69.35 16 65.5 16C61.65 16 58.5 12.85 58.5 9C58.5 5.15 61.65 2 65.5 2C69.35 2 72.5 5.15 72.5 9ZM70.5 9C70.5 6.25 68.25 4 65.5 4C62.75 4 60.5 6.25 60.5 9C60.5 11.75 62.75 14 65.5 14C68.25 14 70.5 11.75 70.5 9ZM22 7C22 9.75 19.75 12 17 12H13V16H11V4H4V16H2V2H4H11H13H17C19.75 2 22 4.25 22 7ZM20 7C20 5.35 18.65 4 17 4H13V10H17C18.65 10 20 8.65 20 7ZM126.5 2H122V4H126.5V16H128.5V4H133V2H128.5H126.5Z" fill="black"/>
  </symbol>

  <symbol id="youtube" width="24" height="24" viewBox="0 0 24 24" fill="none">
    <g>
      <path id="Vector" d="M20.7131 10.9131C20.7131 10.5252 20.6485 10.0727 20.6485 9.55556C20.5839 9.03838 20.5192 8.52121 20.4545 8.06869C20.3253 7.55151 20.1313 7.16364 19.7434 6.84041C19.4202 6.51717 18.9677 6.32323 18.5152 6.25858C17.0283 6.06464 14.8303 6 11.8566 6C8.88284 6 6.6202 6.06464 5.19798 6.25858C4.74545 6.32323 4.29293 6.51717 3.9697 6.84041C3.64646 7.16364 3.38787 7.55151 3.25858 8.06869C3.12929 8.52121 3.06465 8.97374 3.06465 9.55556C3 10.0727 3 10.5252 3 10.9131C3 11.301 3 11.7535 3 12.4C3 13.0465 3 13.5636 3 13.8869C3 14.2747 3.06465 14.7273 3.06465 15.2444C3.1293 15.7616 3.19394 16.2788 3.25858 16.7313C3.38787 17.2485 3.58182 17.6364 3.9697 17.9596C4.29293 18.2828 4.74545 18.4768 5.19798 18.5414C6.68484 18.7354 8.88284 18.8 11.8566 18.8C14.8303 18.8 17.0929 18.7354 18.5152 18.5414C18.9677 18.4768 19.4202 18.2828 19.7434 17.9596C20.0667 17.6364 20.3253 17.2485 20.4545 16.7313C20.5838 16.2788 20.6485 15.8263 20.6485 15.2444C20.7131 14.7273 20.7131 14.2747 20.7131 13.8869C20.7131 13.499 20.7131 13.0465 20.7131 12.4C20.7131 11.7535 20.7131 11.2364 20.7131 10.9131ZM15.2828 12.9172L10.1758 16.0848C10.1111 16.1495 9.98182 16.2141 9.85253 16.2141C9.72324 16.2141 9.65859 16.2141 9.5293 16.1495C9.33536 16.0202 9.20607 15.8263 9.20607 15.5677V9.16767C9.20607 8.90909 9.33536 8.71515 9.5293 8.58586C9.72324 8.45657 9.98182 8.45657 10.1758 8.58586L15.2828 11.7535C15.4768 11.8828 15.6061 12.0768 15.6061 12.2707C15.6061 12.4646 15.4768 12.7879 15.2828 12.9172Z" fill="#2196F3"/>
    </g>
  </symbol>

  <symbol id="circle-facebook" width="48" height="48" viewBox="0 0 48 48" fill="none">
    <circle cx="24" cy="24" r="20" fill="#263238"/>
    <circle cx="24" cy="24" r="23.5" stroke="#FFA726"/>
    <path d="M33 17.8186C33 16.3212 31.6788 15 30.1813 15H18.8186C17.3212 15 16 16.3212 16 17.8186V29.1813C16 30.6787 17.3212 32 18.8186 32H24.544V25.5699H22.4301V22.7513H24.544V21.6062C24.544 19.6684 25.9534 17.9948 27.715 17.9948H30.0052V20.8135H27.715C27.4508 20.8135 27.1865 21.0777 27.1865 21.6062V22.7513H30.0052V25.5699H27.1865V32H30.1813C31.6788 32 33 30.6787 33 29.1813V17.8186Z" fill="white"/>
  </symbol>

  <symbol id="circle-instagramm" width="48" height="48" viewBox="0 0 48 48" fill="none">
    <circle cx="24" cy="24" r="20" fill="#263238"/>
    <circle cx="24" cy="24" r="23.5" stroke="#FFA726"/>
    <path d="M30.5808 16H18.4192C17.0462 16 16 17.0462 16 18.4192V30.5808C16 31.9538 17.0462 33 18.4192 33H30.5808C31.9538 33 33 31.9538 33 30.5808V18.4192C33 17.0462 31.9538 16 30.5808 16ZM24.5 29.6C27.3115 29.6 29.6 27.3769 29.6 24.6962C29.6 24.2385 29.5346 23.7154 29.4038 23.3231H30.8423V30.2538C30.8423 30.5808 30.5808 30.9077 30.1885 30.9077H18.8115C18.4846 30.9077 18.1577 30.6462 18.1577 30.2538V23.2577H19.6615C19.5308 23.7154 19.4654 24.1731 19.4654 24.6308C19.4 27.3769 21.6885 29.6 24.5 29.6ZM24.5 27.6385C22.6692 27.6385 21.2308 26.2 21.2308 24.4346C21.2308 22.6692 22.6692 21.2308 24.5 21.2308C26.3308 21.2308 27.7692 22.6692 27.7692 24.4346C27.7692 26.2654 26.3308 27.6385 24.5 27.6385ZM30.7769 20.6423C30.7769 21.0346 30.45 21.3615 30.0577 21.3615H28.2269C27.8346 21.3615 27.5077 21.0346 27.5077 20.6423V18.8769C27.5077 18.4846 27.8346 18.1577 28.2269 18.1577H30.0577C30.45 18.1577 30.7769 18.4846 30.7769 18.8769V20.6423Z" fill="white"/>
  </symbol>

  <symbol id="circle-vk" width="48" height="48" viewBox="0 0 48 48" fill="none">
    <circle cx="24" cy="24" r="20" fill="#263238"/>
    <circle cx="24" cy="24" r="23.5" stroke="#FFA726"/>
    <path d="M33.8063 29.1153C33.8063 29.0322 33.7232 29.0322 33.7232 28.9492C33.3911 28.285 32.6439 27.4548 31.6477 26.5416C31.1495 26.1264 30.9004 25.7943 30.7344 25.6283C30.4853 25.2962 30.4853 25.0471 30.5684 24.715C30.6514 24.466 30.9835 24.0509 31.5646 23.3036C31.8967 22.8885 32.0628 22.6395 32.3118 22.3904C33.5572 20.7299 34.1383 19.6506 33.9723 19.1525L33.8893 19.0695C33.8063 18.9865 33.7232 18.9034 33.5572 18.9034C33.3911 18.8204 33.1421 18.8204 32.893 18.9034H29.7381C29.6551 18.9034 29.6551 18.9034 29.4891 18.9034C29.406 18.9034 29.323 18.9034 29.323 18.9034H29.24H29.157L29.0739 18.9865C28.9909 19.0695 28.9909 19.0695 28.9909 19.1525C28.6588 20.0658 28.2437 20.813 27.8286 21.6432C27.5795 22.0583 27.3305 22.4734 27.0814 22.8055C26.8323 23.1376 26.6663 23.3867 26.5002 23.5527C26.3342 23.7188 26.1681 23.8018 26.0851 23.9678C26.0021 24.0509 25.8361 24.1339 25.8361 24.0509C25.753 24.0509 25.67 24.0509 25.67 23.9678C25.587 23.8848 25.504 23.8018 25.4209 23.7188C25.3379 23.6357 25.3379 23.4697 25.2549 23.3036C25.2549 23.1376 25.2549 22.9716 25.2549 22.8885C25.2549 22.8055 25.2549 22.5564 25.2549 22.3904C25.2549 22.1413 25.2549 21.9753 25.2549 21.8923C25.2549 21.6432 25.2549 21.3111 25.2549 20.979C25.2549 20.6469 25.2549 20.3978 25.2549 20.2318C25.2549 20.0658 25.2549 19.8167 25.2549 19.6506C25.2549 19.4016 25.2549 19.2355 25.2549 19.1525C25.2549 19.0695 25.1719 18.9034 25.1719 18.8204C25.0889 18.7374 25.0058 18.6544 24.9228 18.5713C24.8398 18.4883 24.6737 18.4883 24.5907 18.4053C24.1756 18.3223 23.6775 18.2393 23.0963 18.2393C21.7679 18.2393 20.8547 18.3223 20.5226 18.4883C20.3565 18.5714 20.1905 18.6544 20.1075 18.8204C19.9414 18.9865 19.9414 19.0695 20.0245 19.0695C20.4396 19.1525 20.7717 19.3185 20.9377 19.5676L21.0207 19.7337C21.1038 19.8167 21.1037 19.9827 21.1868 20.2318C21.2698 20.4809 21.2698 20.7299 21.2698 21.062C21.2698 21.5602 21.2698 22.0583 21.2698 22.3904C21.2698 22.8055 21.1868 23.0546 21.1868 23.3036C21.1868 23.5527 21.1038 23.7188 21.0207 23.8018C20.9377 23.9678 20.9377 24.0509 20.8547 24.0509C20.8547 24.0509 20.8547 24.1339 20.7717 24.1339C20.6886 24.1339 20.6056 24.2169 20.4396 24.2169C20.3565 24.2169 20.1905 24.1339 20.1075 24.0509C19.9414 23.9678 19.7754 23.8018 19.6924 23.6357C19.5263 23.4697 19.3603 23.2206 19.1942 22.8885C19.0282 22.5564 18.7791 22.2244 18.6131 21.7262L18.447 21.3941C18.364 21.2281 18.198 20.896 18.0319 20.4809C17.8659 20.0658 17.6998 19.7337 17.5338 19.3186C17.4507 19.1525 17.3677 19.0695 17.2847 18.9865H17.2017C17.2017 18.9865 17.1186 18.9034 17.0356 18.9034C16.9526 18.9034 16.8696 18.8204 16.7866 18.8204H13.7977C13.4656 18.8204 13.2996 18.9034 13.2166 18.9865L13.1335 19.0695C13.1335 19.0695 13.1335 19.1525 13.1335 19.2355C13.1335 19.3186 13.1335 19.4016 13.2166 19.5676C13.6317 20.5639 14.1298 21.5602 14.628 22.5564C15.1261 23.4697 15.6242 24.2999 15.9563 24.8811C16.3714 25.4623 16.7035 26.0434 17.1186 26.5416C17.5338 27.0397 17.7828 27.3718 17.8658 27.5378C18.0319 27.7039 18.1149 27.7869 18.1979 27.8699L18.447 28.119C18.6131 28.285 18.8621 28.5341 19.1942 28.7832C19.5263 29.0322 19.9414 29.2813 20.3565 29.5304C20.7717 29.7794 21.2698 29.9455 21.7679 30.1115C22.3491 30.2776 22.8472 30.3606 23.3454 30.2776H24.5907C24.8398 30.2776 25.0058 30.1946 25.1719 30.0285L25.2549 29.9455C25.2549 29.8625 25.3379 29.8625 25.3379 29.7794C25.3379 29.6964 25.3379 29.6134 25.3379 29.4474C25.3379 29.1153 25.3379 28.8662 25.4209 28.6171C25.504 28.3681 25.504 28.202 25.587 28.036C25.67 27.8699 25.753 27.7869 25.8361 27.7039C25.9191 27.6208 26.0021 27.5378 26.0021 27.5378H26.0851C26.2512 27.4548 26.5002 27.5378 26.6663 27.7039C26.9154 27.8699 27.1644 28.119 27.3305 28.3681C27.4965 28.6171 27.7456 28.8662 28.0777 29.1983C28.4098 29.5304 28.6588 29.7794 28.8249 29.8625L29.0739 30.0285C29.24 30.1115 29.406 30.1946 29.6551 30.2776C29.9042 30.3606 30.0702 30.3606 30.2363 30.3606L33.0591 30.2776C33.3081 30.2776 33.5572 30.1946 33.7232 30.1115C33.8893 30.0285 33.9723 29.9455 33.9723 29.7794C33.9723 29.6964 33.9723 29.5304 33.9723 29.4474C33.8062 29.2813 33.8063 29.1983 33.8063 29.1153Z" fill="white"/>
  </symbol>

  <symbol id="circle-youtube" width="48" height="48" viewBox="0 0 48 48" fill="none">
    <circle cx="24" cy="24" r="20" fill="#263238"/>
    <circle cx="24" cy="24" r="23.5" stroke="#FFA726"/>
    <path d="M32.7131 22.9131C32.7131 22.5252 32.6485 22.0727 32.6485 21.5556C32.5839 21.0384 32.5192 20.5212 32.4545 20.0687C32.3253 19.5515 32.1313 19.1636 31.7434 18.8404C31.4202 18.5172 30.9677 18.3232 30.5152 18.2586C29.0283 18.0646 26.8303 18 23.8566 18C20.8828 18 18.6202 18.0646 17.198 18.2586C16.7455 18.3232 16.2929 18.5172 15.9697 18.8404C15.6465 19.1636 15.3879 19.5515 15.2586 20.0687C15.1293 20.5212 15.0647 20.9737 15.0647 21.5556C15 22.0727 15 22.5252 15 22.9131C15 23.301 15 23.7535 15 24.4C15 25.0465 15 25.5636 15 25.8869C15 26.2747 15.0647 26.7273 15.0647 27.2444C15.1293 27.7616 15.1939 28.2788 15.2586 28.7313C15.3879 29.2485 15.5818 29.6364 15.9697 29.9596C16.2929 30.2828 16.7455 30.4768 17.198 30.5414C18.6848 30.7354 20.8828 30.8 23.8566 30.8C26.8303 30.8 29.0929 30.7354 30.5152 30.5414C30.9677 30.4768 31.4202 30.2828 31.7434 29.9596C32.0667 29.6364 32.3253 29.2485 32.4545 28.7313C32.5838 28.2788 32.6485 27.8263 32.6485 27.2444C32.7131 26.7273 32.7131 26.2747 32.7131 25.8869C32.7131 25.499 32.7131 25.0465 32.7131 24.4C32.7131 23.7535 32.7131 23.2364 32.7131 22.9131ZM27.2828 24.9172L22.1758 28.0848C22.1111 28.1495 21.9818 28.2141 21.8525 28.2141C21.7232 28.2141 21.6586 28.2141 21.5293 28.1495C21.3354 28.0202 21.2061 27.8263 21.2061 27.5677V21.1677C21.2061 20.9091 21.3354 20.7152 21.5293 20.5859C21.7232 20.4566 21.9818 20.4566 22.1758 20.5859L27.2828 23.7535C27.4768 23.8828 27.6061 24.0768 27.6061 24.2707C27.6061 24.4646 27.4768 24.7879 27.2828 24.9172Z" fill="white"/>
  </symbol>

  <!-- <symbol id="arrow-left" width="48" height="24" viewBox="0 0 48 24" fill="none">
    <path d="M0.646561 4.14645C0.451298 4.34171 0.451298 4.65829 0.646561 4.85355L3.82854 8.03553C4.0238 8.2308 4.34039 8.2308 4.53565 8.03553C4.73091 7.84027 4.73091 7.52369 4.53565 7.32843L1.70722 4.5L4.53565 1.67157C4.73091 1.47631 4.73091 1.15973 4.53565 0.964466C4.34039 0.769204 4.0238 0.769204 3.82854 0.964466L0.646561 4.14645ZM43.7891 4L1.00011 4V5L43.7891 5V4Z" fill="#FFA726"/>
  </symbol>

  <symbol id="arrow-right" width="48" height="24" viewBox="0 0 48 24" fill="none">
    <path d="M43.3534 4.14645C43.5487 4.34171 43.5487 4.65829 43.3534 4.85355L40.1715 8.03553C39.9762 8.2308 39.6596 8.2308 39.4644 8.03553C39.2691 7.84027 39.2691 7.52369 39.4644 7.32843L42.2928 4.5L39.4644 1.67157C39.2691 1.47631 39.2691 1.15973 39.4644 0.964466C39.6596 0.769204 39.9762 0.769204 40.1715 0.964466L43.3534 4.14645ZM0.210938 4L42.9999 4V5L0.210937 5L0.210938 4Z" fill="#FFA726"/>
  </symbol> -->

  <symbol id="divider" fill="none" xmlns="http://www.w3.org/2000/svg" viewBox="0 0 1300 1">
    <line x1="4.37114e-08" y1="0.5" x2="1300" y2="0.500114" stroke="#37474F"></line>
  </symbol>

</svg>

