<svg width="24" height="24" viewBox="0 0 24 24" fill="none" xmlns="http://www.w3.org/2000/svg">
<g id="youtube">
<path id="Vector" d="M20.7131 10.9131C20.7131 10.5252 20.6485 10.0727 20.6485 9.55556C20.5839 9.03838 20.5192 8.52121 20.4545 8.06869C20.3253 7.55151 20.1313 7.16364 19.7434 6.84041C19.4202 6.51717 18.9677 6.32323 18.5152 6.25858C17.0283 6.06464 14.8303 6 11.8566 6C8.88284 6 6.6202 6.06464 5.19798 6.25858C4.74545 6.32323 4.29293 6.51717 3.9697 6.84041C3.64646 7.16364 3.38787 7.55151 3.25858 8.06869C3.12929 8.52121 3.06465 8.97374 3.06465 9.55556C3 10.0727 3 10.5252 3 10.9131C3 11.301 3 11.7535 3 12.4C3 13.0465 3 13.5636 3 13.8869C3 14.2747 3.06465 14.7273 3.06465 15.2444C3.1293 15.7616 3.19394 16.2788 3.25858 16.7313C3.38787 17.2485 3.58182 17.6364 3.9697 17.9596C4.29293 18.2828 4.74545 18.4768 5.19798 18.5414C6.68484 18.7354 8.88284 18.8 11.8566 18.8C14.8303 18.8 17.0929 18.7354 18.5152 18.5414C18.9677 18.4768 19.4202 18.2828 19.7434 17.9596C20.0667 17.6364 20.3253 17.2485 20.4545 16.7313C20.5838 16.2788 20.6485 15.8263 20.6485 15.2444C20.7131 14.7273 20.7131 14.2747 20.7131 13.8869C20.7131 13.499 20.7131 13.0465 20.7131 12.4C20.7131 11.7535 20.7131 11.2364 20.7131 10.9131ZM15.2828 12.9172L10.1758 16.0848C10.1111 16.1495 9.98182 16.2141 9.85253 16.2141C9.72324 16.2141 9.65859 16.2141 9.5293 16.1495C9.33536 16.0202 9.20607 15.8263 9.20607 15.5677V9.16767C9.20607 8.90909 9.33536 8.71515 9.5293 8.58586C9.72324 8.45657 9.98182 8.45657 10.1758 8.58586L15.2828 11.7535C15.4768 11.8828 15.6061 12.0768 15.6061 12.2707C15.6061 12.4646 15.4768 12.7879 15.2828 12.9172Z" fill="#2196F3"/>
</g>
</svg>
