<svg width="124" height="124" viewBox="0 0 124 124" fill="none" xmlns="http://www.w3.org/2000/svg">
<path d="M6.01729 3.0173C6.01729 4.68324 4.66981 6.03459 3.00864 6.03459C1.34747 6.03459 0 4.68324 0 3.0173C0 1.35135 1.34747 0 3.00864 0C4.66981 0 6.01729 1.35135 6.01729 3.0173Z" fill="#CDE9FE"/>
<path d="M45.258 3.0173C45.258 4.68324 43.9105 6.03459 42.2494 6.03459C40.5882 6.03459 39.2407 4.68324 39.2407 3.0173C39.2407 1.35135 40.5882 0 42.2508 0C43.912 0 45.258 1.35135 45.258 3.0173Z" fill="#CDE9FE"/>
<path d="M84.5002 3.0173C84.5002 4.68324 83.1527 6.03459 81.4916 6.03459C79.8304 6.03459 78.4829 4.68324 78.4829 3.0173C78.4829 1.35135 79.8304 0 81.4916 0C83.1527 0 84.5002 1.35135 84.5002 3.0173Z" fill="#CDE9FE"/>
<path d="M120.734 6.03459C122.395 6.03459 123.742 4.6837 123.742 3.0173C123.742 1.35089 122.395 0 120.734 0C119.072 0 117.725 1.35089 117.725 3.0173C117.725 4.6837 119.072 6.03459 120.734 6.03459Z" fill="#CDE9FE"/>
<path d="M6.01729 42.029C6.01729 43.695 4.66981 45.0463 3.00864 45.0463C1.34747 45.0463 0 43.695 0 42.029C0 40.3631 1.34747 39.0117 3.00864 39.0117C4.66981 39.0117 6.01729 40.3631 6.01729 42.029Z" fill="#CDE9FE"/>
<path d="M45.258 42.029C45.258 43.695 43.9105 45.0463 42.2494 45.0463C40.5882 45.0463 39.2407 43.695 39.2407 42.029C39.2407 40.3631 40.5882 39.0117 42.2494 39.0117C43.912 39.0117 45.258 40.3631 45.258 42.029Z" fill="#CDE9FE"/>
<path d="M84.5002 42.029C84.5002 43.695 83.1527 45.0463 81.4916 45.0463C79.8304 45.0463 78.4829 43.695 78.4829 42.029C78.4829 40.3631 79.8304 39.0117 81.4916 39.0117C83.1527 39.0117 84.5002 40.3631 84.5002 42.029Z" fill="#CDE9FE"/>
<path d="M120.734 45.0463C122.395 45.0463 123.742 43.6954 123.742 42.029C123.742 40.3626 122.395 39.0117 120.734 39.0117C119.072 39.0117 117.725 40.3626 117.725 42.029C117.725 43.6954 119.072 45.0463 120.734 45.0463Z" fill="#CDE9FE"/>
<path d="M6.01729 81.0407C6.01729 82.7067 4.66981 84.058 3.00864 84.058C1.34747 84.058 0 82.7081 0 81.0407C0 79.3748 1.34747 78.0234 3.00864 78.0234C4.66981 78.0234 6.01729 79.3748 6.01729 81.0407Z" fill="#CDE9FE"/>
<path d="M45.258 81.0407C45.258 82.7067 43.9105 84.058 42.2494 84.058C40.5882 84.058 39.2407 82.7067 39.2407 81.0407C39.2407 79.3748 40.5882 78.0234 42.2494 78.0234C43.912 78.0234 45.258 79.3748 45.258 81.0407Z" fill="#CDE9FE"/>
<path d="M84.5002 81.0407C84.5002 82.7067 83.1527 84.058 81.4916 84.058C79.8304 84.058 78.4829 82.7067 78.4829 81.0407C78.4829 79.3748 79.8304 78.0234 81.4916 78.0234C83.1527 78.0234 84.5002 79.3748 84.5002 81.0407Z" fill="#CDE9FE"/>
<path d="M123.742 81.0407C123.742 82.7067 122.395 84.058 120.734 84.058C119.072 84.058 117.725 82.7067 117.725 81.0407C117.725 79.3748 119.072 78.0234 120.734 78.0234C122.395 78.0234 123.742 79.3748 123.742 81.0407Z" fill="#CDE9FE"/>
<path d="M6.01729 120.053C6.01729 121.719 4.66981 123.07 3.00864 123.07C1.34747 123.07 0 121.719 0 120.053C0 118.387 1.34747 117.035 3.00864 117.035C4.66981 117.035 6.01729 118.387 6.01729 120.053Z" fill="#CDE9FE"/>
<path d="M45.258 120.053C45.258 121.719 43.9105 123.07 42.2494 123.07C40.5882 123.07 39.2407 121.719 39.2407 120.053C39.2407 118.387 40.5882 117.035 42.2494 117.035C43.912 117.035 45.258 118.387 45.258 120.053Z" fill="#CDE9FE"/>
<path d="M84.5002 120.053C84.5002 121.719 83.1527 123.07 81.4916 123.07C79.8304 123.07 78.4829 121.719 78.4829 120.053C78.4829 118.387 79.8304 117.035 81.4916 117.035C83.1527 117.035 84.5002 118.387 84.5002 120.053Z" fill="#CDE9FE"/>
<path d="M120.734 123.07C122.395 123.07 123.742 121.719 123.742 120.053C123.742 118.386 122.395 117.035 120.734 117.035C119.072 117.035 117.725 118.386 117.725 120.053C117.725 121.719 119.072 123.07 120.734 123.07Z" fill="#CDE9FE"/>
</svg>
