<svg width="174" height="18" viewBox="0 0 174 18" fill="none" xmlns="http://www.w3.org/2000/svg">
<path d="M97 2V6C97 7.65 98.35 9 100 9H104V2H106V13.575L117.575 2H119H120V16H118V4.425L106.425 16H105H104V11H100C97.25 11 95 8.75 95 6V2H97ZM147.25 9C147.25 12.85 150.4 16 154.25 16C156.125 16 157.875 15.275 159.2 13.95L157.775 12.525C156.825 13.475 155.575 14 154.25 14C151.5 14 149.25 11.75 149.25 9C149.25 6.25 151.5 4 154.25 4C155.575 4 156.85 4.525 157.775 5.475L159.2 4.05C157.875 2.725 156.125 2 154.25 2C150.4 2 147.25 5.15 147.25 9ZM170 2H172V16H170V12H167.425L163.425 16H160.6L164.75 11.825C162.6 11.275 161 9.325 161 7C161 4.25 163.25 2 166 2H170ZM170 4H166C164.35 4 163 5.35 163 7C163 8.65 164.35 10 166 10H170V4ZM77.575 16H80.4L94.4 2H91.575L86 7.575L80.425 2H77.6L84.6 9L77.575 16ZM37 9C37 12.85 33.85 16 30 16C26.15 16 23 12.85 23 9C23 5.15 26.15 2 30 2C33.85 2 37 5.15 37 9ZM35 9C35 6.25 32.75 4 30 4C27.25 4 25 6.25 25 9C25 11.75 27.25 14 30 14C32.75 14 35 11.75 35 9ZM58.5 2H54H52H45C41.15 2 38 5.15 38 9C38 12.85 41.15 16 45 16C46.875 16 48.625 15.275 49.95 13.95L48.525 12.525C47.575 13.475 46.325 14 45 14C42.25 14 40 11.75 40 9C40 6.25 42.25 4 45 4H52V16H54V4H58.5V2ZM137 2V6H141C143.75 6 146 8.25 146 11C146 13.75 143.75 16 141 16H137H135V2H137ZM137 8V14H141C142.65 14 144 12.65 144 11C144 9.35 142.65 8 141 8H137ZM72.5 9C72.5 12.85 69.35 16 65.5 16C61.65 16 58.5 12.85 58.5 9C58.5 5.15 61.65 2 65.5 2C69.35 2 72.5 5.15 72.5 9ZM70.5 9C70.5 6.25 68.25 4 65.5 4C62.75 4 60.5 6.25 60.5 9C60.5 11.75 62.75 14 65.5 14C68.25 14 70.5 11.75 70.5 9ZM22 7C22 9.75 19.75 12 17 12H13V16H11V4H4V16H2V2H4H11H13H17C19.75 2 22 4.25 22 7ZM20 7C20 5.35 18.65 4 17 4H13V10H17C18.65 10 20 8.65 20 7ZM126.5 2H122V4H126.5V16H128.5V4H133V2H128.5H126.5Z" fill="black"/>
</svg>
