<svg width="122" height="110" viewBox="0 0 122 110" fill="none" xmlns="http://www.w3.org/2000/svg">
<path opacity="0.5" d="M58.9609 96.8239C80.9461 96.8239 98.7686 79.0014 98.7686 57.0163C98.7686 35.0312 80.9461 17.2087 58.9609 17.2087C36.9758 17.2087 19.1533 35.0312 19.1533 57.0163C19.1533 79.0014 36.9758 96.8239 58.9609 96.8239Z" fill="white"/>
<path d="M107.658 58.9052H69.8419C68.7427 58.9052 67.8516 58.0142 67.8516 56.915V5.16575C67.8516 4.0665 68.7427 3.17554 69.8419 3.17554H107.658C108.757 3.17554 109.649 4.0665 109.649 5.16575V56.9148C109.649 58.0137 108.758 58.9052 107.658 58.9052Z" fill="#CCE9FF"/>
<path d="M97.7066 19.0984H79.7936C79.2441 19.0984 78.7983 18.6528 78.7983 18.1031C78.7983 17.5537 79.2441 17.1082 79.7936 17.1082H97.7067C98.2563 17.1082 98.702 17.5537 98.702 18.1031C98.7017 18.6528 98.2561 19.0984 97.7066 19.0984Z" fill="#F7F7F7"/>
<path opacity="0.97" d="M77.3056 27.0598H75.3152C74.7656 27.0598 74.3201 26.6142 74.3201 26.0649C74.3201 25.5155 74.7656 25.0696 75.3152 25.0696H77.3056C77.8551 25.0696 78.3007 25.5155 78.3007 26.0649C78.3007 26.6146 77.8551 27.0598 77.3056 27.0598Z" fill="#D3D3D3"/>
<path opacity="0.97" d="M103.181 26.0655C103.181 26.3409 103.07 26.589 102.889 26.7682C102.709 26.9486 102.46 27.0595 102.185 27.0595H81.2859C80.7362 27.0595 80.2917 26.6136 80.2917 26.0655C80.2917 25.7898 80.4029 25.5417 80.5832 25.3612C80.762 25.1808 81.0118 25.0696 81.2859 25.0696H102.185C102.735 25.0696 103.181 25.5156 103.181 26.0655Z" fill="#F7F7F7"/>
<path opacity="0.97" d="M77.3056 31.0403H75.3152C74.7656 31.0403 74.3201 30.5947 74.3201 30.0453C74.3201 29.4956 74.7656 29.05 75.3152 29.05H77.3056C77.8551 29.05 78.3007 29.4956 78.3007 30.0453C78.3007 30.595 77.8551 31.0403 77.3056 31.0403Z" fill="#D3D3D3"/>
<path opacity="0.97" d="M103.18 30.0447C103.18 30.3205 103.069 30.5686 102.889 30.749C102.708 30.9295 102.46 31.0407 102.184 31.0407H81.2854C80.7357 31.0407 80.2913 30.5945 80.2913 30.0447C80.2913 29.7693 80.4024 29.5212 80.5827 29.3421C80.7615 29.1616 81.0113 29.0508 81.2854 29.0508H102.184C102.734 29.0506 103.18 29.4952 103.18 30.0447Z" fill="#F7F7F7"/>
<path opacity="0.97" d="M77.3056 35.0211H75.3152C74.7656 35.0211 74.3201 34.5755 74.3201 34.0261C74.3201 33.4764 74.7656 33.0305 75.3152 33.0305H77.3056C77.8551 33.0305 78.3007 33.4764 78.3007 34.0261C78.3007 34.5755 77.8551 35.0211 77.3056 35.0211Z" fill="#D3D3D3"/>
<path opacity="0.97" d="M103.18 34.0261C103.18 34.3002 103.069 34.5496 102.889 34.7301C102.708 34.9105 102.46 35.0217 102.184 35.0217H81.2854C80.7357 35.0217 80.2913 34.5758 80.2913 34.0261C80.2913 33.752 80.4024 33.5023 80.5827 33.3218C80.7615 33.1414 81.0113 33.0305 81.2854 33.0305H102.184C102.734 33.0305 103.18 33.4764 103.18 34.0261Z" fill="#F7F7F7"/>
<path d="M82.2816 43.9773H75.3155C74.766 43.9773 74.3202 43.5317 74.3202 42.9823C74.3202 42.4326 74.766 41.9871 75.3155 41.9871H82.2816C82.8311 41.9871 83.2769 42.4326 83.2769 42.9823C83.2767 43.5319 82.8311 43.9773 82.2816 43.9773ZM79.2959 47.9582H75.3153C74.7658 47.9582 74.3201 47.5126 74.3201 46.9629C74.3201 46.4135 74.7658 45.968 75.3153 45.968H79.2959C79.8455 45.968 80.2912 46.4135 80.2912 46.9629C80.2912 47.5126 79.8456 47.9582 79.2959 47.9582Z" fill="#0B4870"/>
<path d="M94.7209 15.1174H82.7788C82.2293 15.1174 81.7837 14.6718 81.7837 14.1224C81.7837 13.5727 82.2293 13.1271 82.7788 13.1271H94.7209C95.2705 13.1271 95.716 13.5727 95.716 14.1224C95.7162 14.672 95.2705 15.1174 94.7209 15.1174ZM94.7209 10.7102H82.7788C82.2293 10.7102 81.7837 10.2646 81.7837 9.71524C81.7837 9.16553 82.2293 8.71997 82.7788 8.71997H94.7209C95.2705 8.71997 95.716 9.16553 95.716 9.71524C95.7162 10.2648 95.2705 10.7102 94.7209 10.7102Z" fill="#F7F7F7"/>
<g opacity="0.9">
<path opacity="0.9" d="M105.673 58.623L103.027 59.1176L102.465 61.7503C102.345 62.3164 101.642 62.5191 101.238 62.105L93.5667 54.2367L98.3871 49.5369L106.058 57.4052C106.462 57.8193 106.241 58.5166 105.673 58.623Z" fill="#FFBE55"/>
<path opacity="0.9" d="M85.3745 57.4052L93.0458 49.5369L97.8664 54.2367L90.1951 62.105C89.7911 62.5191 89.0883 62.3164 88.9676 61.7503L88.4063 59.1175L85.7604 58.623C85.1917 58.5167 84.9707 57.8195 85.3745 57.4052Z" fill="#FFBE55"/>
</g>
<path d="M105.326 48.5655C105.326 48.7302 105.255 48.8869 105.132 48.996L103.308 50.5996L104.086 52.9004C104.138 53.0562 104.121 53.2276 104.039 53.3702C103.956 53.5129 103.816 53.6136 103.655 53.646L101.274 54.1238L100.797 56.5042C100.765 56.6654 100.664 56.8059 100.521 56.8881C100.433 56.939 100.334 56.9652 100.234 56.9652C100.173 56.9652 100.111 56.955 100.051 56.9344L97.7506 56.1576L96.147 57.9806C96.0381 58.1044 95.8811 58.1753 95.7164 58.1753C95.5516 58.1753 95.3944 58.1042 95.2859 57.9806L93.6821 56.1576L91.3821 56.9344C91.3221 56.9549 91.2601 56.9652 91.1985 56.9652C91.0988 56.9652 90.9997 56.939 90.9116 56.8881C90.7688 56.8059 90.6684 56.6655 90.6359 56.5042L90.1584 54.1238L87.7779 53.646C87.6163 53.6137 87.4765 53.513 87.3943 53.3702C87.3116 53.2276 87.2945 53.0562 87.3474 52.9004L88.1241 50.5996L86.3014 48.996C86.1774 48.8869 86.1067 48.7302 86.1067 48.5655C86.1067 48.4001 86.1774 48.2437 86.3014 48.1347L88.1241 46.5307L87.3474 44.2302C87.2945 44.0745 87.3116 43.903 87.3943 43.7604C87.4765 43.6181 87.6163 43.5171 87.7779 43.4843L90.1584 43.0072L90.6359 40.6267C90.6684 40.4653 90.7688 40.3251 90.9116 40.2426C90.9997 40.192 91.0988 40.1654 91.1985 40.1654C91.2601 40.1654 91.3221 40.1759 91.3821 40.1959L93.6821 40.9727L95.2859 39.15C95.3944 39.0262 95.5515 38.9553 95.7164 38.9553C95.8813 38.9553 96.0381 39.0264 96.147 39.15L97.7506 40.9727L100.051 40.1959C100.111 40.1761 100.173 40.1654 100.234 40.1654C100.334 40.1654 100.433 40.192 100.521 40.2426C100.664 40.3251 100.765 40.4651 100.797 40.6267L101.274 43.0072L103.655 43.4843C103.816 43.5169 103.956 43.6179 104.039 43.7604C104.121 43.903 104.138 44.0745 104.086 44.2302L103.308 46.5307L105.132 48.1347C105.255 48.2437 105.326 48.4001 105.326 48.5655Z" fill="#2A94F4"/>
<path d="M95.7162 54.4685C98.9764 54.4685 101.619 51.8255 101.619 48.5653C101.619 45.3051 98.9764 42.6621 95.7162 42.6621C92.4559 42.6621 89.813 45.3051 89.813 48.5653C89.813 51.8255 92.4559 54.4685 95.7162 54.4685Z" fill="#FFBE55"/>
<path d="M67.12 76.9V78H61.84V77.13L64.71 74.49C65.0367 74.19 65.2567 73.93 65.37 73.71C65.4833 73.49 65.54 73.2667 65.54 73.04C65.54 72.72 65.42 72.4733 65.18 72.3C64.9467 72.12 64.6067 72.03 64.16 72.03C63.4067 72.03 62.83 72.2733 62.43 72.76L61.52 72.06C61.8 71.6933 62.18 71.41 62.66 71.21C63.14 71.0033 63.6767 70.9 64.27 70.9C64.79 70.9 65.2433 70.9833 65.63 71.15C66.0233 71.31 66.3233 71.5433 66.53 71.85C66.7433 72.15 66.85 72.5033 66.85 72.91C66.85 73.2767 66.7633 73.63 66.59 73.97C66.4233 74.3033 66.1033 74.6867 65.63 75.12L63.71 76.9H67.12ZM71.502 78.1C70.922 78.1 70.4053 77.9567 69.952 77.67C69.5053 77.3767 69.1553 76.96 68.902 76.42C68.6553 75.8733 68.532 75.2333 68.532 74.5C68.532 73.7667 68.6553 73.13 68.902 72.59C69.1553 72.0433 69.5053 71.6267 69.952 71.34C70.4053 71.0467 70.922 70.9 71.502 70.9C72.082 70.9 72.5953 71.0467 73.042 71.34C73.4953 71.6267 73.8453 72.0433 74.092 72.59C74.3453 73.13 74.472 73.7667 74.472 74.5C74.472 75.2333 74.3453 75.8733 74.092 76.42C73.8453 76.96 73.4953 77.3767 73.042 77.67C72.5953 77.9567 72.082 78.1 71.502 78.1ZM71.502 76.97C72.002 76.97 72.402 76.76 72.702 76.34C73.0086 75.9133 73.162 75.3 73.162 74.5C73.162 73.7 73.0086 73.09 72.702 72.67C72.402 72.2433 72.002 72.03 71.502 72.03C71.002 72.03 70.5986 72.2433 70.292 72.67C69.992 73.09 69.842 73.7 69.842 74.5C69.842 75.3 69.992 75.9133 70.292 76.34C70.5986 76.76 71.002 76.97 71.502 76.97ZM80.9639 76.91V78H76.3839V76.91H78.1139V72.09H76.5039V71H79.4239V76.91H80.9639ZM85.1159 73.71C86.1692 73.71 86.9425 73.9033 87.4359 74.29C87.9359 74.67 88.1859 75.19 88.1859 75.85C88.1859 76.27 88.0792 76.65 87.8659 76.99C87.6525 77.33 87.3292 77.6 86.8959 77.8C86.4692 78 85.9392 78.1 85.3059 78.1C84.7859 78.1 84.2792 78.03 83.7859 77.89C83.2992 77.7433 82.8925 77.5433 82.5659 77.29L83.1159 76.28C83.3892 76.4933 83.7192 76.6633 84.1059 76.79C84.4925 76.91 84.8925 76.97 85.3059 76.97C85.7992 76.97 86.1825 76.8767 86.4559 76.69C86.7359 76.4967 86.8759 76.2333 86.8759 75.9C86.8759 75.54 86.7225 75.27 86.4159 75.09C86.1159 74.9033 85.5992 74.81 84.8659 74.81H83.0859L83.4559 71H87.7259V72.09H84.5459L84.3959 73.71H85.1159Z" fill="black"/>
<path d="M25.7691 54.8688C27.1632 56.1472 27.9414 58.4973 26.9359 59.5939C25.9303 60.6905 23.5217 60.1184 22.1276 58.8399C20.7334 57.5615 20.8817 56.061 21.8872 54.9644C22.8929 53.8678 24.375 53.5904 25.7691 54.8688Z" fill="#363E44"/>
<path d="M24.1103 60.572C23.234 60.572 22.3039 60.3639 21.5295 59.9761C20.6422 59.5316 20.0501 58.8909 19.8168 58.1232C19.6022 57.4166 19.6932 56.6351 20.08 55.863C20.467 55.0909 21.0383 54.5499 21.7327 54.2988C22.4871 54.0257 23.355 54.1165 24.2423 54.5609C25.1525 55.0169 26.013 55.8108 26.5438 56.6844C27.1281 57.646 27.2538 58.5672 26.8977 59.2782C26.4525 60.1664 25.3336 60.572 24.1103 60.572ZM22.6295 54.4202C22.3493 54.4202 22.0802 54.4658 21.8264 54.5576C21.1996 54.7844 20.6808 55.2785 20.3263 55.9865C19.9717 56.6942 19.8866 57.4055 20.0803 58.0432C20.291 58.7369 20.8347 59.3201 21.653 59.7298C23.358 60.5843 25.9683 60.5183 26.6513 59.1548C26.9637 58.5317 26.8418 57.7052 26.3085 56.8275C25.8034 55.9963 24.9848 55.241 24.1188 54.8073C23.6054 54.55 23.1018 54.4202 22.6295 54.4202Z" fill="#363E44"/>
<path d="M26.7745 59.2168C26.7745 59.2168 26.8743 62.0751 19.9133 63.131C11.4805 64.4101 16.8826 72.6453 8.33543 73.5558C-0.211698 74.4662 0.143696 80.5164 0.143696 80.5164L2.41948 82.8981C3.07832 81.2525 4.76694 78.3398 8.62077 77.6258C8.62077 77.6258 4.66342 79.3614 3.95388 84.5039L8.96075 89.7438L37.2063 69.1372L26.7745 59.2168Z" fill="#363E44"/>
<path d="M49.5906 56.2244C49.5906 56.2244 58.6318 47.0642 61.8181 44.2275C65.1644 41.2483 70.5387 37.3369 71.0762 38.0957C71.3823 38.528 70.7597 39.213 68.9737 40.9332C69.1509 40.9365 69.6854 41.0794 69.9036 41.5269C70.2266 42.1891 69.7631 42.5968 69.7395 42.652C69.7997 42.6482 70.4877 42.6423 70.7789 43.049C71.1069 43.5071 71.0151 43.9765 70.7866 44.355C70.9362 44.3504 71.574 44.4357 71.834 44.8403C72.1721 45.3663 71.8601 45.9841 71.4696 46.3217C70.753 46.9408 68.753 48.5839 67.8064 49.588C65.9433 51.5637 60.2693 59.4681 56.8219 61.6119C56.0586 58.182 49.5906 56.2244 49.5906 56.2244Z" fill="#FFD5CF"/>
<path d="M65.1504 47.9201C65.1278 47.9201 65.1049 47.9146 65.0837 47.9027C65.0173 47.8659 64.9932 47.7821 65.0302 47.7156C65.4926 46.8824 65.521 46.1048 65.544 45.48C65.5675 44.8389 65.588 44.2852 66.149 44.094C66.4844 43.9796 66.8353 43.6693 67.1637 43.1965C67.2417 43.0842 67.2144 42.965 67.1629 42.8909C67.1104 42.8155 67.0065 42.7471 66.8713 42.7822L64.0507 43.5077C63.9784 43.5269 63.9022 43.4824 63.883 43.4086C63.8641 43.3349 63.9085 43.2599 63.9821 43.2409L66.8027 42.5154C67.0263 42.458 67.2565 42.5434 67.3889 42.7336C67.5201 42.9223 67.5205 43.1656 67.3898 43.3535C67.0224 43.8824 66.6348 44.2193 66.2377 44.3545C65.8723 44.4791 65.8441 44.8111 65.8192 45.4901C65.7951 46.1442 65.7651 46.9583 65.2708 47.8492C65.2457 47.8945 65.1988 47.9201 65.1504 47.9201Z" fill="#363E44"/>
<path d="M69.8732 47.0965C69.8347 47.0965 69.7966 47.0805 69.7693 47.0492C69.3211 46.5333 69.263 45.7988 69.5817 45.2262L69.4684 45.2995C69.0345 45.5797 68.4634 45.5099 68.1097 45.134C67.9104 44.9222 67.8077 44.6456 67.8203 44.3552C67.8329 44.0648 67.9593 43.7983 68.1762 43.6045L68.4079 43.3975C68.1287 43.4088 67.8442 43.2861 67.6649 43.0464C67.396 42.6866 67.4397 42.1833 67.7668 41.8755L68.544 41.1449C68.5991 41.0929 68.6862 41.0951 68.7385 41.1509C68.7905 41.2063 68.7879 41.2934 68.7325 41.3455L67.9554 42.0761C67.7305 42.2877 67.7003 42.6339 67.8854 42.8814C68.0818 43.1438 68.4582 43.2019 68.7248 43.0106L69.3222 42.5817C69.3815 42.5391 69.464 42.5504 69.5099 42.6074C69.5556 42.6645 69.5488 42.7475 69.4942 42.7962L68.3596 43.8099C68.1987 43.9536 68.1049 44.1515 68.0954 44.3672C68.086 44.5827 68.1624 44.7881 68.3103 44.9453C68.5727 45.2246 68.9971 45.276 69.3189 45.0683L70.279 44.4481C70.3381 44.4095 70.4166 44.4225 70.4608 44.4773C70.5051 44.532 70.5008 44.6113 70.451 44.661L70.0398 45.0723C69.5529 45.5595 69.5254 46.3485 69.9772 46.8685C70.0271 46.9259 70.021 47.0129 69.9636 47.0628C69.9374 47.0854 69.9053 47.0965 69.8732 47.0965Z" fill="#363E44"/>
<path d="M54.6805 48.6997L63.0599 57.8196L48.0756 73.3086L60.584 108.367L19.561 107.85V101.549C19.561 101.549 18.674 101.84 14.4805 101.93C11.734 101.988 6.13846 99.7769 6.94578 93.498C8.31816 82.8234 39.4185 63.3999 54.6805 48.6997Z" fill="#EFBC73"/>
<path d="M12.776 92.4611C12.7366 92.4611 12.6975 92.4443 12.6702 92.4118C12.6215 92.3534 12.6292 92.2666 12.6875 92.2178C15.9681 89.475 18.4776 88.452 20.1478 89.1769C21.8642 89.9222 22.0101 92.2184 22.0156 92.3159C22.0199 92.3917 21.9617 92.4567 21.8858 92.4608C21.8085 92.4633 21.745 92.4069 21.7408 92.3311C21.7395 92.3089 21.5975 90.1055 20.0369 89.429C18.4708 88.7501 16.0575 89.7593 12.8642 92.4291C12.8384 92.4506 12.807 92.4611 12.776 92.4611Z" fill="#E0AA63"/>
<path d="M19.5608 78.6345C19.5608 78.6345 25.448 67.5527 41.3269 63.6182L41.1455 71.8296L43.2683 72.2829C43.2683 72.2829 43.5897 82.7632 45.0962 88.4567L31.1174 97.2055C31.1174 97.2055 28.1721 89.0201 22.8701 84.4383L24.2028 82.2888L19.5608 78.6345Z" fill="#E0AA63"/>
<path d="M23.6709 75.2029C23.6709 75.2029 32.5258 67.7927 35.9307 66.3115L46.5439 89.8217L46.1177 108.572L33.8796 108.294L23.6709 75.2029Z" fill="white"/>
<path d="M46.5437 89.9594C46.5427 89.9594 46.5417 89.9594 46.5406 89.9594C46.4645 89.9576 46.4043 89.8946 46.406 89.8186L46.626 80.1414C46.6278 80.0663 46.6891 80.0068 46.7637 80.0068C46.7646 80.0068 46.7657 80.0068 46.7668 80.0068C46.8429 80.0086 46.9031 80.0716 46.9013 80.1476L46.6813 89.8248C46.6796 89.8998 46.6183 89.9594 46.5437 89.9594Z" fill="#E0AA63"/>
<path d="M28.4818 74.9805C28.3931 74.9805 28.3006 74.9697 28.2053 74.948C27.8779 74.8731 27.554 74.6752 27.2929 74.3905C27.0319 74.1059 26.8627 73.7661 26.8164 73.4335C26.7676 73.0822 26.8602 72.7793 27.0769 72.5804C27.5096 72.1843 28.3101 72.3505 28.8616 72.9521C29.1226 73.2367 29.2918 73.5766 29.338 73.9092C29.3868 74.2604 29.2943 74.5635 29.0776 74.7622C28.9205 74.9062 28.7147 74.9805 28.4818 74.9805ZM27.677 72.6358C27.5162 72.6358 27.372 72.6834 27.2629 72.7834C27.1148 72.919 27.0531 73.1366 27.0891 73.3955C27.1276 73.6732 27.2722 73.9606 27.4958 74.2044C27.7194 74.4483 27.9931 74.617 28.2666 74.6795C28.5213 74.7375 28.7433 74.6951 28.8914 74.5591C29.0395 74.4235 29.1012 74.206 29.0653 73.9471C29.0267 73.6694 28.8823 73.382 28.6586 73.1382C28.3623 72.815 27.9889 72.6358 27.677 72.6358Z" fill="#E0AA63"/>
<path d="M29.8262 75.7847C29.6481 75.7847 29.4609 75.759 29.2731 75.7042C28.4895 75.476 27.9853 74.8321 28.1494 74.2688C28.3133 73.7055 29.0844 73.4326 29.8679 73.6606C30.6514 73.8888 31.1555 74.5327 30.9916 75.096C30.867 75.5244 30.3913 75.7847 29.8262 75.7847ZM29.3038 73.8535C28.8642 73.8535 28.5035 74.0372 28.4137 74.3457C28.2922 74.7633 28.7121 75.2541 29.35 75.44C29.9878 75.6252 30.6058 75.4368 30.7274 75.0192C30.8487 74.6016 30.4288 74.1108 29.791 73.925C29.6244 73.8766 29.4591 73.8535 29.3038 73.8535ZM30.8595 75.0576H30.8608H30.8595Z" fill="#E0AA63"/>
<path d="M31.5144 75.9952C30.7892 75.9952 30.1904 75.6055 30.1381 75.0702C30.1094 74.7775 30.2429 74.4902 30.514 74.2613C30.7703 74.0446 31.1234 73.9046 31.5077 73.8671C32.3205 73.7883 33.0273 74.1982 33.0843 74.7824C33.1413 75.3664 32.5269 75.906 31.7147 75.9855C31.647 75.992 31.5802 75.9952 31.5144 75.9952ZM31.713 74.1324C31.6545 74.1324 31.595 74.1352 31.5346 74.1411C31.2053 74.1732 30.9059 74.2907 30.6916 74.4717C30.4918 74.6404 30.3926 74.8434 30.4121 75.0433C30.4545 75.4763 31.0265 75.7757 31.6878 75.7114C32.3491 75.6468 32.8526 75.242 32.8104 74.8092C32.7719 74.4158 32.2957 74.1324 31.713 74.1324Z" fill="#E0AA63"/>
<path d="M33.0706 75.3386C33.0651 75.3386 33.0597 75.3386 33.0544 75.3386C32.6997 75.3344 32.4141 75.1979 32.2497 74.954C31.922 74.4674 32.206 73.7005 32.8829 73.2446C33.5602 72.7887 34.3775 72.8139 34.7051 73.3006C34.8694 73.5445 34.8885 73.8606 34.7589 74.1908C34.6362 74.5034 34.3922 74.7943 34.0719 75.0099C33.7567 75.2223 33.4017 75.3386 33.0706 75.3386ZM33.8867 73.1891C33.6226 73.1891 33.3173 73.284 33.0368 73.4729C32.4858 73.8441 32.2351 74.4395 32.4781 74.8002C32.5903 74.9669 32.7961 75.0602 33.0576 75.0633C33.0619 75.0633 33.0664 75.0633 33.0708 75.0633C33.3476 75.0633 33.6479 74.9635 33.9181 74.7817C34.1927 74.5968 34.4002 74.3512 34.5027 74.0903C34.5983 73.8469 34.589 73.621 34.4769 73.4544C34.3576 73.2773 34.1413 73.1891 33.8867 73.1891Z" fill="#E0AA63"/>
<path d="M34.6119 74.0809C34.4377 74.0809 34.2765 74.0337 34.1386 73.9398C33.8954 73.7743 33.7603 73.488 33.7578 73.1333C33.7557 72.7975 33.8741 72.4368 34.0914 72.1176C34.3088 71.7981 34.6009 71.5556 34.914 71.4345C35.2445 71.3066 35.5606 71.3271 35.804 71.4926C36.047 71.658 36.1823 71.9444 36.1845 72.2992C36.1866 72.6348 36.0683 72.9955 35.851 73.3148C35.6338 73.6343 35.3416 73.8768 35.0285 73.9979C34.8854 74.0533 34.7449 74.0809 34.6119 74.0809ZM35.3296 71.6273C35.2304 71.6273 35.1238 71.6485 35.0134 71.6913C34.7519 71.7924 34.5053 71.9989 34.3191 72.2725C34.133 72.5461 34.0313 72.8511 34.0332 73.1315C34.0349 73.393 34.1274 73.5993 34.2934 73.7121C34.4594 73.8253 34.6853 73.8356 34.9292 73.7412C35.1906 73.6401 35.4372 73.4336 35.6233 73.16C35.8095 72.8864 35.9111 72.5814 35.9092 72.3009C35.9075 72.0394 35.8151 71.8332 35.6491 71.7203C35.5582 71.6584 35.4493 71.6273 35.3296 71.6273Z" fill="#E0AA63"/>
<path d="M35.5547 72.1433C35.2803 72.1433 35.0179 72.0017 34.811 71.7403C34.6025 71.4771 34.4738 71.1199 34.4484 70.7345C34.4231 70.349 34.5039 69.9781 34.6761 69.6899C34.858 69.3854 35.1197 69.207 35.4132 69.1878C35.7051 69.1684 35.9894 69.3109 36.2096 69.589C36.4181 69.8523 36.5468 70.2095 36.5722 70.5949C36.5975 70.9803 36.5167 71.3513 36.3445 71.6395C36.1626 71.944 35.9009 72.1224 35.6074 72.1416C35.5897 72.1427 35.5721 72.1433 35.5547 72.1433ZM35.4649 69.4615C35.4537 69.4615 35.4425 69.4617 35.4313 69.4626C35.2309 69.4757 35.0467 69.6065 34.9125 69.8311C34.7686 70.0718 34.7015 70.3862 34.7232 70.7165C34.7448 71.0466 34.8526 71.3495 35.0268 71.5695C35.1891 71.7743 35.3897 71.8818 35.5894 71.8669C35.7898 71.8537 35.974 71.7229 36.1082 71.4984C36.252 71.2576 36.3192 70.9432 36.2975 70.613C36.2758 70.2828 36.168 69.9799 35.9939 69.7599C35.8406 69.5664 35.6539 69.4615 35.4649 69.4615ZM35.4222 69.3252H35.4235H35.4222Z" fill="#E0AA63"/>
<path d="M35.329 70.0772C35.1551 70.0772 34.9722 70.0251 34.792 69.9217C34.5007 69.7548 34.2485 69.471 34.0818 69.1226C33.7297 68.3864 33.8738 67.5813 34.4031 67.3281C34.933 67.0755 35.6496 67.4679 36.0018 68.2041C36.1685 68.5526 36.2312 68.9271 36.1785 69.2586C36.1226 69.6088 35.9458 69.8716 35.6805 69.9985C35.5706 70.0511 35.452 70.0772 35.329 70.0772ZM34.522 67.5765C34.1296 67.7642 34.0435 68.4045 34.3303 69.0037C34.4731 69.3022 34.6858 69.5434 34.929 69.6829C35.1557 69.8129 35.3803 69.8368 35.5618 69.7501C35.743 69.6635 35.8655 69.4736 35.9066 69.2153C35.9507 68.9384 35.8964 68.6214 35.7535 68.323C35.4668 67.7236 34.9144 67.3885 34.522 67.5765Z" fill="#E0AA63"/>
<path d="M78.6404 106.224C77.962 107.674 76.5057 108.601 74.9048 108.601H49.2007L60.7123 83.9927H89.0401L78.6404 106.224Z" fill="#363E44"/>
<path d="M32.3284 106.13C32.3284 107.501 33.4396 108.613 34.8104 108.613H58.5118L59.6731 106.13H32.3284Z" fill="#363E44"/>
<path d="M72.5105 95.0115C72.5172 94.0763 71.7646 93.3128 70.8297 93.3062C69.8948 93.2995 69.1315 94.0523 69.1248 94.9874C69.1182 95.9226 69.8707 96.686 70.8056 96.6927C71.7406 96.6993 72.5039 95.9466 72.5105 95.0115Z" fill="white"/>
<path d="M46.6092 102.991C45.8723 102.139 43.3773 98.1011 41.1733 98.2833C38.9536 98.4668 37.192 100.187 36.1782 102.17C36.1808 102.179 36.1835 102.189 36.186 102.197C36.1617 102.814 36.2197 103.739 36.7402 104.617C37.3335 105.617 37.9595 105.598 38.75 106.556C40.0843 108.174 39.5733 109.862 40.3151 109.902C40.8242 109.929 41.1645 108.959 41.2446 107.992C41.3269 107 40.9626 106.324 41.1115 106.258C41.2748 106.185 41.556 106.92 41.9896 107.801C42.191 108.21 42.0516 109.676 42.7416 109.816C43.2918 109.928 43.8178 108.441 43.5248 107.096C43.3175 106.145 42.5644 105.575 42.6977 105.457C42.7977 105.369 43.2381 105.72 43.5275 106.136C44.0051 106.821 43.8786 108.322 44.5162 108.439C45.1409 108.553 45.5775 107.246 45.3863 105.993C45.2251 104.936 44.3549 104.34 44.5197 104.193C44.6357 104.089 45.0807 104.275 45.8552 104.924C46.5016 105.465 47.4096 106.934 48.0772 106.342C48.6386 105.844 47.7215 104.278 46.6092 102.991Z" fill="#FFD5CF"/>
<path d="M19.4055 91.0308C19.4055 91.0308 11.4917 96.0551 15.8992 101.033L37.9512 103.143L42.2528 98.4927C35.2296 94.513 26.9322 91.6319 19.4055 91.0308Z" fill="#FFD5CF"/>
<path d="M29.7274 93.2205C29.7167 93.2205 29.7056 93.2193 29.6947 93.2167L23.4597 91.6977C23.3857 91.6797 23.3404 91.6052 23.3585 91.5314C23.3765 91.4576 23.4512 91.4122 23.5248 91.4302L29.7599 92.9492C29.8338 92.9672 29.8791 93.0416 29.8611 93.1154C29.8457 93.1783 29.7894 93.2205 29.7274 93.2205Z" fill="#363E44"/>
<path d="M35.1898 65.4474C34.2727 66.5672 30.457 65.252 30.457 65.252L27.5647 61.9071C27.0275 59.9431 28.1841 57.9154 30.1481 57.3781C32.1122 56.8409 34.1398 57.9976 34.6771 59.9616C34.677 59.9616 36.124 64.307 35.1898 65.4474Z" fill="#FFD5CF"/>
<path d="M33.1676 70.6358L33.0405 62.3843L28.574 62.4811L28.7011 70.7327C28.7278 71.9661 29.7494 72.9443 30.9828 72.9176C32.2162 72.8908 33.1943 71.8692 33.1676 70.6358Z" fill="#FFD5CF"/>
<path d="M34.5244 61.0088C34.5244 61.0088 35.8077 61.781 35.8301 62.0715C35.8568 62.4182 34.8007 62.923 34.8007 62.923C34.8007 62.923 34.5516 61.0041 34.5244 61.0088Z" fill="#FFD5CF"/>
<path d="M31.3035 62.2093C31.3035 62.2093 31.6198 61.5838 32.23 61.1582C32.3598 61.0676 32.8397 62.2774 32.6754 62.3046C31.9531 62.4239 31.3035 62.2093 31.3035 62.2093Z" fill="white"/>
<path d="M33.1728 62.1648C34.0634 61.7969 34.5286 60.877 34.5286 60.877C34.5286 60.877 33.5498 60.5536 32.6593 60.9215C32.5033 60.9859 32.3613 61.0678 32.2316 61.1582C32.1683 61.605 32.3479 62.0334 32.6747 62.3045C32.8393 62.2773 33.0076 62.2331 33.1728 62.1648Z" fill="#363E44"/>
<path d="M33.9518 63.935C33.8858 63.935 33.8193 63.9249 33.7545 63.9043C33.519 63.8293 33.343 63.622 33.306 63.3761C33.2947 63.3009 33.3466 63.2308 33.4217 63.2195C33.4985 63.2098 33.5672 63.26 33.5783 63.3352C33.5997 63.4781 33.7016 63.5985 33.8381 63.6418C33.9794 63.6871 34.1359 63.6443 34.2363 63.5327C34.2872 63.4763 34.3742 63.4716 34.4306 63.5225C34.4871 63.5733 34.4917 63.6604 34.4409 63.7169C34.3141 63.8578 34.1349 63.935 33.9518 63.935Z" fill="#363E44"/>
<path d="M33.2992 66.1489C33.2953 66.1489 33.2914 66.1488 33.2875 66.1483C31.9429 66.0348 30.4849 65.4657 30.4235 65.4415C30.3527 65.4136 30.318 65.3337 30.3458 65.263C30.3736 65.1922 30.4537 65.1577 30.5243 65.1852C30.5389 65.1911 32.007 65.7638 33.3106 65.8741C33.3864 65.8804 33.4426 65.9471 33.4361 66.0228C33.4301 66.0946 33.3701 66.1489 33.2992 66.1489Z" fill="#363E44"/>
<path d="M28.0992 69.2643C27.0582 68.7359 26.0213 61.0423 26.7041 59.4677C27.5844 57.4376 30.0298 56.2828 31.9797 56.4921C32.459 56.5435 33.5511 56.8033 33.9001 57.4961C34.1717 58.0355 33.6057 59.1308 32.6823 59.4283C31.3839 59.8466 29.5854 59.5076 30.2193 60.9906C32.14 65.4846 29.2431 69.8448 28.0992 69.2643Z" fill="#363E44"/>
</svg>
