<svg width="136" height="109" viewBox="0 0 136 109" fill="none" xmlns="http://www.w3.org/2000/svg">
<rect width="136" height="109" fill="#DFDFDF"/>
<g id="MAIN " clip-path="url(#clip0_1675_1310)">
<rect width="1920" height="8966" transform="translate(-991 -4043)" fill="white"/>
<g id="pluses">
<g id="Component">
<g id="Rectangle" filter="url(#filter0_d_1675_1310)">
<rect x="-20" y="49" width="310" height="354" rx="2" fill="white"/>
</g>
<g id="Frame" clip-path="url(#clip1_1675_1310)">
<g id="Group">
<path id="Vector" d="M123.565 28.7414V105.319H-3.68164V37.5129H7.35715V56.9565H10.1984V45.951H24.2355V63.3805H26.0937V22.476H38.2928V33.7004H44.5484V47.673H46.4433V38.8864H57.534V65.1014H60.7768V43.7923H70.9204V27.6018H77.8164V18.3855H85.7953V59.2739H88.4807V42.2078H101.622V66.6336H103.439V46.699H116.768V28.7414H123.565Z" fill="#EBEBEB"/>
<g id="Group_2">
<path id="Vector_2" d="M2.7763 39.9585H0.908447V43.6755H2.7763V39.9585Z" fill="white"/>
<path id="Vector_3" d="M6.01335 39.9585H4.14551V43.6755H6.01335V39.9585Z" fill="white"/>
<path id="Vector_4" d="M2.7763 45.551H0.908447V49.2681H2.7763V45.551Z" fill="white"/>
<path id="Vector_5" d="M6.01335 45.551H4.14551V49.2681H6.01335V45.551Z" fill="white"/>
<path id="Vector_6" d="M2.7763 51.1445H0.908447V54.8616H2.7763V51.1445Z" fill="white"/>
<path id="Vector_7" d="M6.01335 51.1445H4.14551V54.8616H6.01335V51.1445Z" fill="white"/>
<path id="Vector_8" d="M2.7763 56.7383H0.908447V60.4553H2.7763V56.7383Z" fill="white"/>
<path id="Vector_9" d="M6.01335 56.7383H4.14551V60.4553H6.01335V56.7383Z" fill="white"/>
<path id="Vector_10" d="M64.203 46.4463H62.3352V49.5478H64.203V46.4463Z" fill="white"/>
<path id="Vector_11" d="M67.4403 46.4463H65.5725V49.5478H67.4403V46.4463Z" fill="white"/>
<path id="Vector_12" d="M70.6777 46.4463H68.8098V49.5478H70.6777V46.4463Z" fill="white"/>
<path id="Vector_13" d="M64.203 51.1133H62.3352V54.2148H64.203V51.1133Z" fill="white"/>
<path id="Vector_14" d="M67.4403 51.1133H65.5725V54.2148H67.4403V51.1133Z" fill="white"/>
<path id="Vector_15" d="M70.6777 51.1133H68.8098V54.2148H70.6777V51.1133Z" fill="white"/>
<path id="Vector_16" d="M64.203 55.7788H62.3352V58.8803H64.203V55.7788Z" fill="white"/>
<path id="Vector_17" d="M67.4403 55.7788H65.5725V58.8803H67.4403V55.7788Z" fill="white"/>
<path id="Vector_18" d="M70.6777 55.7788H68.8098V58.8803H70.6777V55.7788Z" fill="white"/>
<path id="Vector_19" d="M64.203 60.4458H62.3352V63.5473H64.203V60.4458Z" fill="white"/>
<path id="Vector_20" d="M67.4403 60.4458H65.5725V63.5473H67.4403V60.4458Z" fill="white"/>
<path id="Vector_21" d="M70.6777 60.4458H68.8098V63.5473H70.6777V60.4458Z" fill="white"/>
<path id="Vector_22" d="M64.203 65.2266H62.3352V68.3281H64.203V65.2266Z" fill="white"/>
<path id="Vector_23" d="M67.4403 65.2266H65.5725V68.3281H67.4403V65.2266Z" fill="white"/>
<path id="Vector_24" d="M70.6777 65.2266H68.8098V68.3281H70.6777V65.2266Z" fill="white"/>
<path id="Vector_25" d="M64.203 70.0098H62.3352V73.1113H64.203V70.0098Z" fill="white"/>
<path id="Vector_26" d="M67.4403 70.0098H65.5725V73.1113H67.4403V70.0098Z" fill="white"/>
<path id="Vector_27" d="M70.6777 70.0098H68.8098V73.1113H70.6777V70.0098Z" fill="white"/>
<path id="Vector_28" d="M64.203 74.7905H62.3352V77.8921H64.203V74.7905Z" fill="white"/>
<path id="Vector_29" d="M67.4403 74.7905H65.5725V77.8921H67.4403V74.7905Z" fill="white"/>
<path id="Vector_30" d="M70.6777 74.7905H68.8098V77.8921H70.6777V74.7905Z" fill="white"/>
<path id="Vector_31" d="M64.203 79.5718H62.3352V82.6733H64.203V79.5718Z" fill="white"/>
<path id="Vector_32" d="M67.4403 79.5718H65.5725V82.6733H67.4403V79.5718Z" fill="white"/>
<path id="Vector_33" d="M70.6777 79.5718H68.8098V82.6733H70.6777V79.5718Z" fill="white"/>
<path id="Vector_34" d="M22.5442 48.3337H11.792V50.6581H22.5442V48.3337Z" fill="white"/>
<path id="Vector_35" d="M22.5442 52.8447H11.792V55.1691H22.5442V52.8447Z" fill="white"/>
<path id="Vector_36" d="M22.5442 57.355H11.792V59.6804H22.5442V57.355Z" fill="white"/>
<path id="Vector_37" d="M22.5442 61.8657H11.792V64.1911H22.5442V61.8657Z" fill="white"/>
<path id="Vector_38" d="M22.5442 66.3774H11.792V68.7018H22.5442V66.3774Z" fill="white"/>
<path id="Vector_39" d="M22.5442 70.8882H11.792V73.2126H22.5442V70.8882Z" fill="white"/>
<path id="Vector_40" d="M22.5442 75.3994H11.792V77.7238H22.5442V75.3994Z" fill="white"/>
<path id="Vector_41" d="M22.5442 79.9106H11.792V82.2361H22.5442V79.9106Z" fill="white"/>
<path id="Vector_42" d="M99.9538 44.3787H90.0684V46.7041H99.9538V44.3787Z" fill="white"/>
<path id="Vector_43" d="M99.9538 48.8887H90.0684V51.2141H99.9538V48.8887Z" fill="white"/>
<path id="Vector_44" d="M99.9538 53.3999H90.0684V55.7243H99.9538V53.3999Z" fill="white"/>
<path id="Vector_45" d="M99.9538 57.9106H90.0684V60.235H99.9538V57.9106Z" fill="white"/>
<path id="Vector_46" d="M99.9538 62.4224H90.0684V64.7468H99.9538V62.4224Z" fill="white"/>
<path id="Vector_47" d="M99.9538 66.9326H90.0684V69.258H99.9538V66.9326Z" fill="white"/>
<path id="Vector_48" d="M99.9538 71.4443H90.0684V73.7698H99.9538V71.4443Z" fill="white"/>
<path id="Vector_49" d="M99.9538 75.9551H90.0684V78.2805H99.9538V75.9551Z" fill="white"/>
<path id="Vector_50" d="M99.9538 80.2412H90.0684V82.5666H99.9538V80.2412Z" fill="white"/>
<path id="Vector_51" d="M99.9538 84.5283H90.0684V86.8537H99.9538V84.5283Z" fill="white"/>
<path id="Vector_52" d="M99.9538 88.8135H90.0684V91.1389H99.9538V88.8135Z" fill="white"/>
<path id="Vector_53" d="M99.9538 93.0996H90.0684V95.424H99.9538V93.0996Z" fill="white"/>
<path id="Vector_54" d="M99.9538 97.3857H90.0684V99.7101H99.9538V97.3857Z" fill="white"/>
<path id="Vector_55" d="M115.937 49.8262H105.495V52.1506H115.937V49.8262Z" fill="white"/>
<path id="Vector_56" d="M115.937 54.3379H105.495V56.6633H115.937V54.3379Z" fill="white"/>
<path id="Vector_57" d="M115.937 58.8496H105.495V61.175H115.937V58.8496Z" fill="white"/>
<path id="Vector_58" d="M115.937 63.3599H105.495V65.6843H115.937V63.3599Z" fill="white"/>
<path id="Vector_59" d="M115.937 67.8706H105.495V70.195H115.937V67.8706Z" fill="white"/>
<path id="Vector_60" d="M115.937 72.3818H105.495V74.7063H115.937V72.3818Z" fill="white"/>
<path id="Vector_61" d="M115.937 76.8926H105.495V79.217H115.937V76.8926Z" fill="white"/>
<path id="Vector_62" d="M115.937 81.4028H105.495V83.7282H115.937V81.4028Z" fill="white"/>
<path id="Vector_63" d="M115.937 85.4404H105.495V87.7648H115.937V85.4404Z" fill="white"/>
<path id="Vector_64" d="M115.937 89.478H105.495V91.8034H115.937V89.478Z" fill="white"/>
<path id="Vector_65" d="M115.937 93.5161H105.495V95.8405H115.937V93.5161Z" fill="white"/>
<g id="Group_3">
<path id="Vector_66" d="M53.0071 40.9919H49.6868V43.237H53.0071V40.9919Z" fill="white"/>
<path id="Vector_67" d="M53.0071 45.3474H49.6868V47.5925H53.0071V45.3474Z" fill="white"/>
<path id="Vector_68" d="M53.0071 49.7041H49.6868V51.9492H53.0071V49.7041Z" fill="white"/>
<path id="Vector_69" d="M53.0071 54.0605H49.6868V56.3056H53.0071V54.0605Z" fill="white"/>
<path id="Vector_70" d="M53.0071 58.416H49.6868V60.6611H53.0071V58.416Z" fill="white"/>
<path id="Vector_71" d="M53.0071 62.7734H49.6868V65.0185H53.0071V62.7734Z" fill="white"/>
<path id="Vector_72" d="M53.0071 67.1299H49.6868V69.375H53.0071V67.1299Z" fill="white"/>
<path id="Vector_73" d="M53.0071 71.4854H49.6868V73.7304H53.0071V71.4854Z" fill="white"/>
</g>
<g id="Group_4">
<path id="Vector_74" d="M57.5258 40.9919H54.2056V43.237H57.5258V40.9919Z" fill="white"/>
<path id="Vector_75" d="M57.5258 45.3474H54.2056V47.5925H57.5258V45.3474Z" fill="white"/>
<path id="Vector_76" d="M57.5258 49.7041H54.2056V51.9492H57.5258V49.7041Z" fill="white"/>
<path id="Vector_77" d="M57.5258 54.0605H54.2056V56.3056H57.5258V54.0605Z" fill="white"/>
<path id="Vector_78" d="M57.5258 58.416H54.2056V60.6611H57.5258V58.416Z" fill="white"/>
<path id="Vector_79" d="M57.5258 62.7734H54.2056V65.0185H57.5258V62.7734Z" fill="white"/>
<path id="Vector_80" d="M57.5258 67.1299H54.2056V69.375H57.5258V67.1299Z" fill="white"/>
<path id="Vector_81" d="M57.5258 71.4854H54.2056V73.7304H57.5258V71.4854Z" fill="white"/>
</g>
<g id="Group_5">
<path id="Vector_82" d="M31.4033 24.8298H27.9438V28.3702H31.4033V24.8298Z" fill="white"/>
<path id="Vector_83" d="M36.561 24.8298H33.1016V28.3702H36.561V24.8298Z" fill="white"/>
<path id="Vector_84" d="M31.4033 30.0305H27.9438V33.5708H31.4033V30.0305Z" fill="white"/>
<path id="Vector_85" d="M36.561 30.0305H33.1016V33.5708H36.561V30.0305Z" fill="white"/>
<path id="Vector_86" d="M31.4033 35.2324H27.9438V38.7727H31.4033V35.2324Z" fill="white"/>
<path id="Vector_87" d="M36.561 35.2324H33.1016V38.7727H36.561V35.2324Z" fill="white"/>
<path id="Vector_88" d="M31.4033 40.4331H27.9438V43.9734H31.4033V40.4331Z" fill="white"/>
<path id="Vector_89" d="M36.561 40.4331H33.1016V43.9734H36.561V40.4331Z" fill="white"/>
<path id="Vector_90" d="M31.4033 45.6335H27.9438V49.1739H31.4033V45.6335Z" fill="white"/>
<path id="Vector_91" d="M36.561 45.6335H33.1016V49.1739H36.561V45.6335Z" fill="white"/>
<path id="Vector_92" d="M31.4033 50.8354H27.9438V54.3758H31.4033V50.8354Z" fill="white"/>
<path id="Vector_93" d="M36.561 50.8354H33.1016V54.3758H36.561V50.8354Z" fill="white"/>
<path id="Vector_94" d="M31.4033 56.0361H27.9438V59.5764H31.4033V56.0361Z" fill="white"/>
<path id="Vector_95" d="M36.561 56.0361H33.1016V59.5764H36.561V56.0361Z" fill="white"/>
<path id="Vector_96" d="M31.4033 61.2363H27.9438V64.7767H31.4033V61.2363Z" fill="white"/>
<path id="Vector_97" d="M36.561 61.2363H33.1016V64.7767H36.561V61.2363Z" fill="white"/>
</g>
<g id="Group_6">
<path id="Vector_98" d="M42.9529 35.2324H39.4934V38.7727H42.9529V35.2324Z" fill="white"/>
<path id="Vector_99" d="M42.9529 40.4331H39.4934V43.9734H42.9529V40.4331Z" fill="white"/>
<path id="Vector_100" d="M42.9529 45.635H39.4934V49.1753H42.9529V45.635Z" fill="white"/>
<path id="Vector_101" d="M42.9529 50.8357H39.4934V54.376H42.9529V50.8357Z" fill="white"/>
<path id="Vector_102" d="M42.9529 56.0361H39.4934V59.5765H42.9529V56.0361Z" fill="white"/>
<path id="Vector_103" d="M42.9529 61.2383H39.4934V64.7786H42.9529V61.2383Z" fill="white"/>
<path id="Vector_104" d="M31.4033 66.3774H27.9438V69.9177H31.4033V66.3774Z" fill="white"/>
<path id="Vector_105" d="M36.561 66.3774H33.1016V69.9177H36.561V66.3774Z" fill="white"/>
<path id="Vector_106" d="M42.9529 66.3774H39.4934V69.9177H42.9529V66.3774Z" fill="white"/>
<path id="Vector_107" d="M31.4033 71.5166H27.9438V75.0569H31.4033V71.5166Z" fill="white"/>
<path id="Vector_108" d="M36.561 71.5166H33.1016V75.0569H36.561V71.5166Z" fill="white"/>
<path id="Vector_109" d="M42.9529 71.5166H39.4934V75.0569H42.9529V71.5166Z" fill="white"/>
<path id="Vector_110" d="M31.4033 76.6558H27.9438V80.1961H31.4033V76.6558Z" fill="white"/>
<path id="Vector_111" d="M36.561 76.6558H33.1016V80.1961H36.561V76.6558Z" fill="white"/>
<path id="Vector_112" d="M42.9529 76.6558H39.4934V80.1961H42.9529V76.6558Z" fill="white"/>
<path id="Vector_113" d="M31.4033 81.7949H27.9438V85.3352H31.4033V81.7949Z" fill="white"/>
<path id="Vector_114" d="M36.561 81.7949H33.1016V85.3352H36.561V81.7949Z" fill="white"/>
<path id="Vector_115" d="M42.9529 81.7949H39.4934V85.3352H42.9529V81.7949Z" fill="white"/>
<path id="Vector_116" d="M31.4033 86.9351H27.9438V90.4754H31.4033V86.9351Z" fill="white"/>
<path id="Vector_117" d="M36.561 86.9351H33.1016V90.4754H36.561V86.9351Z" fill="white"/>
<path id="Vector_118" d="M42.9529 86.9351H39.4934V90.4754H42.9529V86.9351Z" fill="white"/>
</g>
<path id="Vector_119" d="M74.1979 29.8838H72.3301V32.9853H74.1979V29.8838Z" fill="white"/>
<path id="Vector_120" d="M77.4352 29.8838H75.5674V32.9853H77.4352V29.8838Z" fill="white"/>
<path id="Vector_121" d="M74.1979 34.5498H72.3301V37.6513H74.1979V34.5498Z" fill="white"/>
<path id="Vector_122" d="M77.4352 34.5498H75.5674V37.6513H77.4352V34.5498Z" fill="white"/>
<path id="Vector_123" d="M74.1979 39.2153H72.3301V42.3169H74.1979V39.2153Z" fill="white"/>
<path id="Vector_124" d="M77.4352 39.2153H75.5674V42.3169H77.4352V39.2153Z" fill="white"/>
<path id="Vector_125" d="M74.1979 43.8818H72.3301V46.9834H74.1979V43.8818Z" fill="white"/>
<path id="Vector_126" d="M77.4352 43.8818H75.5674V46.9834H77.4352V43.8818Z" fill="white"/>
<path id="Vector_127" d="M74.1979 48.6638H72.3301V51.7654H74.1979V48.6638Z" fill="white"/>
<path id="Vector_128" d="M77.4352 48.6638H75.5674V51.7654H77.4352V48.6638Z" fill="white"/>
<path id="Vector_129" d="M74.1979 53.4458H72.3301V56.5473H74.1979V53.4458Z" fill="white"/>
<path id="Vector_130" d="M77.4352 53.4458H75.5674V56.5473H77.4352V53.4458Z" fill="white"/>
<path id="Vector_131" d="M74.1979 58.228H72.3301V61.3296H74.1979V58.228Z" fill="white"/>
<path id="Vector_132" d="M77.4352 58.228H75.5674V61.3296H77.4352V58.228Z" fill="white"/>
<path id="Vector_133" d="M74.1979 63.0098H72.3301V66.1113H74.1979V63.0098Z" fill="white"/>
<path id="Vector_134" d="M77.4352 63.0098H75.5674V66.1113H77.4352V63.0098Z" fill="white"/>
<path id="Vector_135" d="M74.1979 67.8428H72.3301V70.9443H74.1979V67.8428Z" fill="white"/>
<path id="Vector_136" d="M77.4352 67.8428H75.5674V70.9443H77.4352V67.8428Z" fill="white"/>
<path id="Vector_137" d="M74.1979 72.6748H72.3301V75.7764H74.1979V72.6748Z" fill="white"/>
<path id="Vector_138" d="M77.4352 72.6748H75.5674V75.7764H77.4352V72.6748Z" fill="white"/>
<path id="Vector_139" d="M74.1979 77.5073H72.3301V80.6089H74.1979V77.5073Z" fill="white"/>
<path id="Vector_140" d="M77.4352 77.5073H75.5674V80.6089H77.4352V77.5073Z" fill="white"/>
<path id="Vector_141" d="M74.1979 82.3398H72.3301V85.4414H74.1979V82.3398Z" fill="white"/>
<path id="Vector_142" d="M77.4352 82.3398H75.5674V85.4414H77.4352V82.3398Z" fill="white"/>
<path id="Vector_143" d="M119.806 30.3879H117.938V34.0417H119.806V30.3879Z" fill="white"/>
<path id="Vector_144" d="M123.043 30.3879H121.176V34.0417H123.043V30.3879Z" fill="white"/>
<path id="Vector_145" d="M119.806 35.8857H117.938V39.5395H119.806V35.8857Z" fill="white"/>
<path id="Vector_146" d="M123.043 35.8857H121.176V39.5395H123.043V35.8857Z" fill="white"/>
<path id="Vector_147" d="M119.806 41.3821H117.938V45.0359H119.806V41.3821Z" fill="white"/>
<path id="Vector_148" d="M123.043 41.3821H121.176V45.0359H123.043V41.3821Z" fill="white"/>
<path id="Vector_149" d="M119.806 46.8796H117.938V50.5334H119.806V46.8796Z" fill="white"/>
<path id="Vector_150" d="M123.043 46.8796H121.176V50.5334H123.043V46.8796Z" fill="white"/>
<path id="Vector_151" d="M119.806 52.5132H117.938V56.167H119.806V52.5132Z" fill="white"/>
<path id="Vector_152" d="M123.043 52.5132H121.176V56.167H123.043V52.5132Z" fill="white"/>
<path id="Vector_153" d="M119.806 58.147H117.938V61.8007H119.806V58.147Z" fill="white"/>
<path id="Vector_154" d="M123.043 58.147H121.176V61.8007H123.043V58.147Z" fill="white"/>
<path id="Vector_155" d="M119.806 63.7798H117.938V67.4336H119.806V63.7798Z" fill="white"/>
<path id="Vector_156" d="M123.043 63.7798H121.176V67.4336H123.043V63.7798Z" fill="white"/>
<path id="Vector_157" d="M119.806 69.4136H117.938V73.0673H119.806V69.4136Z" fill="white"/>
<path id="Vector_158" d="M123.043 69.4136H121.176V73.0673H123.043V69.4136Z" fill="white"/>
<path id="Vector_159" d="M119.806 75.1064H117.938V78.7602H119.806V75.1064Z" fill="white"/>
<path id="Vector_160" d="M123.043 75.1064H121.176V78.7602H123.043V75.1064Z" fill="white"/>
<path id="Vector_161" d="M119.806 80.8008H117.938V84.4545H119.806V80.8008Z" fill="white"/>
<path id="Vector_162" d="M123.043 80.8008H121.176V84.4545H123.043V80.8008Z" fill="white"/>
<path id="Vector_163" d="M119.806 86.4941H117.938V90.1479H119.806V86.4941Z" fill="white"/>
<path id="Vector_164" d="M123.043 86.4941H121.176V90.1479H123.043V86.4941Z" fill="white"/>
<path id="Vector_165" d="M119.806 92.1865H117.938V95.8403H119.806V92.1865Z" fill="white"/>
<path id="Vector_166" d="M123.043 92.1865H121.176V95.8403H123.043V92.1865Z" fill="white"/>
<path id="Vector_167" d="M81.12 29.8838H79.2522V32.9853H81.12V29.8838Z" fill="white"/>
<path id="Vector_168" d="M84.3583 29.8838H82.4905V32.9853H84.3583V29.8838Z" fill="white"/>
<path id="Vector_169" d="M81.12 25.0989H79.2522V28.2004H81.12V25.0989Z" fill="white"/>
<path id="Vector_170" d="M84.3583 25.0989H82.4905V28.2004H84.3583V25.0989Z" fill="white"/>
<path id="Vector_171" d="M81.12 20.3152H79.2522V23.4167H81.12V20.3152Z" fill="white"/>
<path id="Vector_172" d="M84.3583 20.3152H82.4905V23.4167H84.3583V20.3152Z" fill="white"/>
<path id="Vector_173" d="M81.12 34.5498H79.2522V37.6513H81.12V34.5498Z" fill="white"/>
<path id="Vector_174" d="M84.3583 34.5498H82.4905V37.6513H84.3583V34.5498Z" fill="white"/>
<path id="Vector_175" d="M81.12 39.2153H79.2522V42.3169H81.12V39.2153Z" fill="white"/>
<path id="Vector_176" d="M84.3583 39.2153H82.4905V42.3169H84.3583V39.2153Z" fill="white"/>
<path id="Vector_177" d="M81.12 43.8818H79.2522V46.9834H81.12V43.8818Z" fill="white"/>
<path id="Vector_178" d="M84.3583 43.8818H82.4905V46.9834H84.3583V43.8818Z" fill="white"/>
<path id="Vector_179" d="M81.12 48.6638H79.2522V51.7654H81.12V48.6638Z" fill="white"/>
<path id="Vector_180" d="M84.3583 48.6638H82.4905V51.7654H84.3583V48.6638Z" fill="white"/>
<path id="Vector_181" d="M81.12 53.4458H79.2522V56.5473H81.12V53.4458Z" fill="white"/>
<path id="Vector_182" d="M84.3583 53.4458H82.4905V56.5473H84.3583V53.4458Z" fill="white"/>
<path id="Vector_183" d="M81.12 58.228H79.2522V61.3296H81.12V58.228Z" fill="white"/>
<path id="Vector_184" d="M84.3583 58.228H82.4905V61.3296H84.3583V58.228Z" fill="white"/>
<path id="Vector_185" d="M81.12 63.0098H79.2522V66.1113H81.12V63.0098Z" fill="white"/>
<path id="Vector_186" d="M84.3583 63.0098H82.4905V66.1113H84.3583V63.0098Z" fill="white"/>
<path id="Vector_187" d="M81.12 67.8428H79.2522V70.9443H81.12V67.8428Z" fill="white"/>
<path id="Vector_188" d="M84.3583 67.8428H82.4905V70.9443H84.3583V67.8428Z" fill="white"/>
<path id="Vector_189" d="M81.12 72.6748H79.2522V75.7764H81.12V72.6748Z" fill="white"/>
<path id="Vector_190" d="M84.3583 72.6748H82.4905V75.7764H84.3583V72.6748Z" fill="white"/>
<path id="Vector_191" d="M81.12 77.5073H79.2522V80.6089H81.12V77.5073Z" fill="white"/>
<path id="Vector_192" d="M84.3583 77.5073H82.4905V80.6089H84.3583V77.5073Z" fill="white"/>
<path id="Vector_193" d="M81.12 82.3403H79.2522V85.4419H81.12V82.3403Z" fill="white"/>
<path id="Vector_194" d="M84.3583 82.3403H82.4905V85.4419H84.3583V82.3403Z" fill="white"/>
</g>
</g>
<g id="Smart_destinations_projec_2_">
<path id="Vector_195" d="M93.4901 35.3508C89.481 35.3508 86.231 38.5826 86.231 42.5692C86.231 46.5559 93.4901 55.3534 93.4901 55.3534C93.4901 55.3534 100.749 46.5559 100.749 42.5692C100.749 38.5826 97.4993 35.3508 93.4901 35.3508ZM93.4901 47.5084C90.7469 47.5084 88.5231 45.2971 88.5231 42.5692C88.5231 39.8414 90.7469 37.6301 93.4901 37.6301C96.2334 37.6301 98.4572 39.8414 98.4572 42.5692C98.4572 45.2971 96.2334 47.5084 93.4901 47.5084Z" fill="#FFA726"/>
<path id="Vector_196" d="M93.4907 61.3539C94.8638 61.3539 95.977 60.247 95.977 58.8815C95.977 57.5161 94.8638 56.4092 93.4907 56.4092C92.1175 56.4092 91.0044 57.5161 91.0044 58.8815C91.0044 60.247 92.1175 61.3539 93.4907 61.3539Z" fill="#FFA726"/>
<g id="Group_7">
<g id="Group_8">
<g id="Group_9">
<path id="Vector_197" d="M22.557 104.087H15.0057L13.4209 84.1919H22.8211L22.557 104.087Z" fill="#FFD5CF"/>
<g id="Group_10">
<path id="Vector_198" d="M27.8892 106.672H14.7231V100.683H25.5158C26.8266 100.683 27.8892 101.739 27.8892 103.043V106.672H27.8892Z" fill="#64B5F6"/>
<path id="Vector_199" d="M21.7694 101.935C21.7541 101.935 21.7387 101.93 21.727 101.918C21.7036 101.895 21.7036 101.857 21.727 101.834L22.8887 100.679C22.9121 100.655 22.95 100.655 22.9734 100.679C22.9968 100.702 22.9968 100.74 22.9734 100.763L21.8117 101.918C21.8001 101.93 21.7847 101.935 21.7694 101.935Z" fill="#363E44"/>
<path id="Vector_200" d="M23.0899 102.33C23.0746 102.33 23.0593 102.324 23.0476 102.312C23.0242 102.289 23.0242 102.251 23.0476 102.228L24.2093 101.073C24.2327 101.049 24.2706 101.049 24.294 101.073C24.3174 101.096 24.3174 101.134 24.294 101.157L23.1323 102.312C23.1206 102.324 23.1052 102.33 23.0899 102.33Z" fill="#363E44"/>
</g>
</g>
<g id="Group_11">
<path id="Vector_201" d="M41.4093 101.598L34.1079 102.877L29.7681 85.8805L39.0333 84.3027L41.4093 101.598Z" fill="#FFD5CF"/>
<g id="Group_12">
<path id="Vector_202" d="M46.7024 106.673H33.5364V100.683H44.3289C45.6398 100.683 46.7024 101.74 46.7024 103.043V106.673Z" fill="#64B5F6"/>
<path id="Vector_203" d="M40.5826 101.936C40.5673 101.936 40.552 101.93 40.5403 101.919C40.5168 101.895 40.5168 101.858 40.5403 101.834L41.702 100.679C41.7254 100.656 41.7633 100.656 41.7867 100.679C41.8101 100.702 41.8101 100.74 41.7867 100.763L40.625 101.919C40.6132 101.93 40.598 101.936 40.5826 101.936Z" fill="#363E44"/>
<path id="Vector_204" d="M41.9032 102.33C41.8878 102.33 41.8725 102.324 41.8608 102.313C41.8374 102.289 41.8374 102.252 41.8608 102.228L43.0226 101.073C43.046 101.05 43.0838 101.05 43.1073 101.073C43.1307 101.096 43.1307 101.134 43.1073 101.157L41.9455 102.313C41.9338 102.324 41.9185 102.33 41.9032 102.33Z" fill="#363E44"/>
</g>
</g>
<path id="Vector_205" d="M13.9128 51.605C11.9648 56.7697 10.9129 62.9431 10.7607 68.7208C10.6431 73.1851 11.927 83.0964 13.4825 98.2141C16.7097 98.2141 19.937 98.2141 23.1642 98.2141C23.4651 90.2134 22.7096 78.2729 23.0105 70.2721C25.549 78.2301 30.6531 92.509 32.8713 98.0857C36.3137 98.0857 37.5108 98.0857 40.9532 98.0857C40.5024 90.6576 40.2135 82.3132 38.5171 77.153C37.5269 74.1409 31.8729 56.5976 29.1011 51.2366C23.3694 51.336 19.0669 51.5714 13.9128 51.605Z" fill="#363E44"/>
</g>
<g id="Group_13">
<path id="Vector_206" d="M3.92131 49.0523C3.06044 43.2101 10.5089 35.4629 21.6166 34.9301C27.4657 34.6495 35.7356 39.1829 35.7356 39.1829L37.7307 34.3967L47.3697 42.2468C47.3697 42.2468 40.2822 47.0819 37.7307 47.9339C35.3838 48.7175 30.3657 44.7694 30.3657 44.7694L31.199 53.6427L10.5761 51.6629L12.1385 45.2095L16.7664 45.8278L11.9382 58.4517C11.9382 58.4517 4.43225 52.5197 3.92131 49.0523Z" fill="#FFA726"/>
</g>
<g id="Group_14">
<path id="Vector_207" d="M37.7307 34.3967C37.7307 34.3967 38.3395 32.7955 38.5013 32.4002C38.5553 32.2681 38.6497 32.0344 38.8505 31.7751C39.5945 30.8144 40.6077 31.0413 41.8537 30.3861C43.2674 29.6427 43.6402 28.4282 44.0188 28.5804C44.2822 28.6863 44.2713 29.1838 43.8792 30.1079C43.8792 30.108 43.8793 30.1081 43.8793 30.108C44.2583 29.4399 44.8122 28.5563 45.1828 28.7656C45.5978 29.0301 45.0697 30.1443 44.7172 30.8028C45.144 30.0058 45.6107 29.7089 45.7881 29.8768C46.0674 30.1412 45.8812 30.8359 45.276 31.8676L45.2761 31.8676C45.894 31.2714 46.1333 31.2183 46.2537 31.4048C46.4736 31.7452 45.96 32.5841 45.3917 33.2565C44.7519 34.0134 43.9917 34.3798 43.5067 34.5994C43.5066 34.5994 43.5065 34.5996 43.5065 34.5997C43.1311 35.9441 42.4922 38.2462 42.4922 38.2462L37.7307 34.3967Z" fill="#FFD5CF"/>
<path id="Vector_208" d="M35.0233 41.5344C35.0174 41.5344 35.0115 41.5336 35.0056 41.5317C34.974 41.522 34.9563 41.4887 34.9661 41.4572C35.102 41.02 35.2035 40.6733 35.2931 40.3675C35.4361 39.879 35.5394 39.5262 35.6798 39.1618C35.6917 39.1311 35.7264 39.1157 35.7571 39.1275C35.7881 39.1393 35.8035 39.1737 35.7916 39.2044C35.653 39.5643 35.5503 39.9151 35.4081 40.4008C35.3184 40.7071 35.2167 41.0543 35.0805 41.4925C35.0725 41.518 35.0488 41.5344 35.0233 41.5344Z" fill="#363E44"/>
<path id="Vector_209" d="M40.8521 31.2518C41.3351 29.7533 41.19 29.1111 40.9488 29.0426C40.5431 28.9273 39.6041 30.0388 38.6208 32.1403C39.2648 31.9481 40.2082 31.4439 40.8521 31.2518Z" fill="#FFD5CF"/>
<path id="Vector_210" d="M41.0643 33.9243C41.0583 33.9243 41.0521 33.9234 41.0461 33.9215C41.0146 33.9115 40.9972 33.878 41.0072 33.8466C41.0951 33.5726 41.2837 33.1787 41.6835 32.8578C42.249 32.4039 42.8869 32.3884 43.1349 32.4029C43.1679 32.4048 43.1931 32.433 43.1912 32.4658C43.1892 32.4987 43.1622 32.5239 43.1278 32.5218C42.8939 32.5082 42.2917 32.5227 41.7587 32.9506C41.3821 33.2529 41.2042 33.6244 41.1213 33.8829C41.1132 33.9081 41.0896 33.9243 41.0643 33.9243Z" fill="#363E44"/>
<path id="Vector_211" d="M39.4902 31.346C39.469 31.346 39.4485 31.3348 39.4376 31.315C39.4216 31.2862 39.4323 31.2499 39.4614 31.2341C39.771 31.0655 40.1129 30.9745 40.475 30.8781C40.6434 30.8332 40.8175 30.7869 40.9975 30.7305C41.029 30.7207 41.0626 30.7381 41.0726 30.7695C41.0825 30.8009 41.065 30.8343 41.0334 30.8442C40.851 30.9013 40.6756 30.948 40.5059 30.9932C40.1511 31.0876 39.8158 31.1769 39.519 31.3386C39.5098 31.3436 39.4999 31.346 39.4902 31.346Z" fill="#363E44"/>
<path id="Vector_212" d="M42.8095 31.1259C42.7888 31.1259 42.7687 31.1153 42.7577 31.0963C42.741 31.0678 42.7507 31.0314 42.7793 31.0149C42.9427 30.9204 43.0978 30.8105 43.2403 30.6883C43.4473 30.5108 43.6301 30.3058 43.7835 30.079C43.8021 30.0517 43.8393 30.0446 43.8667 30.0629C43.8942 30.0812 43.9014 30.1183 43.883 30.1456C43.7235 30.3812 43.5336 30.5941 43.3185 30.7785C43.1704 30.9056 43.0092 31.0198 42.8395 31.1179C42.8301 31.1233 42.8197 31.1259 42.8095 31.1259Z" fill="#363E44"/>
<path id="Vector_213" d="M43.6994 31.7156C43.6787 31.7156 43.6586 31.705 43.6475 31.6859C43.6309 31.6575 43.6406 31.621 43.6692 31.6045C43.8326 31.51 43.9877 31.4001 44.1302 31.2779C44.3372 31.1005 44.5199 30.8955 44.6735 30.6686C44.692 30.6413 44.7292 30.6342 44.7566 30.6525C44.7841 30.6708 44.7913 30.7079 44.7729 30.7352C44.6133 30.9709 44.4234 31.1839 44.2084 31.3682C44.0603 31.4953 43.8991 31.6094 43.7294 31.7075C43.72 31.713 43.7096 31.7156 43.6994 31.7156Z" fill="#363E44"/>
<path id="Vector_214" d="M44.2328 32.895C44.2121 32.895 44.1921 32.8844 44.181 32.8654C44.1643 32.8369 44.174 32.8005 44.2026 32.784C44.366 32.6895 44.5211 32.5797 44.6637 32.4574C44.8708 32.2798 45.0536 32.0749 45.2069 31.8481C45.2255 31.8208 45.2626 31.8136 45.2901 31.8319C45.3175 31.8502 45.3248 31.8873 45.3063 31.9146C45.147 32.1501 44.9571 32.3631 44.742 32.5476C44.5937 32.6747 44.4325 32.7888 44.2628 32.887C44.2534 32.8924 44.2431 32.895 44.2328 32.895Z" fill="#363E44"/>
</g>
<g id="Group_15">
<path id="Vector_215" d="M26.8487 31.3699C26.4615 30.8629 26.3913 30.328 26.3754 30.0863C26.5459 30.2975 26.9758 30.7712 27.7092 31.0276C27.9663 31.1175 28.2084 31.1616 28.4249 31.1809C29.0447 30.4026 29.336 29.6577 29.4431 29.3553C27.8245 29.7372 27.2006 29.4642 26.9296 29.1453C26.4966 28.6357 26.9448 27.9848 26.4638 27.4364C25.881 26.7721 24.8689 27.324 24.2598 26.6332C23.848 26.1662 23.8474 25.2253 23.5324 24.6901C23.2433 24.1989 22.7939 24.2267 20.8616 24.2803C21.0695 27.2137 21.2772 30.1471 21.4851 33.0804C21.8434 33.208 24.3318 34.0473 26.7597 32.6285C27.0828 32.4397 27.3679 32.2308 27.6225 32.013C27.354 31.8739 27.0787 31.6709 26.8487 31.3699Z" fill="#363E44"/>
<path id="Vector_216" d="M19.8713 25.0338C20.0184 24.9564 21.4391 24.2369 22.7371 24.8751C23.703 25.3499 24.1761 26.2723 24.7344 27.9387C25.3918 29.9011 25.5091 31.1655 25.112 31.7679C24.4845 32.7196 21.3182 32.4558 19.6463 31.1904C18.4394 30.277 17.8808 28.6943 18.1403 27.1976C18.399 25.7051 19.7773 25.0831 19.8713 25.0338Z" fill="#FFD5CF"/>
<path id="Vector_217" d="M22.8112 37.8842H20.5807C20.1802 37.8842 19.8555 37.5614 19.8555 37.1631V29.6474C19.8555 29.2492 20.1801 28.9263 20.5807 28.9263H22.8112C23.2117 28.9263 23.5364 29.2491 23.5364 29.6474V37.1631C23.5364 37.5614 23.2117 37.8842 22.8112 37.8842Z" fill="#FFD5CF"/>
<path id="Vector_218" d="M23.5713 32.5291C22.2979 32.5291 20.5814 31.9732 19.61 31.238C19.5837 31.2181 19.5787 31.1807 19.5987 31.1546C19.6187 31.1284 19.6563 31.1233 19.6826 31.1433C20.6356 31.8646 22.3202 32.41 23.5702 32.41C23.6059 32.41 23.6412 32.4096 23.6763 32.4086C23.7086 32.4076 23.7369 32.4338 23.7377 32.4666C23.7385 32.4995 23.7124 32.5269 23.6793 32.5278C23.6438 32.5286 23.6077 32.5291 23.5713 32.5291Z" fill="#363E44"/>
<g id="Group_16">
<path id="Vector_219" d="M21.1826 28.5311C21.1826 28.5311 21.642 28.1611 22.2587 28.0448C22.3899 28.0201 22.3414 29.1108 22.2056 29.0752C21.6084 28.9185 21.1826 28.5311 21.1826 28.5311Z" fill="white"/>
<path id="Vector_220" d="M22.6707 28.0113C22.5284 28.007 22.3907 28.0209 22.2597 28.0456C22.0567 28.3658 22.0471 28.7553 22.2051 29.075C22.341 29.1107 22.4859 29.1347 22.6366 29.1392C23.4491 29.1635 24.1248 28.6192 24.1248 28.6192C24.1248 28.6192 23.4832 28.0355 22.6707 28.0113Z" fill="#373E44"/>
</g>
<path id="Vector_221" d="M23.9877 30.5076C23.9295 30.5076 23.8713 30.4964 23.8165 30.473C23.5831 30.3739 23.5471 30.1155 23.5457 30.1045C23.5415 30.0719 23.5646 30.0421 23.5973 30.0379C23.63 30.0336 23.6602 30.0566 23.6645 30.0893C23.6647 30.0913 23.6928 30.2909 23.8635 30.3635C23.9996 30.4213 24.1645 30.3767 24.2647 30.2552C24.2858 30.2298 24.3234 30.226 24.3491 30.2469C24.3747 30.2678 24.3783 30.3053 24.3574 30.3307C24.2632 30.4448 24.1254 30.5076 23.9877 30.5076Z" fill="#363E44"/>
<path id="Vector_222" d="M24.9255 29.392C24.9118 29.392 24.8979 29.3873 24.8867 29.3777C24.8615 29.3564 24.8585 29.3188 24.88 29.2938C25.0063 29.1465 25.0582 29.0299 25.03 28.9566C25.0159 28.9198 24.9852 28.9006 24.9227 28.8641C24.872 28.8345 24.809 28.7977 24.7418 28.7346C24.6424 28.6417 24.5674 28.523 24.5189 28.3819C24.5081 28.3507 24.5249 28.3169 24.5561 28.3062C24.5875 28.2955 24.6215 28.3122 24.6323 28.3433C24.6744 28.4658 24.7389 28.5683 24.8239 28.6479C24.8813 28.7017 24.9355 28.7334 24.9833 28.7613C25.0496 28.8 25.1121 28.8366 25.1419 28.9141C25.188 29.0339 25.1321 29.1834 24.9711 29.3711C24.9592 29.3849 24.9424 29.392 24.9255 29.392Z" fill="#363E44"/>
<path id="Vector_223" d="M23.1105 23.8712C21.7446 23.4826 20.7278 24.2701 20.653 24.3347C19.4699 23.9924 18.3296 24.0993 17.8277 24.6128C16.8797 25.5823 17.3542 26.6529 16.7951 27.6363C16.3074 28.4938 15.3895 28.1755 14.9879 29.0577C14.662 29.7737 15.0453 30.7207 14.7297 31.4177C14.4104 32.1233 13.8118 32.272 13.0374 32.4719C13.3885 32.9933 14.0496 33.5086 14.7808 33.9146C15.0074 33.8208 15.3099 33.6522 15.5776 33.345C16.0157 32.8419 16.0803 32.288 16.0939 32.1035C16.1723 32.2621 16.3923 32.7582 16.2598 33.3795C16.1651 33.8235 15.9302 34.1441 15.7141 34.3577C16.1819 34.5431 16.6381 34.6692 17.0244 34.7101C18.4395 34.8596 19.8494 35.0059 21.291 33.9962C19.5966 33.0767 20.4201 32.2721 20.3661 31.3221C20.3131 30.3886 19.6796 30.2949 19.8037 29.3005C19.8777 28.7074 20.7716 28.8628 20.5669 26.7949C20.7246 27.0659 20.8825 27.3369 21.0402 27.6078C21.4945 27.5623 22.1208 27.4452 22.8043 27.1372C22.8629 27.1108 22.9196 27.0833 22.9759 27.0555C22.9994 26.875 23.0013 26.6344 22.919 26.3671C22.7684 25.8778 22.432 25.6097 22.3167 25.5256C22.4525 25.5396 22.8675 25.5997 23.2203 25.9392C23.4656 26.1754 23.5804 26.4498 23.6339 26.6738C24.3076 26.2191 24.7506 25.7087 24.9987 25.383C24.9799 25.3127 24.5391 24.2777 23.1105 23.8712Z" fill="#363E44"/>
<g id="Group_17">
<path id="Vector_224" d="M21.041 28.8007C21.5758 29.2848 21.6757 30.0416 21.2643 30.4911C20.8528 30.9405 20.0857 30.9125 19.551 30.4284C19.0162 29.9443 18.9163 29.1875 19.3278 28.7381C19.7392 28.2886 20.5062 28.3166 21.041 28.8007Z" fill="#FFD5CF"/>
<path id="Vector_225" d="M20.0243 30.1691C20.0133 30.1691 20.0022 30.1661 19.9922 30.1598C19.9518 30.1342 19.9131 30.1047 19.8772 30.0722C19.7353 29.9438 19.6443 29.776 19.6211 29.5998C19.5973 29.4199 19.6466 29.2528 19.7598 29.1291C19.8173 29.0663 19.8875 29.0187 19.9685 28.9876C19.9996 28.9758 20.0341 28.991 20.0459 29.0218C20.0579 29.0524 20.0425 29.0869 20.0117 29.0988C19.9482 29.1231 19.8932 29.1603 19.8483 29.2093C19.7593 29.3065 19.7207 29.4397 19.7398 29.5843C19.7594 29.7326 19.8368 29.8746 19.9578 29.9841C19.9887 30.012 20.0219 30.0373 20.0565 30.0592C20.0844 30.0769 20.0926 30.1137 20.0749 30.1415C20.0634 30.1594 20.0441 30.1691 20.0243 30.1691Z" fill="#363E44"/>
</g>
</g>
<g id="Group_18">
<g id="Group_19">
<path id="Vector_226" d="M21.7671 50.1302C21.7564 50.1302 21.7457 50.1273 21.7359 50.1214C21.7077 50.1042 21.6988 50.0676 21.7161 50.0395L22.8006 48.2794C22.8178 48.2514 22.8547 48.2426 22.883 48.2598C22.9112 48.277 22.92 48.3136 22.9027 48.3417L21.8183 50.1017C21.8069 50.12 21.7873 50.1302 21.7671 50.1302Z" fill="#363E44"/>
<path id="Vector_227" d="M21.1541 49.7537C21.1434 49.7537 21.1326 49.7508 21.1229 49.7449C21.0946 49.7277 21.0858 49.6911 21.1031 49.663L22.1876 47.903C22.2048 47.875 22.2416 47.8661 22.2699 47.8833C22.2981 47.9005 22.307 47.9371 22.2897 47.9652L21.2052 49.7253C21.1939 49.7436 21.1742 49.7537 21.1541 49.7537Z" fill="#363E44"/>
<path id="Vector_228" d="M19.2969 54.3185C19.0974 54.3185 18.8956 54.2647 18.7145 54.1516C18.4658 53.9965 18.2927 53.7542 18.2271 53.4696C18.1616 53.185 18.2115 52.892 18.3676 52.6447L21.6266 47.4796C21.699 47.3648 21.8121 47.2849 21.945 47.2547C22.0778 47.2245 22.2147 47.2474 22.3302 47.3195L23.3278 47.9419C23.4433 48.014 23.5237 48.1264 23.554 48.2585C23.5845 48.3907 23.5613 48.5267 23.4888 48.6415L20.2298 53.8066C20.0214 54.1371 19.6629 54.3185 19.2969 54.3185ZM22.0597 47.3609C22.0304 47.3609 22.001 47.3641 21.9717 47.3708C21.87 47.394 21.7835 47.4551 21.7281 47.543L18.469 52.7081C18.33 52.9285 18.2856 53.1895 18.344 53.4431C18.4024 53.6966 18.5565 53.9124 18.7782 54.0507C19.2356 54.3361 19.8413 54.1982 20.1284 53.7433L23.3874 48.5782C23.4429 48.4904 23.4606 48.3862 23.4373 48.2851C23.414 48.184 23.3525 48.0979 23.2641 48.0428L22.2665 47.4204C22.2036 47.3811 22.1322 47.3609 22.0597 47.3609Z" fill="#363E44"/>
<path id="Vector_229" d="M23.3131 48.0789L22.2124 47.3922L22.2443 47.3417L25.9854 41.4126L27.0861 42.0993L27.0542 42.1497L23.3131 48.0789ZM22.3776 47.3546L23.2753 47.9147L26.9209 42.1369L26.0232 41.5768L22.3776 47.3546Z" fill="#363E44"/>
</g>
<g id="Group_20">
<path id="Vector_230" opacity="0.6" d="M32.8284 43.8802C35.4374 41.286 35.4374 37.0798 32.8284 34.4855C30.2195 31.8912 25.9896 31.8912 23.3806 34.4855C20.7717 37.0798 20.7717 41.2859 23.3806 43.8802C25.9896 46.4745 30.2195 46.4745 32.8284 43.8802Z" fill="#FFA726"/>
<path id="Vector_231" d="M28.0975 45.8857C27.2808 45.8857 26.4513 45.7371 25.6461 45.4234C24.0366 44.7962 22.7447 43.5948 22.0083 42.0406C21.2095 40.3549 21.1461 38.4714 21.8295 36.7372C23.1857 33.296 27.1043 31.5936 30.5648 32.942C34.0253 34.2904 35.7374 38.1871 34.3813 41.6282C33.3408 44.2687 30.791 45.8855 28.0975 45.8857ZM28.1133 32.5989C25.4675 32.5989 22.9633 34.1869 21.9411 36.7806C21.2698 38.484 21.3322 40.334 22.1167 41.9898C22.84 43.5164 24.109 44.6964 25.6899 45.3125C26.4805 45.6205 27.2957 45.7665 28.0976 45.7665C30.7435 45.7666 33.2476 44.1785 34.2699 41.5847C35.6018 38.2048 33.9201 34.3775 30.5211 33.0529C29.7305 32.7449 28.9153 32.5989 28.1133 32.5989Z" fill="white"/>
<path id="Vector_232" d="M28.1045 44.2393C27.4742 44.2393 26.8548 44.1221 26.2575 43.8894C25.1753 43.4677 24.2961 42.7171 23.7151 41.7188C23.6985 41.6903 23.7083 41.6539 23.7369 41.6374C23.7656 41.6209 23.8021 41.6307 23.8187 41.6592C24.386 42.6339 25.2444 43.3667 26.3012 43.7785C27.0177 44.0578 27.7673 44.1666 28.528 44.1022C28.5617 44.0994 28.5899 44.1237 28.5927 44.1566C28.5956 44.1893 28.5711 44.2182 28.5382 44.221C28.3932 44.2332 28.2485 44.2393 28.1045 44.2393Z" fill="white"/>
<path id="Vector_233" d="M33.1051 39.7774C33.103 39.7774 33.1008 39.7773 33.0986 39.777C33.0657 39.7735 33.042 39.7441 33.0455 39.7114C33.1439 38.8035 32.9854 37.8854 32.5869 37.0564C32.5727 37.0268 32.5853 36.9912 32.6151 36.977C32.645 36.9628 32.6807 36.9754 32.695 37.0051C33.1031 37.854 33.2655 38.7942 33.1646 39.7242C33.1612 39.7547 33.1354 39.7774 33.1051 39.7774Z" fill="white"/>
<path id="Vector_234" d="M32.1642 36.2964C32.1457 36.2964 32.1275 36.288 32.1158 36.272C31.5608 35.5161 30.802 34.9352 29.9213 34.592C29.24 34.3265 28.5272 34.2149 27.8024 34.2603C27.7689 34.2622 27.741 34.2375 27.7389 34.2046C27.7368 34.1718 27.7619 34.1435 27.795 34.1414C28.5374 34.0949 29.2673 34.2092 29.9651 34.4811C30.8669 34.8326 31.6441 35.4276 32.2125 36.2018C32.232 36.2283 32.2262 36.2656 32.1995 36.285C32.1889 36.2927 32.1765 36.2964 32.1642 36.2964Z" fill="white"/>
<path id="Vector_235" d="M23.4838 41.182C23.4605 41.182 23.4382 41.1683 23.4286 41.1455C23.1456 40.4773 23.0084 39.7429 23.0319 39.0218C23.0329 38.9895 23.0595 38.9641 23.0917 38.9641C23.0924 38.9641 23.093 38.9641 23.0936 38.9641C23.1267 38.9652 23.1526 38.9927 23.1516 39.0256C23.1287 39.7297 23.2627 40.4467 23.539 41.0992C23.5519 41.1296 23.5376 41.1645 23.5071 41.1773C23.4995 41.1805 23.4916 41.182 23.4838 41.182Z" fill="white"/>
</g>
</g>
<g id="Group_21">
<path id="Vector_236" d="M16.7704 46.7427C16.7704 46.7427 24.106 48.4234 23.9934 49.3324C23.9396 49.7668 22.7368 49.5425 22.3323 49.4549C22.6238 49.6858 23.2397 50.1162 23.0545 50.5709C22.8368 51.1051 21.8474 50.7486 21.8159 50.7533C22.1358 50.9579 22.6209 51.3805 22.4954 51.7268C22.332 52.1773 21.7239 52.1708 21.3003 52.047C21.3277 52.1175 21.8078 52.5889 21.6962 52.8606C21.5727 53.1616 21.0378 53.2165 20.4953 53.1499C19.4668 52.9385 14.5432 52.0288 14.5432 52.0288L16.7704 46.7427Z" fill="#FFD5CF"/>
<path id="Vector_237" d="M16.7706 46.8024C16.7671 46.8024 16.7635 46.8021 16.7598 46.8014C15.4257 46.5598 7.94415 45.157 7.07148 44.9783C7.03907 44.9717 7.01823 44.9401 7.02494 44.9079C7.03159 44.8757 7.06291 44.855 7.09574 44.8616C7.96793 45.0403 15.4476 46.4426 16.7814 46.6842C16.8139 46.6901 16.8355 46.7211 16.8295 46.7535C16.8243 46.7823 16.799 46.8024 16.7706 46.8024Z" fill="#363E44"/>
<path id="Vector_238" d="M22.3559 49.4747C22.3451 49.4747 22.3342 49.4718 22.3244 49.4658C22.1163 49.3378 21.8976 49.2232 21.6741 49.1251C21.2731 48.9489 20.8486 48.8218 20.4126 48.7475C20.38 48.742 20.358 48.7112 20.3637 48.6787C20.3692 48.6463 20.3999 48.6244 20.4328 48.63C20.8786 48.706 21.3125 48.8359 21.7226 49.0161C21.9509 49.1164 22.1747 49.2336 22.3875 49.3644C22.4156 49.3818 22.4243 49.4185 22.4069 49.4464C22.3955 49.4647 22.3759 49.4747 22.3559 49.4747Z" fill="#363E44"/>
<path id="Vector_239" d="M21.8451 50.7885C21.8364 50.7885 21.8277 50.7866 21.8193 50.7826C21.773 50.7606 21.7256 50.7389 21.677 50.7176C21.2757 50.5413 20.8512 50.4143 20.4152 50.34C20.3827 50.3345 20.3607 50.3037 20.3664 50.2712C20.3719 50.2388 20.4024 50.217 20.4355 50.2226C20.8812 50.2986 21.3152 50.4284 21.7254 50.6086C21.7751 50.6304 21.8236 50.6526 21.871 50.6751C21.9009 50.6893 21.9135 50.7248 21.8992 50.7545C21.8889 50.7759 21.8675 50.7885 21.8451 50.7885Z" fill="#363E44"/>
<path id="Vector_240" d="M21.2755 52.0886C21.2691 52.0886 21.2625 52.0876 21.2561 52.0854C20.9849 51.9929 20.7031 51.9215 20.4187 51.873C20.3861 51.8674 20.3641 51.8366 20.3698 51.8042C20.3753 51.7718 20.4061 51.7499 20.4389 51.7555C20.7297 51.8051 21.0176 51.8781 21.2949 51.9726C21.3262 51.9833 21.3429 52.0172 21.3322 52.0483C21.3236 52.073 21.3004 52.0886 21.2755 52.0886Z" fill="#363E44"/>
</g>
</g>
</g>
<g id="Group_22">
<path id="Vector_241" d="M135.304 68.2891H109.846V93.6043H135.304V68.2891Z" fill="#B0BEC5"/>
<g id="Group_23">
<path id="Vector_242" d="M133.707 69.8779H123.39V74.253H133.707V69.8779Z" fill="white"/>
<g id="Group_24">
<path id="Vector_243" d="M124.907 83.2651V92.0152H133.707V83.2651H124.907ZM132.24 90.5566H126.374V84.7238H132.24V90.5566Z" fill="white"/>
<path id="Vector_244" d="M131.049 85.9077H127.565V89.3724H131.049V85.9077Z" fill="white"/>
</g>
<path id="Vector_245" d="M131.049 76.0215H127.901V83.2651H131.049V76.0215Z" fill="white"/>
<path id="Vector_246" d="M133.707 77.9829H130.336V81.3342H133.707V77.9829Z" fill="white"/>
<path id="Vector_247" d="M124.109 79.1387H119.959V83.2657H124.109V79.1387Z" fill="white"/>
<path id="Vector_248" d="M126.233 76.0215H121.985V80.245H126.233V76.0215Z" fill="white"/>
<path id="Vector_249" d="M115.387 81.334H111.444V92.0155H115.387V81.334Z" fill="white"/>
<path id="Vector_250" d="M119.027 85.3896H113.007V88.59H119.027V85.3896Z" fill="white"/>
<path id="Vector_251" d="M125.266 87.6406H119.959V90.5782H125.266V87.6406Z" fill="white"/>
<path id="Vector_252" d="M124.204 84.7183H121.985V86.9241H124.204V84.7183Z" fill="white"/>
<path id="Vector_253" d="M118.103 76.7007H113.931V83.7148H118.103V76.7007Z" fill="white"/>
<path id="Vector_254" d="M123.893 72.0654H117.738V77.6056H123.893V72.0654Z" fill="white"/>
<path id="Vector_255" d="M117.773 69.8779V73.0804H114.552V69.8779H111.444V78.628H120.244V69.8779H117.773Z" fill="white"/>
</g>
</g>
</g>
</g>
</g>
</g>
<defs>
<filter id="filter0_d_1675_1310" x="-40" y="38" width="350" height="394" filterUnits="userSpaceOnUse" color-interpolation-filters="sRGB">
<feFlood flood-opacity="0" result="BackgroundImageFix"/>
<feColorMatrix in="SourceAlpha" type="matrix" values="0 0 0 0 0 0 0 0 0 0 0 0 0 0 0 0 0 0 127 0" result="hardAlpha"/>
<feOffset dy="9"/>
<feGaussianBlur stdDeviation="10"/>
<feComposite in2="hardAlpha" operator="out"/>
<feColorMatrix type="matrix" values="0 0 0 0 0 0 0 0 0 0 0 0 0 0 0 0 0 0 0.05 0"/>
<feBlend mode="normal" in2="BackgroundImageFix" result="effect1_dropShadow_1675_1310"/>
<feBlend mode="normal" in="SourceGraphic" in2="effect1_dropShadow_1675_1310" result="shape"/>
</filter>
<clipPath id="clip0_1675_1310">
<rect width="1920" height="8966" fill="white" transform="translate(-991 -4043)"/>
</clipPath>
<clipPath id="clip1_1675_1310">
<rect width="136" height="109" fill="white"/>
</clipPath>
</defs>
</svg>
