<svg width="125" height="590" viewBox="0 0 125 590" fill="none" xmlns="http://www.w3.org/2000/svg">
<path d="M121.898 6.00138C120.215 6.00138 118.85 4.65747 118.85 3.00069C118.85 1.34391 120.215 -2.05947e-07 121.898 -1.32687e-07C123.581 -5.9426e-08 124.946 1.34391 124.946 3.00069C124.946 4.65747 123.581 6.00138 121.898 6.00138Z" fill="#CDE9FE"/>
<path d="M121.898 45.1381C120.215 45.1381 118.85 43.7942 118.85 42.1374C118.85 40.4806 120.215 39.1367 121.898 39.1367C123.581 39.1367 124.946 40.4806 124.946 42.1388C124.946 43.7956 123.581 45.1381 121.898 45.1381Z" fill="#CDE9FE"/>
<path d="M121.898 84.2768C120.215 84.2768 118.85 82.9329 118.85 81.2761C118.85 79.6193 120.215 78.2754 121.898 78.2754C123.581 78.2754 124.946 79.6193 124.946 81.2761C124.946 82.9329 123.581 84.2768 121.898 84.2768Z" fill="#CDE9FE"/>
<path d="M118.85 120.414C118.85 122.072 120.214 123.415 121.898 123.415C123.581 123.415 124.946 122.072 124.946 120.414C124.946 118.757 123.581 117.414 121.898 117.414C120.214 117.414 118.85 118.757 118.85 120.414Z" fill="#CDE9FE"/>
<path d="M82.4896 6.00138C80.8068 6.00138 79.4417 4.65747 79.4417 3.00069C79.4417 1.34391 80.8068 -2.03824e-07 82.4896 -1.31319e-07C84.1725 -5.88133e-08 85.5376 1.34391 85.5376 3.00069C85.5376 4.65747 84.1725 6.00138 82.4896 6.00138Z" fill="#CDE9FE"/>
<path d="M82.4896 45.1381C80.8068 45.1381 79.4417 43.7942 79.4417 42.1374C79.4417 40.4806 80.8068 39.1367 82.4896 39.1367C84.1725 39.1367 85.5376 40.4806 85.5376 42.1374C85.5376 43.7956 84.1725 45.1381 82.4896 45.1381Z" fill="#CDE9FE"/>
<path d="M82.4896 84.2768C80.8068 84.2768 79.4417 82.9329 79.4417 81.2761C79.4417 79.6193 80.8068 78.2754 82.4896 78.2754C84.1725 78.2754 85.5376 79.6193 85.5376 81.2761C85.5376 82.9329 84.1725 84.2768 82.4896 84.2768Z" fill="#CDE9FE"/>
<path d="M79.4417 120.414C79.4417 122.072 80.8063 123.415 82.4896 123.415C84.173 123.415 85.5376 122.072 85.5376 120.414C85.5376 118.757 84.173 117.414 82.4896 117.414C80.8063 117.414 79.4417 118.757 79.4417 120.414Z" fill="#CDE9FE"/>
<path d="M43.0814 6.00138C41.3985 6.00138 40.0335 4.65747 40.0335 3.00069C40.0335 1.34391 41.3971 -2.03886e-07 43.0814 -1.31319e-07C44.7643 -5.88134e-08 46.1294 1.34391 46.1294 3.00069C46.1294 4.65747 44.7643 6.00138 43.0814 6.00138Z" fill="#CDE9FE"/>
<path d="M43.0814 45.1381C41.3985 45.1381 40.0335 43.7942 40.0335 42.1374C40.0335 40.4806 41.3985 39.1367 43.0814 39.1367C44.7643 39.1367 46.1294 40.4806 46.1294 42.1374C46.1294 43.7956 44.7643 45.1381 43.0814 45.1381Z" fill="#CDE9FE"/>
<path d="M43.0814 84.2768C41.3985 84.2768 40.0335 82.9329 40.0335 81.2761C40.0335 79.6193 41.3985 78.2754 43.0814 78.2754C44.7643 78.2754 46.1294 79.6193 46.1294 81.2761C46.1294 82.9329 44.7643 84.2768 43.0814 84.2768Z" fill="#CDE9FE"/>
<path d="M43.0814 123.415C41.3985 123.415 40.0335 122.071 40.0335 120.414C40.0335 118.757 41.3985 117.414 43.0814 117.414C44.7643 117.414 46.1294 118.757 46.1294 120.414C46.1294 122.071 44.7643 123.415 43.0814 123.415Z" fill="#CDE9FE"/>
<path d="M3.67274 6.00138C1.98986 6.00138 0.624773 4.65747 0.624773 3.00069C0.624773 1.34391 1.98986 -2.03824e-07 3.67274 -1.31319e-07C5.35562 -5.88134e-08 6.7207 1.34391 6.7207 3.00069C6.7207 4.65747 5.35562 6.00138 3.67274 6.00138Z" fill="#CDE9FE"/>
<path d="M3.67298 45.1381C1.9901 45.1381 0.625017 43.7942 0.625017 42.1374C0.625017 40.4806 1.9901 39.1367 3.67298 39.1367C5.35586 39.1367 6.72095 40.4806 6.72095 42.1374C6.72095 43.7956 5.35586 45.1381 3.67298 45.1381Z" fill="#CDE9FE"/>
<path d="M3.67274 84.2768C1.98986 84.2768 0.624773 82.9329 0.624773 81.2761C0.624773 79.6193 1.98986 78.2754 3.67274 78.2754C5.35562 78.2754 6.7207 79.6193 6.7207 81.2761C6.7207 82.9329 5.35562 84.2768 3.67274 84.2768Z" fill="#CDE9FE"/>
<path d="M0.625017 120.414C0.625017 122.072 1.98964 123.415 3.67298 123.415C5.35633 123.415 6.72095 122.072 6.72095 120.414C6.72095 118.757 5.35633 117.414 3.67298 117.414C1.98964 117.414 0.625017 118.757 0.625017 120.414Z" fill="#CDE9FE"/>
<path d="M121.898 162.586C120.215 162.586 118.85 161.242 118.85 159.586C118.85 157.929 120.215 156.585 121.898 156.585C123.581 156.585 124.946 157.929 124.946 159.586C124.946 161.242 123.581 162.586 121.898 162.586Z" fill="#CDE9FE"/>
<path d="M121.898 201.723C120.215 201.723 118.85 200.379 118.85 198.722C118.85 197.066 120.215 195.722 121.898 195.722C123.581 195.722 124.946 197.066 124.946 198.724C124.946 200.381 123.581 201.723 121.898 201.723Z" fill="#CDE9FE"/>
<path d="M121.898 240.862C120.215 240.862 118.85 239.518 118.85 237.861C118.85 236.204 120.215 234.86 121.898 234.86C123.581 234.86 124.946 236.204 124.946 237.861C124.946 239.518 123.581 240.862 121.898 240.862Z" fill="#CDE9FE"/>
<path d="M118.85 276.999C118.85 278.656 120.214 280 121.898 280C123.581 280 124.946 278.656 124.946 276.999C124.946 275.342 123.581 273.999 121.898 273.999C120.214 273.999 118.85 275.342 118.85 276.999Z" fill="#CDE9FE"/>
<path d="M82.4896 162.586C80.8068 162.586 79.4417 161.242 79.4417 159.586C79.4417 157.929 80.8068 156.585 82.4896 156.585C84.1725 156.585 85.5376 157.929 85.5376 159.586C85.5376 161.242 84.1725 162.586 82.4896 162.586Z" fill="#CDE9FE"/>
<path d="M82.4896 201.723C80.8068 201.723 79.4417 200.379 79.4417 198.722C79.4417 197.066 80.8068 195.722 82.4896 195.722C84.1725 195.722 85.5376 197.066 85.5376 198.722C85.5376 200.381 84.1725 201.723 82.4896 201.723Z" fill="#CDE9FE"/>
<path d="M82.4896 240.862C80.8068 240.862 79.4417 239.518 79.4417 237.861C79.4417 236.204 80.8068 234.86 82.4896 234.86C84.1725 234.86 85.5376 236.204 85.5376 237.861C85.5376 239.518 84.1725 240.862 82.4896 240.862Z" fill="#CDE9FE"/>
<path d="M79.4417 276.999C79.4417 278.656 80.8063 280 82.4896 280C84.173 280 85.5376 278.656 85.5376 276.999C85.5376 275.342 84.173 273.999 82.4896 273.999C80.8063 273.999 79.4417 275.342 79.4417 276.999Z" fill="#CDE9FE"/>
<path d="M43.0814 162.586C41.3985 162.586 40.0335 161.242 40.0335 159.586C40.0335 157.929 41.3971 156.585 43.0814 156.585C44.7643 156.585 46.1294 157.929 46.1294 159.586C46.1294 161.242 44.7643 162.586 43.0814 162.586Z" fill="#CDE9FE"/>
<path d="M43.0814 201.724C41.3985 201.724 40.0335 200.38 40.0335 198.723C40.0335 197.066 41.3985 195.722 43.0814 195.722C44.7643 195.722 46.1294 197.066 46.1294 198.723C46.1294 200.381 44.7643 201.724 43.0814 201.724Z" fill="#CDE9FE"/>
<path d="M43.0814 240.862C41.3985 240.862 40.0335 239.518 40.0335 237.861C40.0335 236.204 41.3985 234.86 43.0814 234.86C44.7643 234.86 46.1294 236.204 46.1294 237.861C46.1294 239.518 44.7643 240.862 43.0814 240.862Z" fill="#CDE9FE"/>
<path d="M43.0814 280C41.3985 280 40.0335 278.656 40.0335 276.999C40.0335 275.342 41.3985 273.999 43.0814 273.999C44.7643 273.999 46.1294 275.342 46.1294 276.999C46.1294 278.656 44.7643 280 43.0814 280Z" fill="#CDE9FE"/>
<path d="M3.67274 162.586C1.98986 162.586 0.624773 161.242 0.624773 159.586C0.624773 157.929 1.98986 156.585 3.67274 156.585C5.35562 156.585 6.7207 157.929 6.7207 159.586C6.7207 161.242 5.35562 162.586 3.67274 162.586Z" fill="#CDE9FE"/>
<path d="M3.67298 201.723C1.9901 201.723 0.625017 200.379 0.625017 198.722C0.625017 197.066 1.9901 195.722 3.67298 195.722C5.35586 195.722 6.72095 197.066 6.72095 198.722C6.72095 200.381 5.35586 201.723 3.67298 201.723Z" fill="#CDE9FE"/>
<path d="M3.67274 240.862C1.98986 240.862 0.624773 239.518 0.624773 237.861C0.624773 236.204 1.98986 234.86 3.67274 234.86C5.35562 234.86 6.7207 236.204 6.7207 237.861C6.7207 239.518 5.35562 240.862 3.67274 240.862Z" fill="#CDE9FE"/>
<path d="M0.625017 276.999C0.625017 278.656 1.98964 280 3.67298 280C5.35633 280 6.72095 278.656 6.72095 276.999C6.72095 275.342 5.35633 273.999 3.67298 273.999C1.98964 273.999 0.625017 275.342 0.625017 276.999Z" fill="#CDE9FE"/>
<path d="M121.902 583.999C120.219 583.999 118.854 585.343 118.854 586.999C118.854 588.656 120.219 590 121.902 590C123.585 590 124.95 588.656 124.95 586.999C124.95 585.343 123.585 583.999 121.902 583.999Z" fill="#CDE9FE"/>
<path d="M121.902 544.862C120.219 544.862 118.854 546.206 118.854 547.863C118.854 549.519 120.219 550.863 121.902 550.863C123.585 550.863 124.95 549.519 124.95 547.861C124.95 546.204 123.585 544.862 121.902 544.862Z" fill="#CDE9FE"/>
<path d="M121.902 505.723C120.219 505.723 118.854 507.067 118.854 508.724C118.854 510.381 120.219 511.725 121.902 511.725C123.585 511.725 124.95 510.381 124.95 508.724C124.95 507.067 123.585 505.723 121.902 505.723Z" fill="#CDE9FE"/>
<path d="M118.854 469.586C118.854 467.928 120.219 466.585 121.902 466.585C123.586 466.585 124.95 467.928 124.95 469.586C124.95 471.243 123.586 472.586 121.902 472.586C120.219 472.586 118.854 471.243 118.854 469.586Z" fill="#CDE9FE"/>
<path d="M82.494 583.999C80.8111 583.999 79.4461 585.343 79.4461 586.999C79.4461 588.656 80.8111 590 82.494 590C84.1769 590 85.542 588.656 85.542 586.999C85.542 585.343 84.1769 583.999 82.494 583.999Z" fill="#CDE9FE"/>
<path d="M82.494 544.862C80.8111 544.862 79.4461 546.206 79.4461 547.863C79.4461 549.519 80.8111 550.863 82.494 550.863C84.1769 550.863 85.542 549.519 85.542 547.863C85.542 546.204 84.1769 544.862 82.494 544.862Z" fill="#CDE9FE"/>
<path d="M82.494 505.723C80.8111 505.723 79.4461 507.067 79.4461 508.724C79.4461 510.381 80.8111 511.725 82.494 511.725C84.1769 511.725 85.542 510.381 85.542 508.724C85.542 507.067 84.1769 505.723 82.494 505.723Z" fill="#CDE9FE"/>
<path d="M79.4461 469.586C79.4461 467.928 80.8107 466.585 82.494 466.585C84.1774 466.585 85.542 467.928 85.542 469.586C85.542 471.243 84.1774 472.586 82.494 472.586C80.8107 472.586 79.4461 471.243 79.4461 469.586Z" fill="#CDE9FE"/>
<path d="M43.0858 583.999C41.4029 583.999 40.0379 585.343 40.0379 586.999C40.0379 588.656 41.4015 590 43.0858 590C44.7687 590 46.1338 588.656 46.1338 586.999C46.1338 585.343 44.7687 583.999 43.0858 583.999Z" fill="#CDE9FE"/>
<path d="M43.0858 544.862C41.4029 544.862 40.0379 546.206 40.0379 547.863C40.0379 549.519 41.4029 550.863 43.0858 550.863C44.7687 550.863 46.1338 549.519 46.1338 547.863C46.1338 546.204 44.7687 544.862 43.0858 544.862Z" fill="#CDE9FE"/>
<path d="M43.0858 505.723C41.4029 505.723 40.0379 507.067 40.0379 508.724C40.0379 510.381 41.4029 511.725 43.0858 511.725C44.7687 511.725 46.1338 510.381 46.1338 508.724C46.1338 507.067 44.7687 505.723 43.0858 505.723Z" fill="#CDE9FE"/>
<path d="M43.0858 466.585C41.4029 466.585 40.0379 467.929 40.0379 469.586C40.0379 471.243 41.4029 472.586 43.0858 472.586C44.7687 472.586 46.1338 471.243 46.1338 469.586C46.1338 467.929 44.7687 466.585 43.0858 466.585Z" fill="#CDE9FE"/>
<path d="M3.67713 583.999C1.99425 583.999 0.629167 585.343 0.629167 586.999C0.629167 588.656 1.99425 590 3.67713 590C5.36001 590 6.7251 588.656 6.7251 586.999C6.7251 585.343 5.36001 583.999 3.67713 583.999Z" fill="#CDE9FE"/>
<path d="M3.67738 544.862C1.9945 544.862 0.629411 546.206 0.629412 547.863C0.629412 549.519 1.9945 550.863 3.67738 550.863C5.36026 550.863 6.72534 549.519 6.72534 547.863C6.72534 546.204 5.36026 544.862 3.67738 544.862Z" fill="#CDE9FE"/>
<path d="M3.67713 505.723C1.99425 505.723 0.629167 507.067 0.629167 508.724C0.629167 510.381 1.99425 511.725 3.67713 511.725C5.36001 511.725 6.7251 510.381 6.7251 508.724C6.7251 507.067 5.36001 505.723 3.67713 505.723Z" fill="#CDE9FE"/>
<path d="M0.629412 469.586C0.629411 467.928 1.99403 466.585 3.67738 466.585C5.36072 466.585 6.72534 467.928 6.72534 469.586C6.72534 471.243 5.36072 472.586 3.67738 472.586C1.99403 472.586 0.629412 471.243 0.629412 469.586Z" fill="#CDE9FE"/>
<path d="M121.902 427.414C120.219 427.414 118.854 428.758 118.854 430.414C118.854 432.071 120.219 433.415 121.902 433.415C123.585 433.415 124.95 432.071 124.95 430.414C124.95 428.758 123.585 427.414 121.902 427.414Z" fill="#CDE9FE"/>
<path d="M121.902 388.277C120.219 388.277 118.854 389.621 118.854 391.278C118.854 392.934 120.219 394.278 121.902 394.278C123.585 394.278 124.95 392.934 124.95 391.276C124.95 389.619 123.585 388.277 121.902 388.277Z" fill="#CDE9FE"/>
<path d="M121.902 349.138C120.219 349.138 118.854 350.482 118.854 352.139C118.854 353.796 120.219 355.14 121.902 355.14C123.585 355.14 124.95 353.796 124.95 352.139C124.95 350.482 123.585 349.138 121.902 349.138Z" fill="#CDE9FE"/>
<path d="M118.854 313.001C118.854 311.344 120.219 310 121.902 310C123.586 310 124.95 311.344 124.95 313.001C124.95 314.658 123.586 316.001 121.902 316.001C120.219 316.001 118.854 314.658 118.854 313.001Z" fill="#CDE9FE"/>
<path d="M82.494 427.414C80.8111 427.414 79.4461 428.758 79.4461 430.414C79.4461 432.071 80.8111 433.415 82.494 433.415C84.1769 433.415 85.542 432.071 85.542 430.414C85.542 428.758 84.1769 427.414 82.494 427.414Z" fill="#CDE9FE"/>
<path d="M82.494 388.277C80.8111 388.277 79.4461 389.621 79.4461 391.278C79.4461 392.934 80.8111 394.278 82.494 394.278C84.1769 394.278 85.542 392.934 85.542 391.278C85.542 389.619 84.1769 388.277 82.494 388.277Z" fill="#CDE9FE"/>
<path d="M82.494 349.138C80.8111 349.138 79.4461 350.482 79.4461 352.139C79.4461 353.796 80.8111 355.14 82.494 355.14C84.1769 355.14 85.542 353.796 85.542 352.139C85.542 350.482 84.1769 349.138 82.494 349.138Z" fill="#CDE9FE"/>
<path d="M79.4461 313.001C79.4461 311.344 80.8107 310 82.494 310C84.1774 310 85.542 311.344 85.542 313.001C85.542 314.658 84.1774 316.001 82.494 316.001C80.8107 316.001 79.4461 314.658 79.4461 313.001Z" fill="#CDE9FE"/>
<path d="M43.0858 427.414C41.4029 427.414 40.0379 428.758 40.0379 430.414C40.0379 432.071 41.4015 433.415 43.0858 433.415C44.7687 433.415 46.1338 432.071 46.1338 430.414C46.1338 428.758 44.7687 427.414 43.0858 427.414Z" fill="#CDE9FE"/>
<path d="M43.0858 388.276C41.4029 388.276 40.0379 389.62 40.0379 391.277C40.0379 392.934 41.4029 394.278 43.0858 394.278C44.7687 394.278 46.1338 392.934 46.1338 391.277C46.1338 389.619 44.7687 388.276 43.0858 388.276Z" fill="#CDE9FE"/>
<path d="M43.0858 349.138C41.4029 349.138 40.0379 350.482 40.0379 352.139C40.0379 353.796 41.4029 355.14 43.0858 355.14C44.7687 355.14 46.1338 353.796 46.1338 352.139C46.1338 350.482 44.7687 349.138 43.0858 349.138Z" fill="#CDE9FE"/>
<path d="M43.0858 310C41.4029 310 40.0379 311.344 40.0379 313.001C40.0379 314.658 41.4029 316.001 43.0858 316.001C44.7687 316.001 46.1338 314.658 46.1338 313.001C46.1338 311.344 44.7687 310 43.0858 310Z" fill="#CDE9FE"/>
<path d="M3.67713 427.414C1.99425 427.414 0.629167 428.758 0.629167 430.414C0.629167 432.071 1.99425 433.415 3.67713 433.415C5.36001 433.415 6.7251 432.071 6.7251 430.414C6.7251 428.758 5.36001 427.414 3.67713 427.414Z" fill="#CDE9FE"/>
<path d="M3.67738 388.277C1.9945 388.277 0.629411 389.621 0.629412 391.278C0.629412 392.934 1.9945 394.278 3.67738 394.278C5.36026 394.278 6.72534 392.934 6.72534 391.278C6.72534 389.619 5.36026 388.277 3.67738 388.277Z" fill="#CDE9FE"/>
<path d="M3.67738 349.138C1.9945 349.138 0.629411 350.482 0.629412 352.139C0.629412 353.796 1.9945 355.14 3.67738 355.14C5.36026 355.14 6.72534 353.796 6.72534 352.139C6.72534 350.482 5.36026 349.138 3.67738 349.138Z" fill="#CDE9FE"/>
<path d="M0.629167 313.001C0.629167 311.344 1.99379 310 3.67713 310C5.36048 310 6.7251 311.344 6.7251 313.001C6.7251 314.658 5.36048 316.001 3.67713 316.001C1.99379 316.001 0.629167 314.658 0.629167 313.001Z" fill="#CDE9FE"/>
</svg>
