<svg width="284" height="280" viewBox="0 0 284 280" fill="none" xmlns="http://www.w3.org/2000/svg">
<path d="M6.53264 159.977C6.53264 161.643 5.17473 162.994 3.5007 162.994C1.82666 162.994 0.46875 161.643 0.46875 159.977C0.46875 158.312 1.82666 156.96 3.5007 156.96C5.17473 156.96 6.53264 158.312 6.53264 159.977Z" fill="#CDE9FE"/>
<path d="M46.0771 159.977C46.0771 161.643 44.7192 162.994 43.0451 162.994C41.3711 162.994 40.0132 161.643 40.0132 159.977C40.0132 158.312 41.3711 156.96 43.0466 156.96C44.7206 156.96 46.0771 158.312 46.0771 159.977Z" fill="#CDE9FE"/>
<path d="M85.6235 159.977C85.6235 161.643 84.2656 162.994 82.5915 162.994C80.9175 162.994 79.5596 161.643 79.5596 159.977C79.5596 158.312 80.9175 156.96 82.5915 156.96C84.2656 156.96 85.6235 158.312 85.6235 159.977Z" fill="#CDE9FE"/>
<path d="M122.137 162.994C123.812 162.994 125.169 161.643 125.169 159.977C125.169 158.311 123.812 156.96 122.137 156.96C120.463 156.96 119.105 158.311 119.105 159.977C119.105 161.643 120.463 162.994 122.137 162.994Z" fill="#CDE9FE"/>
<path d="M6.53264 198.979C6.53264 200.645 5.17473 201.996 3.5007 201.996C1.82666 201.996 0.46875 200.645 0.46875 198.979C0.46875 197.314 1.82666 195.962 3.5007 195.962C5.17473 195.962 6.53264 197.314 6.53264 198.979Z" fill="#CDE9FE"/>
<path d="M46.0773 198.979C46.0773 200.645 44.7194 201.996 43.0454 201.996C41.3713 201.996 40.0134 200.645 40.0134 198.979C40.0134 197.314 41.3713 195.962 43.0454 195.962C44.7208 195.962 46.0773 197.314 46.0773 198.979Z" fill="#CDE9FE"/>
<path d="M85.6235 198.979C85.6235 200.645 84.2656 201.996 82.5915 201.996C80.9175 201.996 79.5596 200.645 79.5596 198.979C79.5596 197.314 80.9175 195.962 82.5915 195.962C84.2656 195.962 85.6235 197.314 85.6235 198.979Z" fill="#CDE9FE"/>
<path d="M122.137 201.996C123.812 201.996 125.169 200.645 125.169 198.979C125.169 197.313 123.812 195.962 122.137 195.962C120.463 195.962 119.105 197.313 119.105 198.979C119.105 200.645 120.463 201.996 122.137 201.996Z" fill="#CDE9FE"/>
<path d="M6.53264 237.981C6.53264 239.647 5.17473 240.998 3.5007 240.998C1.82666 240.998 0.46875 239.648 0.46875 237.981C0.46875 236.316 1.82666 234.964 3.5007 234.964C5.17473 234.964 6.53264 236.316 6.53264 237.981Z" fill="#CDE9FE"/>
<path d="M46.0773 237.981C46.0773 239.647 44.7194 240.998 43.0454 240.998C41.3713 240.998 40.0134 239.647 40.0134 237.981C40.0134 236.316 41.3713 234.964 43.0454 234.964C44.7208 234.964 46.0773 236.316 46.0773 237.981Z" fill="#CDE9FE"/>
<path d="M85.6235 237.981C85.6235 239.647 84.2656 240.998 82.5915 240.998C80.9175 240.998 79.5596 239.647 79.5596 237.981C79.5596 236.316 80.9175 234.964 82.5915 234.964C84.2656 234.964 85.6235 236.316 85.6235 237.981Z" fill="#CDE9FE"/>
<path d="M125.169 237.981C125.169 239.647 123.811 240.998 122.137 240.998C120.463 240.998 119.105 239.647 119.105 237.981C119.105 236.316 120.463 234.964 122.137 234.964C123.811 234.964 125.169 236.316 125.169 237.981Z" fill="#CDE9FE"/>
<path d="M6.53264 276.983C6.53264 278.649 5.17473 280 3.5007 280C1.82666 280 0.46875 278.649 0.46875 276.983C0.46875 275.317 1.82666 273.966 3.5007 273.966C5.17473 273.966 6.53264 275.317 6.53264 276.983Z" fill="#CDE9FE"/>
<path d="M46.0773 276.983C46.0773 278.649 44.7194 280 43.0454 280C41.3713 280 40.0134 278.649 40.0134 276.983C40.0134 275.317 41.3713 273.966 43.0454 273.966C44.7208 273.966 46.0773 275.317 46.0773 276.983Z" fill="#CDE9FE"/>
<path d="M85.6235 276.983C85.6235 278.649 84.2656 280 82.5915 280C80.9175 280 79.5596 278.649 79.5596 276.983C79.5596 275.317 80.9175 273.966 82.5915 273.966C84.2656 273.966 85.6235 275.317 85.6235 276.983Z" fill="#CDE9FE"/>
<path d="M122.137 280C123.812 280 125.169 278.649 125.169 276.983C125.169 275.317 123.812 273.966 122.137 273.966C120.463 273.966 119.105 275.317 119.105 276.983C119.105 278.649 120.463 280 122.137 280Z" fill="#CDE9FE"/>
<path d="M164.749 159.977C164.749 161.643 163.391 162.994 161.717 162.994C160.043 162.994 158.685 161.643 158.685 159.977C158.685 158.312 160.043 156.96 161.717 156.96C163.391 156.96 164.749 158.312 164.749 159.977Z" fill="#CDE9FE"/>
<path d="M204.293 159.977C204.293 161.643 202.935 162.994 201.261 162.994C199.587 162.994 198.229 161.643 198.229 159.977C198.229 158.312 199.587 156.96 201.263 156.96C202.937 156.96 204.293 158.312 204.293 159.977Z" fill="#CDE9FE"/>
<path d="M243.84 159.977C243.84 161.643 242.482 162.994 240.808 162.994C239.134 162.994 237.776 161.643 237.776 159.977C237.776 158.312 239.134 156.96 240.808 156.96C242.482 156.96 243.84 158.312 243.84 159.977Z" fill="#CDE9FE"/>
<path d="M280.353 162.994C282.028 162.994 283.385 161.643 283.385 159.977C283.385 158.311 282.028 156.96 280.353 156.96C278.679 156.96 277.322 158.311 277.322 159.977C277.322 161.643 278.679 162.994 280.353 162.994Z" fill="#CDE9FE"/>
<path d="M164.749 198.979C164.749 200.645 163.391 201.996 161.717 201.996C160.043 201.996 158.685 200.645 158.685 198.979C158.685 197.314 160.043 195.962 161.717 195.962C163.391 195.962 164.749 197.314 164.749 198.979Z" fill="#CDE9FE"/>
<path d="M204.293 198.979C204.293 200.645 202.935 201.996 201.261 201.996C199.587 201.996 198.229 200.645 198.229 198.979C198.229 197.314 199.587 195.962 201.261 195.962C202.937 195.962 204.293 197.314 204.293 198.979Z" fill="#CDE9FE"/>
<path d="M243.84 198.979C243.84 200.645 242.482 201.996 240.808 201.996C239.134 201.996 237.776 200.645 237.776 198.979C237.776 197.314 239.134 195.962 240.808 195.962C242.482 195.962 243.84 197.314 243.84 198.979Z" fill="#CDE9FE"/>
<path d="M280.353 201.996C282.028 201.996 283.385 200.645 283.385 198.979C283.385 197.313 282.028 195.962 280.353 195.962C278.679 195.962 277.322 197.313 277.322 198.979C277.322 200.645 278.679 201.996 280.353 201.996Z" fill="#CDE9FE"/>
<path d="M164.749 237.981C164.749 239.647 163.391 240.998 161.717 240.998C160.043 240.998 158.685 239.648 158.685 237.981C158.685 236.316 160.043 234.964 161.717 234.964C163.391 234.964 164.749 236.316 164.749 237.981Z" fill="#CDE9FE"/>
<path d="M204.293 237.981C204.293 239.647 202.935 240.998 201.261 240.998C199.587 240.998 198.229 239.647 198.229 237.981C198.229 236.316 199.587 234.964 201.261 234.964C202.937 234.964 204.293 236.316 204.293 237.981Z" fill="#CDE9FE"/>
<path d="M243.84 237.981C243.84 239.647 242.482 240.998 240.808 240.998C239.134 240.998 237.776 239.647 237.776 237.981C237.776 236.316 239.134 234.964 240.808 234.964C242.482 234.964 243.84 236.316 243.84 237.981Z" fill="#CDE9FE"/>
<path d="M283.385 237.981C283.385 239.647 282.028 240.998 280.353 240.998C278.679 240.998 277.322 239.647 277.322 237.981C277.322 236.316 278.679 234.964 280.353 234.964C282.028 234.964 283.385 236.316 283.385 237.981Z" fill="#CDE9FE"/>
<path d="M164.749 276.983C164.749 278.649 163.391 280 161.717 280C160.043 280 158.685 278.649 158.685 276.983C158.685 275.317 160.043 273.966 161.717 273.966C163.391 273.966 164.749 275.317 164.749 276.983Z" fill="#CDE9FE"/>
<path d="M204.293 276.983C204.293 278.649 202.935 280 201.261 280C199.587 280 198.229 278.649 198.229 276.983C198.229 275.317 199.587 273.966 201.261 273.966C202.937 273.966 204.293 275.317 204.293 276.983Z" fill="#CDE9FE"/>
<path d="M243.84 276.983C243.84 278.649 242.482 280 240.808 280C239.134 280 237.776 278.649 237.776 276.983C237.776 275.317 239.134 273.966 240.808 273.966C242.482 273.966 243.84 275.317 243.84 276.983Z" fill="#CDE9FE"/>
<path d="M280.353 280C282.028 280 283.385 278.649 283.385 276.983C283.385 275.317 282.028 273.966 280.353 273.966C278.679 273.966 277.322 275.317 277.322 276.983C277.322 278.649 278.679 280 280.353 280Z" fill="#CDE9FE"/>
<path d="M6.53264 3.01681C6.53264 4.68249 5.17473 6.03362 3.5007 6.03362C1.82666 6.03362 0.46875 4.68249 0.46875 3.01681C0.46875 1.35113 1.82666 0 3.5007 0C5.17473 0 6.53264 1.35113 6.53264 3.01681Z" fill="#CDE9FE"/>
<path d="M46.0771 3.01681C46.0771 4.68249 44.7192 6.03362 43.0451 6.03362C41.3711 6.03362 40.0132 4.68249 40.0132 3.01681C40.0132 1.35113 41.3711 0 43.0466 0C44.7206 0 46.0771 1.35113 46.0771 3.01681Z" fill="#CDE9FE"/>
<path d="M85.6235 3.01681C85.6235 4.68249 84.2656 6.03362 82.5915 6.03362C80.9175 6.03362 79.5596 4.68249 79.5596 3.01681C79.5596 1.35113 80.9175 0 82.5915 0C84.2656 0 85.6235 1.35113 85.6235 3.01681Z" fill="#CDE9FE"/>
<path d="M122.137 6.03362C123.812 6.03362 125.169 4.68295 125.169 3.01681C125.169 1.35067 123.812 0 122.137 0C120.463 0 119.105 1.35067 119.105 3.01681C119.105 4.68295 120.463 6.03362 122.137 6.03362Z" fill="#CDE9FE"/>
<path d="M6.53264 42.0188C6.53264 43.6844 5.17473 45.0356 3.5007 45.0356C1.82666 45.0356 0.46875 43.6844 0.46875 42.0188C0.46875 40.3531 1.82666 39.002 3.5007 39.002C5.17473 39.002 6.53264 40.3531 6.53264 42.0188Z" fill="#CDE9FE"/>
<path d="M46.0773 42.0188C46.0773 43.6844 44.7194 45.0356 43.0454 45.0356C41.3713 45.0356 40.0134 43.6844 40.0134 42.0188C40.0134 40.3531 41.3713 39.002 43.0454 39.002C44.7208 39.002 46.0773 40.3531 46.0773 42.0188Z" fill="#CDE9FE"/>
<path d="M85.6235 42.0188C85.6235 43.6844 84.2656 45.0356 82.5915 45.0356C80.9175 45.0356 79.5596 43.6844 79.5596 42.0188C79.5596 40.3531 80.9175 39.002 82.5915 39.002C84.2656 39.002 85.6235 40.3531 85.6235 42.0188Z" fill="#CDE9FE"/>
<path d="M122.137 45.0356C123.812 45.0356 125.169 43.6849 125.169 42.0188C125.169 40.3526 123.812 39.002 122.137 39.002C120.463 39.002 119.105 40.3526 119.105 42.0188C119.105 43.6849 120.463 45.0356 122.137 45.0356Z" fill="#CDE9FE"/>
<path d="M6.53264 81.0207C6.53264 82.6864 5.17473 84.0375 3.5007 84.0375C1.82666 84.0375 0.46875 82.6878 0.46875 81.0207C0.46875 79.355 1.82666 78.0039 3.5007 78.0039C5.17473 78.0039 6.53264 79.355 6.53264 81.0207Z" fill="#CDE9FE"/>
<path d="M46.0773 81.0207C46.0773 82.6864 44.7194 84.0375 43.0454 84.0375C41.3713 84.0375 40.0134 82.6864 40.0134 81.0207C40.0134 79.355 41.3713 78.0039 43.0454 78.0039C44.7208 78.0039 46.0773 79.355 46.0773 81.0207Z" fill="#CDE9FE"/>
<path d="M85.6235 81.0207C85.6235 82.6864 84.2656 84.0375 82.5915 84.0375C80.9175 84.0375 79.5596 82.6864 79.5596 81.0207C79.5596 79.355 80.9175 78.0039 82.5915 78.0039C84.2656 78.0039 85.6235 79.355 85.6235 81.0207Z" fill="#CDE9FE"/>
<path d="M125.169 81.0207C125.169 82.6864 123.811 84.0375 122.137 84.0375C120.463 84.0375 119.105 82.6864 119.105 81.0207C119.105 79.355 120.463 78.0039 122.137 78.0039C123.811 78.0039 125.169 79.355 125.169 81.0207Z" fill="#CDE9FE"/>
<path d="M6.53264 120.023C6.53264 121.688 5.17473 123.039 3.5007 123.039C1.82666 123.039 0.46875 121.688 0.46875 120.023C0.46875 118.357 1.82666 117.006 3.5007 117.006C5.17473 117.006 6.53264 118.357 6.53264 120.023Z" fill="#CDE9FE"/>
<path d="M46.0773 120.023C46.0773 121.688 44.7194 123.039 43.0454 123.039C41.3713 123.039 40.0134 121.688 40.0134 120.023C40.0134 118.357 41.3713 117.006 43.0454 117.006C44.7208 117.006 46.0773 118.357 46.0773 120.023Z" fill="#CDE9FE"/>
<path d="M85.6235 120.023C85.6235 121.688 84.2656 123.039 82.5915 123.039C80.9175 123.039 79.5596 121.688 79.5596 120.023C79.5596 118.357 80.9175 117.006 82.5915 117.006C84.2656 117.006 85.6235 118.357 85.6235 120.023Z" fill="#CDE9FE"/>
<path d="M122.137 123.039C123.812 123.039 125.169 121.689 125.169 120.023C125.169 118.357 123.812 117.006 122.137 117.006C120.463 117.006 119.105 118.357 119.105 120.023C119.105 121.689 120.463 123.039 122.137 123.039Z" fill="#CDE9FE"/>
</svg>
