<svg width="284" height="280" viewBox="0 0 284 280" fill="none" xmlns="http://www.w3.org/2000/svg">
<path d="M277.457 120.023C277.457 118.357 278.815 117.006 280.489 117.006C282.163 117.006 283.521 118.357 283.521 120.023C283.521 121.688 282.163 123.039 280.489 123.039C278.815 123.039 277.457 121.688 277.457 120.023Z" fill="#CDE9FE"/>
<path d="M237.913 120.023C237.913 118.357 239.271 117.006 240.945 117.006C242.619 117.006 243.977 118.357 243.977 120.023C243.977 121.688 242.619 123.039 240.943 123.039C239.269 123.039 237.913 121.688 237.913 120.023Z" fill="#CDE9FE"/>
<path d="M198.366 120.023C198.366 118.357 199.724 117.006 201.398 117.006C203.072 117.006 204.43 118.357 204.43 120.023C204.43 121.688 203.072 123.039 201.398 123.039C199.724 123.039 198.366 121.688 198.366 120.023Z" fill="#CDE9FE"/>
<path d="M161.853 117.006C160.178 117.006 158.821 118.357 158.821 120.023C158.821 121.689 160.178 123.039 161.853 123.039C163.527 123.039 164.885 121.689 164.885 120.023C164.885 118.357 163.527 117.006 161.853 117.006Z" fill="#CDE9FE"/>
<path d="M277.457 81.0207C277.457 79.355 278.815 78.0039 280.489 78.0039C282.163 78.0039 283.521 79.355 283.521 81.0207C283.521 82.6863 282.163 84.0375 280.489 84.0375C278.815 84.0375 277.457 82.6863 277.457 81.0207Z" fill="#CDE9FE"/>
<path d="M237.912 81.0207C237.912 79.355 239.27 78.0039 240.944 78.0039C242.618 78.0039 243.976 79.355 243.976 81.0207C243.976 82.6863 242.618 84.0375 240.944 84.0375C239.269 84.0375 237.912 82.6863 237.912 81.0207Z" fill="#CDE9FE"/>
<path d="M198.366 81.0207C198.366 79.355 199.724 78.0039 201.398 78.0039C203.072 78.0039 204.43 79.355 204.43 81.0207C204.43 82.6863 203.072 84.0375 201.398 84.0375C199.724 84.0375 198.366 82.6863 198.366 81.0207Z" fill="#CDE9FE"/>
<path d="M161.852 78.0039C160.178 78.0039 158.82 79.3545 158.82 81.0207C158.82 82.6868 160.178 84.0375 161.852 84.0375C163.527 84.0375 164.884 82.6868 164.884 81.0207C164.884 79.3545 163.527 78.0039 161.852 78.0039Z" fill="#CDE9FE"/>
<path d="M277.457 42.0187C277.457 40.353 278.815 39.0019 280.489 39.0019C282.163 39.0019 283.521 40.3516 283.521 42.0187C283.521 43.6844 282.163 45.0355 280.489 45.0355C278.815 45.0355 277.457 43.6844 277.457 42.0187Z" fill="#CDE9FE"/>
<path d="M237.912 42.0187C237.912 40.353 239.27 39.0019 240.944 39.0019C242.618 39.0019 243.976 40.353 243.976 42.0187C243.976 43.6844 242.618 45.0355 240.944 45.0355C239.269 45.0355 237.912 43.6844 237.912 42.0187Z" fill="#CDE9FE"/>
<path d="M198.366 42.0187C198.366 40.353 199.724 39.0019 201.398 39.0019C203.072 39.0019 204.43 40.353 204.43 42.0187C204.43 43.6844 203.072 45.0355 201.398 45.0355C199.724 45.0355 198.366 43.6844 198.366 42.0187Z" fill="#CDE9FE"/>
<path d="M158.82 42.0187C158.82 40.353 160.178 39.0019 161.852 39.0019C163.526 39.0019 164.884 40.353 164.884 42.0187C164.884 43.6844 163.526 45.0355 161.852 45.0355C160.178 45.0355 158.82 43.6844 158.82 42.0187Z" fill="#CDE9FE"/>
<path d="M277.457 3.01676C277.457 1.35108 278.815 -5.14984e-05 280.489 -5.14984e-05C282.163 -5.14984e-05 283.521 1.35108 283.521 3.01676C283.521 4.68244 282.163 6.03357 280.489 6.03357C278.815 6.03357 277.457 4.68244 277.457 3.01676Z" fill="#CDE9FE"/>
<path d="M237.912 3.01676C237.912 1.35108 239.27 -5.14984e-05 240.944 -5.14984e-05C242.618 -5.14984e-05 243.976 1.35108 243.976 3.01676C243.976 4.68244 242.618 6.03357 240.944 6.03357C239.269 6.03357 237.912 4.68244 237.912 3.01676Z" fill="#CDE9FE"/>
<path d="M198.366 3.01676C198.366 1.35108 199.724 -5.14984e-05 201.398 -5.14984e-05C203.072 -5.14984e-05 204.43 1.35108 204.43 3.01676C204.43 4.68244 203.072 6.03357 201.398 6.03357C199.724 6.03357 198.366 4.68244 198.366 3.01676Z" fill="#CDE9FE"/>
<path d="M161.852 -5.14984e-05C160.178 -5.14984e-05 158.82 1.35062 158.82 3.01676C158.82 4.6829 160.178 6.03357 161.852 6.03357C163.527 6.03357 164.884 4.6829 164.884 3.01676C164.884 1.35062 163.527 -5.14984e-05 161.852 -5.14984e-05Z" fill="#CDE9FE"/>
<path d="M119.241 120.023C119.241 118.357 120.599 117.006 122.273 117.006C123.947 117.006 125.305 118.357 125.305 120.023C125.305 121.688 123.947 123.039 122.273 123.039C120.599 123.039 119.241 121.688 119.241 120.023Z" fill="#CDE9FE"/>
<path d="M79.6964 120.023C79.6964 118.357 81.0543 117.006 82.7283 117.006C84.4023 117.006 85.7603 118.357 85.7603 120.023C85.7603 121.688 84.4023 123.039 82.7269 123.039C81.0528 123.039 79.6964 121.688 79.6964 120.023Z" fill="#CDE9FE"/>
<path d="M40.1502 120.023C40.1502 118.357 41.5081 117.006 43.1822 117.006C44.8562 117.006 46.2141 118.357 46.2141 120.023C46.2141 121.688 44.8562 123.039 43.1822 123.039C41.5081 123.039 40.1502 121.688 40.1502 120.023Z" fill="#CDE9FE"/>
<path d="M3.63626 117.006C1.96176 117.006 0.60431 118.357 0.60431 120.023C0.60431 121.689 1.96176 123.039 3.63626 123.039C5.31076 123.039 6.66821 121.689 6.66821 120.023C6.66821 118.357 5.31076 117.006 3.63626 117.006Z" fill="#CDE9FE"/>
<path d="M119.241 81.0207C119.241 79.355 120.599 78.0039 122.273 78.0039C123.947 78.0039 125.305 79.355 125.305 81.0207C125.305 82.6863 123.947 84.0375 122.273 84.0375C120.599 84.0375 119.241 82.6863 119.241 81.0207Z" fill="#CDE9FE"/>
<path d="M79.6964 81.0207C79.6964 79.355 81.0543 78.0039 82.7283 78.0039C84.4023 78.0039 85.7603 79.355 85.7603 81.0207C85.7603 82.6863 84.4023 84.0375 82.7283 84.0375C81.0528 84.0375 79.6964 82.6863 79.6964 81.0207Z" fill="#CDE9FE"/>
<path d="M40.1502 81.0207C40.1502 79.355 41.5081 78.0039 43.1822 78.0039C44.8562 78.0039 46.2141 79.355 46.2141 81.0207C46.2141 82.6863 44.8562 84.0375 43.1822 84.0375C41.5081 84.0375 40.1502 82.6863 40.1502 81.0207Z" fill="#CDE9FE"/>
<path d="M3.63626 78.0039C1.96176 78.0039 0.60431 79.3545 0.60431 81.0207C0.60431 82.6868 1.96176 84.0375 3.63626 84.0375C5.31076 84.0375 6.66821 82.6868 6.66821 81.0207C6.66821 79.3545 5.31076 78.0039 3.63626 78.0039Z" fill="#CDE9FE"/>
<path d="M119.241 42.0187C119.241 40.353 120.599 39.0019 122.273 39.0019C123.947 39.0019 125.305 40.3516 125.305 42.0187C125.305 43.6844 123.947 45.0355 122.273 45.0355C120.599 45.0355 119.241 43.6844 119.241 42.0187Z" fill="#CDE9FE"/>
<path d="M79.6964 42.0187C79.6964 40.353 81.0543 39.0019 82.7283 39.0019C84.4023 39.0019 85.7603 40.353 85.7603 42.0187C85.7603 43.6844 84.4023 45.0355 82.7283 45.0355C81.0528 45.0355 79.6964 43.6844 79.6964 42.0187Z" fill="#CDE9FE"/>
<path d="M40.1502 42.0187C40.1502 40.353 41.5081 39.0019 43.1822 39.0019C44.8562 39.0019 46.2141 40.353 46.2141 42.0187C46.2141 43.6844 44.8562 45.0355 43.1822 45.0355C41.5081 45.0355 40.1502 43.6844 40.1502 42.0187Z" fill="#CDE9FE"/>
<path d="M0.60431 42.0187C0.60431 40.353 1.96222 39.0019 3.63626 39.0019C5.3103 39.0019 6.66821 40.353 6.66821 42.0187C6.66821 43.6844 5.3103 45.0355 3.63626 45.0355C1.96222 45.0355 0.60431 43.6844 0.60431 42.0187Z" fill="#CDE9FE"/>
<path d="M119.241 3.01676C119.241 1.35108 120.599 -5.14984e-05 122.273 -5.14984e-05C123.947 -5.14984e-05 125.305 1.35108 125.305 3.01676C125.305 4.68244 123.947 6.03357 122.273 6.03357C120.599 6.03357 119.241 4.68244 119.241 3.01676Z" fill="#CDE9FE"/>
<path d="M79.6964 3.01676C79.6964 1.35108 81.0543 -5.14984e-05 82.7283 -5.14984e-05C84.4023 -5.14984e-05 85.7603 1.35108 85.7603 3.01676C85.7603 4.68244 84.4023 6.03357 82.7283 6.03357C81.0528 6.03357 79.6964 4.68244 79.6964 3.01676Z" fill="#CDE9FE"/>
<path d="M40.1502 3.01676C40.1502 1.35108 41.5081 -5.14984e-05 43.1822 -5.14984e-05C44.8562 -5.14984e-05 46.2141 1.35108 46.2141 3.01676C46.2141 4.68244 44.8562 6.03357 43.1822 6.03357C41.5081 6.03357 40.1502 4.68244 40.1502 3.01676Z" fill="#CDE9FE"/>
<path d="M3.63626 -5.14984e-05C1.96176 -5.14984e-05 0.60431 1.35062 0.60431 3.01676C0.60431 4.6829 1.96176 6.03357 3.63626 6.03357C5.31076 6.03357 6.66821 4.6829 6.66821 3.01676C6.66821 1.35062 5.31076 -5.14984e-05 3.63626 -5.14984e-05Z" fill="#CDE9FE"/>
<path d="M277.457 276.983C277.457 275.318 278.815 273.966 280.489 273.966C282.163 273.966 283.521 275.318 283.521 276.983C283.521 278.649 282.163 280 280.489 280C278.815 280 277.457 278.649 277.457 276.983Z" fill="#CDE9FE"/>
<path d="M237.913 276.983C237.913 275.318 239.271 273.966 240.945 273.966C242.619 273.966 243.977 275.318 243.977 276.983C243.977 278.649 242.619 280 240.943 280C239.269 280 237.913 278.649 237.913 276.983Z" fill="#CDE9FE"/>
<path d="M198.366 276.983C198.366 275.318 199.724 273.966 201.398 273.966C203.072 273.966 204.43 275.318 204.43 276.983C204.43 278.649 203.072 280 201.398 280C199.724 280 198.366 278.649 198.366 276.983Z" fill="#CDE9FE"/>
<path d="M161.853 273.966C160.178 273.966 158.821 275.317 158.821 276.983C158.821 278.649 160.178 280 161.853 280C163.527 280 164.885 278.649 164.885 276.983C164.885 275.317 163.527 273.966 161.853 273.966Z" fill="#CDE9FE"/>
<path d="M277.457 237.981C277.457 236.316 278.815 234.964 280.489 234.964C282.163 234.964 283.521 236.316 283.521 237.981C283.521 239.647 282.163 240.998 280.489 240.998C278.815 240.998 277.457 239.647 277.457 237.981Z" fill="#CDE9FE"/>
<path d="M237.912 237.981C237.912 236.316 239.27 234.964 240.944 234.964C242.618 234.964 243.976 236.316 243.976 237.981C243.976 239.647 242.618 240.998 240.944 240.998C239.269 240.998 237.912 239.647 237.912 237.981Z" fill="#CDE9FE"/>
<path d="M198.366 237.981C198.366 236.315 199.724 234.964 201.398 234.964C203.072 234.964 204.43 236.315 204.43 237.981C204.43 239.647 203.072 240.998 201.398 240.998C199.724 240.998 198.366 239.647 198.366 237.981Z" fill="#CDE9FE"/>
<path d="M161.852 234.964C160.178 234.964 158.82 236.315 158.82 237.981C158.82 239.647 160.178 240.998 161.852 240.998C163.527 240.998 164.884 239.647 164.884 237.981C164.884 236.315 163.527 234.964 161.852 234.964Z" fill="#CDE9FE"/>
<path d="M277.457 198.979C277.457 197.313 278.815 195.962 280.489 195.962C282.163 195.962 283.521 197.312 283.521 198.979C283.521 200.645 282.163 201.996 280.489 201.996C278.815 201.996 277.457 200.645 277.457 198.979Z" fill="#CDE9FE"/>
<path d="M237.912 198.979C237.912 197.313 239.27 195.962 240.944 195.962C242.618 195.962 243.976 197.313 243.976 198.979C243.976 200.645 242.618 201.996 240.944 201.996C239.269 201.996 237.912 200.645 237.912 198.979Z" fill="#CDE9FE"/>
<path d="M198.366 198.979C198.366 197.313 199.724 195.962 201.398 195.962C203.072 195.962 204.43 197.313 204.43 198.979C204.43 200.645 203.072 201.996 201.398 201.996C199.724 201.996 198.366 200.645 198.366 198.979Z" fill="#CDE9FE"/>
<path d="M158.82 198.979C158.82 197.313 160.178 195.962 161.852 195.962C163.526 195.962 164.884 197.313 164.884 198.979C164.884 200.645 163.526 201.996 161.852 201.996C160.178 201.996 158.82 200.645 158.82 198.979Z" fill="#CDE9FE"/>
<path d="M277.457 159.977C277.457 158.312 278.815 156.96 280.489 156.96C282.163 156.96 283.521 158.312 283.521 159.977C283.521 161.643 282.163 162.994 280.489 162.994C278.815 162.994 277.457 161.643 277.457 159.977Z" fill="#CDE9FE"/>
<path d="M237.912 159.977C237.912 158.312 239.27 156.96 240.944 156.96C242.618 156.96 243.976 158.312 243.976 159.977C243.976 161.643 242.618 162.994 240.944 162.994C239.269 162.994 237.912 161.643 237.912 159.977Z" fill="#CDE9FE"/>
<path d="M198.366 159.977C198.366 158.312 199.724 156.96 201.398 156.96C203.072 156.96 204.43 158.312 204.43 159.977C204.43 161.643 203.072 162.994 201.398 162.994C199.724 162.994 198.366 161.643 198.366 159.977Z" fill="#CDE9FE"/>
<path d="M161.852 156.96C160.178 156.96 158.82 158.311 158.82 159.977C158.82 161.643 160.178 162.994 161.852 162.994C163.527 162.994 164.884 161.643 164.884 159.977C164.884 158.311 163.527 156.96 161.852 156.96Z" fill="#CDE9FE"/>
</svg>
