<svg width="32.000000" height="25.000000" viewBox="0 0 32 25" fill="none" xmlns="http://www.w3.org/2000/svg" xmlns:xlink="http://www.w3.org/1999/xlink">
	<desc>
			Created with Pixso.
	</desc>
	<defs/>
	<rect id="quotes (1) 4" rx="-0.500000" width="31.000000" height="24.000000" transform="translate(0.500000 0.500000)" fill="#FFFFFF" fill-opacity="0"/>
	<path id="Vector" d="M1.03 14.5L11.19 14.5C11.5 14.5 11.81 14.36 12.03 14.11C12.26 13.86 12.38 13.52 12.38 13.16L12.38 2.47C12.38 2.11 12.26 1.77 12.03 1.52C11.81 1.27 11.5 1.13 11.19 1.13L2.22 1.13C1.91 1.13 1.6 1.27 1.38 1.52C1.15 1.77 1.03 2.11 1.03 2.47L1.03 17.17C1.03 18.95 1.66 20.65 2.78 21.9C3.9 23.15 5.42 23.86 7 23.86" stroke="#FFA726" stroke-opacity="1.000000" stroke-width="2.000000" stroke-linejoin="round" stroke-linecap="round"/>
	<path id="Vector" d="M19.61 14.5L29.77 14.5C30.08 14.5 30.39 14.36 30.61 14.11C30.84 13.86 30.96 13.52 30.96 13.16L30.96 2.47C30.96 2.11 30.84 1.77 30.61 1.52C30.39 1.27 30.08 1.13 29.77 1.13L20.8 1.13C20.49 1.13 20.18 1.27 19.96 1.52C19.73 1.77 19.61 2.11 19.61 2.47L19.61 17.17C19.61 18.95 20.24 20.65 21.36 21.9C22.48 23.15 24 23.86 25.58 23.86" stroke="#FFA726" stroke-opacity="1.000000" stroke-width="2.000000" stroke-linejoin="round" stroke-linecap="round"/>
</svg>
