<svg width="40.000000" height="33.000000" viewBox="0 0 40 33" fill="none" xmlns="http://www.w3.org/2000/svg" xmlns:xlink="http://www.w3.org/1999/xlink">
	<desc>
			Created with Pixso.
	</desc>
	<defs>
		<filter id="filter_1713_3645_dd" x="0.000000" y="0.000000" width="40.000000" height="33.000000" filterUnits="userSpaceOnUse" color-interpolation-filters="sRGB">
			<feFlood flood-opacity="0" result="BackgroundImageFix"/>
			<feColorMatrix in="SourceAlpha" type="matrix" values="0 0 0 0 0 0 0 0 0 0 0 0 0 0 0 0 0 0 127 0" result="hardAlpha"/>
			<feOffset dx="0" dy="4"/>
			<feGaussianBlur stdDeviation="1.33333"/>
			<feComposite in2="hardAlpha" operator="out" k2="-1" k3="1"/>
			<feColorMatrix type="matrix" values="0 0 0 0 0 0 0 0 0 0 0 0 0 0 0 0 0 0 0.25 0"/>
			<feBlend mode="normal" in2="BackgroundImageFix" result="effect_dropShadow_1"/>
			<feBlend mode="normal" in="SourceGraphic" in2="effect_dropShadow_1" result="shape"/>
		</filter>
	</defs>
	<g filter="url(#filter_1713_3645_dd)">
		<rect id="quotes (1) 3" rx="-0.500000" width="31.000000" height="24.000000" transform="matrix(-1 0 0 1 36.5 0.5)" fill="#FFFFFF" fill-opacity="0"/>
		<path id="Vector" d="M34.96 14.5L24.8 14.5C24.49 14.5 24.18 14.36 23.96 14.11C23.73 13.86 23.61 13.52 23.61 13.16L23.61 2.47C23.61 2.11 23.73 1.77 23.96 1.52C24.18 1.27 24.49 1.13 24.8 1.13L33.77 1.13C34.08 1.13 34.39 1.27 34.61 1.52C34.84 1.77 34.96 2.11 34.96 2.47L34.96 17.17C34.96 18.95 34.33 20.65 33.21 21.9C32.09 23.15 30.57 23.86 28.99 23.86" stroke="#FFA726" stroke-opacity="1.000000" stroke-width="2.000000" stroke-linejoin="round" stroke-linecap="round"/>
		<path id="Vector" d="M16.38 14.5L6.22 14.5C5.91 14.5 5.6 14.36 5.38 14.11C5.15 13.86 5.03 13.52 5.03 13.16L5.03 2.47C5.03 2.11 5.15 1.77 5.38 1.52C5.6 1.27 5.91 1.13 6.22 1.13L15.19 1.13C15.5 1.13 15.81 1.27 16.03 1.52C16.26 1.77 16.38 2.11 16.38 2.47L16.38 17.17C16.38 18.95 15.75 20.65 14.63 21.9C13.51 23.15 11.99 23.86 10.41 23.86" stroke="#FFA726" stroke-opacity="1.000000" stroke-width="2.000000" stroke-linejoin="round" stroke-linecap="round"/>
	</g>
</svg>
