<svg width="32" height="25" viewBox="0 0 32 25" fill="none" xmlns="http://www.w3.org/2000/svg">
<path d="M30.9676 14.5055H20.808C20.491 14.5055 20.187 14.3646 19.9629 14.1139C19.7387 13.8632 19.6128 13.5231 19.6128 13.1686V2.47337C19.6128 2.11881 19.7387 1.77876 19.9629 1.52804C20.187 1.27733 20.491 1.13647 20.808 1.13647H29.7724C30.0894 1.13647 30.3934 1.27733 30.6176 1.52804C30.8417 1.77876 30.9676 2.11881 30.9676 2.47337V17.1793C30.9676 18.9521 30.338 20.6523 29.2172 21.9059C28.0965 23.1595 26.5764 23.8637 24.9914 23.8637" stroke="#FFA726" stroke-width="2" stroke-linecap="round" stroke-linejoin="round"/>
<path d="M12.3871 14.5055H2.22747C1.91047 14.5055 1.60646 14.3646 1.38231 14.1139C1.15815 13.8632 1.03223 13.5231 1.03223 13.1686V2.47337C1.03223 2.11881 1.15815 1.77876 1.38231 1.52804C1.60646 1.27733 1.91047 1.13647 2.22747 1.13647H11.1918C11.5088 1.13647 11.8128 1.27733 12.037 1.52804C12.2611 1.77876 12.3871 2.11881 12.3871 2.47337V17.1793C12.3871 18.9521 11.7574 20.6523 10.6367 21.9059C9.51591 23.1595 7.99583 23.8637 6.41083 23.8637" stroke="#FFA726" stroke-width="2" stroke-linecap="round" stroke-linejoin="round"/>
</svg>
