<svg width="120" height="120" viewBox="0 0 120 120" fill="none" xmlns="http://www.w3.org/2000/svg">
<path d="M5.83531 2.94222C5.83531 4.56672 4.52859 5.88444 2.91765 5.88444C1.30672 5.88444 0 4.56672 0 2.94222C0 1.31772 1.30672 0 2.91765 0C4.52859 0 5.83531 1.31772 5.83531 2.94222Z" fill="#CDE9FE"/>
<path d="M43.8893 2.94222C43.8893 4.56672 42.5825 5.88444 40.9716 5.88444C39.3607 5.88444 38.054 4.56672 38.054 2.94222C38.054 1.31772 39.3607 0 40.973 0C42.5839 0 43.8893 1.31772 43.8893 2.94222Z" fill="#CDE9FE"/>
<path d="M81.9447 2.94222C81.9447 4.56672 80.638 5.88444 79.027 5.88444C77.4161 5.88444 76.1094 4.56672 76.1094 2.94222C76.1094 1.31772 77.4161 0 79.027 0C80.638 0 81.9447 1.31772 81.9447 2.94222Z" fill="#CDE9FE"/>
<path d="M117.082 5.88444C118.694 5.88444 120 4.56716 120 2.94222C120 1.31728 118.694 0 117.082 0C115.471 0 114.165 1.31728 114.165 2.94222C114.165 4.56716 115.471 5.88444 117.082 5.88444Z" fill="#CDE9FE"/>
<path d="M5.83531 40.9807C5.83531 42.6052 4.52859 43.9229 2.91765 43.9229C1.30672 43.9229 0 42.6052 0 40.9807C0 39.3562 1.30672 38.0385 2.91765 38.0385C4.52859 38.0385 5.83531 39.3562 5.83531 40.9807Z" fill="#CDE9FE"/>
<path d="M43.8893 40.9807C43.8893 42.6052 42.5825 43.9229 40.9716 43.9229C39.3607 43.9229 38.054 42.6052 38.054 40.9807C38.054 39.3562 39.3607 38.0385 40.9716 38.0385C42.5839 38.0385 43.8893 39.3562 43.8893 40.9807Z" fill="#CDE9FE"/>
<path d="M81.9447 40.9807C81.9447 42.6052 80.638 43.9229 79.027 43.9229C77.4161 43.9229 76.1094 42.6052 76.1094 40.9807C76.1094 39.3562 77.4161 38.0385 79.027 38.0385C80.638 38.0385 81.9447 39.3562 81.9447 40.9807Z" fill="#CDE9FE"/>
<path d="M117.082 43.9229C118.694 43.9229 120 42.6056 120 40.9807C120 39.3557 118.694 38.0385 117.082 38.0385C115.471 38.0385 114.165 39.3557 114.165 40.9807C114.165 42.6056 115.471 43.9229 117.082 43.9229Z" fill="#CDE9FE"/>
<path d="M5.83531 79.0192C5.83531 80.6437 4.52859 81.9615 2.91765 81.9615C1.30672 81.9615 0 80.6451 0 79.0192C0 77.3948 1.30672 76.077 2.91765 76.077C4.52859 76.077 5.83531 77.3948 5.83531 79.0192Z" fill="#CDE9FE"/>
<path d="M43.8893 79.0192C43.8893 80.6437 42.5825 81.9615 40.9716 81.9615C39.3607 81.9615 38.054 80.6437 38.054 79.0192C38.054 77.3948 39.3607 76.077 40.9716 76.077C42.5839 76.077 43.8893 77.3948 43.8893 79.0192Z" fill="#CDE9FE"/>
<path d="M81.9447 79.0192C81.9447 80.6437 80.638 81.9615 79.027 81.9615C77.4161 81.9615 76.1094 80.6437 76.1094 79.0192C76.1094 77.3948 77.4161 76.077 79.027 76.077C80.638 76.077 81.9447 77.3948 81.9447 79.0192Z" fill="#CDE9FE"/>
<path d="M120 79.0192C120 80.6437 118.693 81.9615 117.082 81.9615C115.472 81.9615 114.165 80.6437 114.165 79.0192C114.165 77.3948 115.472 76.077 117.082 76.077C118.693 76.077 120 77.3948 120 79.0192Z" fill="#CDE9FE"/>
<path d="M5.83531 117.058C5.83531 118.682 4.52859 120 2.91765 120C1.30672 120 0 118.682 0 117.058C0 115.433 1.30672 114.115 2.91765 114.115C4.52859 114.115 5.83531 115.433 5.83531 117.058Z" fill="#CDE9FE"/>
<path d="M43.8893 117.058C43.8893 118.682 42.5825 120 40.9716 120C39.3607 120 38.054 118.682 38.054 117.058C38.054 115.433 39.3607 114.115 40.9716 114.115C42.5839 114.115 43.8893 115.433 43.8893 117.058Z" fill="#CDE9FE"/>
<path d="M81.9447 117.058C81.9447 118.682 80.638 120 79.027 120C77.4161 120 76.1094 118.682 76.1094 117.058C76.1094 115.433 77.4161 114.115 79.027 114.115C80.638 114.115 81.9447 115.433 81.9447 117.058Z" fill="#CDE9FE"/>
<path d="M117.082 120C118.694 120 120 118.683 120 117.058C120 115.433 118.694 114.115 117.082 114.115C115.471 114.115 114.165 115.433 114.165 117.058C114.165 118.683 115.471 120 117.082 120Z" fill="#CDE9FE"/>
</svg>
