<svg width="120" height="120" viewBox="0 0 120 120" fill="none" xmlns="http://www.w3.org/2000/svg">
<path d="M5.83531 2.94203C5.83531 4.56642 4.52859 5.88406 2.91766 5.88406C1.30672 5.88406 0 4.56642 0 2.94203C0 1.31764 1.30672 0 2.91766 0C4.52859 0 5.83531 1.31764 5.83531 2.94203Z" fill="#CDE9FE"/>
<path d="M43.8893 2.94203C43.8893 4.56642 42.5825 5.88406 40.9716 5.88406C39.3607 5.88406 38.054 4.56642 38.054 2.94203C38.054 1.31764 39.3607 0 40.973 0C42.5839 0 43.8893 1.31764 43.8893 2.94203Z" fill="#CDE9FE"/>
<path d="M81.9447 2.94203C81.9447 4.56642 80.638 5.88406 79.027 5.88406C77.4161 5.88406 76.1094 4.56642 76.1094 2.94203C76.1094 1.31764 77.4161 0 79.027 0C80.638 0 81.9447 1.31764 81.9447 2.94203Z" fill="#CDE9FE"/>
<path d="M117.082 5.88406C118.694 5.88406 120 4.56687 120 2.94203C120 1.31719 118.694 0 117.082 0C115.471 0 114.165 1.31719 114.165 2.94203C114.165 4.56687 115.471 5.88406 117.082 5.88406Z" fill="#CDE9FE"/>
<path d="M117.082 43.9226C118.694 43.9226 120 42.6054 120 40.9806C120 39.3558 118.694 38.0386 117.082 38.0386C115.471 38.0386 114.165 39.3558 114.165 40.9806C114.165 42.6054 115.471 43.9226 117.082 43.9226Z" fill="#CDE9FE"/>
<path d="M120 79.0192C120 80.6436 118.693 81.9612 117.082 81.9612C115.471 81.9612 114.165 80.6436 114.165 79.0192C114.165 77.3948 115.471 76.0771 117.082 76.0771C118.693 76.0771 120 77.3948 120 79.0192Z" fill="#CDE9FE"/>
<path d="M5.83531 117.058C5.83531 118.682 4.52859 120 2.91766 120C1.30672 120 0 118.682 0 117.058C0 115.434 1.30672 114.116 2.91766 114.116C4.52859 114.116 5.83531 115.434 5.83531 117.058Z" fill="#CDE9FE"/>
<path d="M43.8893 117.058C43.8893 118.682 42.5825 120 40.9716 120C39.3607 120 38.054 118.682 38.054 117.058C38.054 115.434 39.3607 114.116 40.9716 114.116C42.5839 114.116 43.8893 115.434 43.8893 117.058Z" fill="#CDE9FE"/>
<path d="M81.9447 117.058C81.9447 118.682 80.638 120 79.027 120C77.4161 120 76.1094 118.682 76.1094 117.058C76.1094 115.434 77.4161 114.116 79.027 114.116C80.638 114.116 81.9447 115.434 81.9447 117.058Z" fill="#CDE9FE"/>
<path d="M117.082 120C118.694 120 120 118.683 120 117.058C120 115.433 118.694 114.116 117.082 114.116C115.471 114.116 114.165 115.433 114.165 117.058C114.165 118.683 115.471 120 117.082 120Z" fill="#CDE9FE"/>
</svg>
