<svg width="122" height="120" viewBox="0 0 122 120" fill="none" xmlns="http://www.w3.org/2000/svg">
<path d="M5.8961 2.94203C5.8961 4.56642 4.57576 5.88406 2.94805 5.88406C1.32033 5.88406 0 4.56642 0 2.94203C0 1.31764 1.32033 0 2.94805 0C4.57576 0 5.8961 1.31764 5.8961 2.94203Z" fill="#CDE9FE"/>
<path d="M44.3465 2.94203C44.3465 4.56642 43.0262 5.88406 41.3985 5.88406C39.7708 5.88406 38.4504 4.56642 38.4504 2.94203C38.4504 1.31764 39.7708 0 41.3999 0C43.0276 0 44.3465 1.31764 44.3465 2.94203Z" fill="#CDE9FE"/>
<path d="M82.7984 2.94203C82.7984 4.56642 81.4781 5.88406 79.8504 5.88406C78.2227 5.88406 76.9023 4.56642 76.9023 2.94203C76.9023 1.31764 78.2227 0 79.8504 0C81.4781 0 82.7984 1.31764 82.7984 2.94203Z" fill="#CDE9FE"/>
<path d="M118.302 5.88406C119.93 5.88406 121.25 4.56687 121.25 2.94203C121.25 1.31719 119.93 0 118.302 0C116.674 0 115.354 1.31719 115.354 2.94203C115.354 4.56687 116.674 5.88406 118.302 5.88406Z" fill="#CDE9FE"/>
<path d="M5.8961 40.9806C5.8961 42.605 4.57576 43.9226 2.94805 43.9226C1.32033 43.9226 0 42.605 0 40.9806C0 39.3562 1.32033 38.0386 2.94805 38.0386C4.57576 38.0386 5.8961 39.3562 5.8961 40.9806Z" fill="#CDE9FE"/>
<path d="M44.3465 40.9806C44.3465 42.605 43.0262 43.9226 41.3985 43.9226C39.7708 43.9226 38.4504 42.605 38.4504 40.9806C38.4504 39.3562 39.7708 38.0386 41.3985 38.0386C43.0276 38.0386 44.3465 39.3562 44.3465 40.9806Z" fill="#CDE9FE"/>
<path d="M82.7982 40.9806C82.7982 42.605 81.4779 43.9226 79.8501 43.9226C78.2224 43.9226 76.9021 42.605 76.9021 40.9806C76.9021 39.3562 78.2224 38.0386 79.8501 38.0386C81.4779 38.0386 82.7982 39.3562 82.7982 40.9806Z" fill="#CDE9FE"/>
<path d="M118.302 43.9226C119.93 43.9226 121.25 42.6054 121.25 40.9806C121.25 39.3558 119.93 38.0386 118.302 38.0386C116.674 38.0386 115.354 39.3558 115.354 40.9806C115.354 42.6054 116.674 43.9226 118.302 43.9226Z" fill="#CDE9FE"/>
<path d="M5.8961 79.0192C5.8961 80.6436 4.57576 81.9612 2.94805 81.9612C1.32033 81.9612 0 80.645 0 79.0192C0 77.3948 1.32033 76.0771 2.94805 76.0771C4.57576 76.0771 5.8961 77.3948 5.8961 79.0192Z" fill="#CDE9FE"/>
<path d="M44.3465 79.0192C44.3465 80.6436 43.0262 81.9612 41.3985 81.9612C39.7708 81.9612 38.4504 80.6436 38.4504 79.0192C38.4504 77.3948 39.7708 76.0771 41.3985 76.0771C43.0276 76.0771 44.3465 77.3948 44.3465 79.0192Z" fill="#CDE9FE"/>
<path d="M82.7982 79.0192C82.7982 80.6436 81.4779 81.9612 79.8501 81.9612C78.2224 81.9612 76.9021 80.6436 76.9021 79.0192C76.9021 77.3948 78.2224 76.0771 79.8501 76.0771C81.4779 76.0771 82.7982 77.3948 82.7982 79.0192Z" fill="#CDE9FE"/>
<path d="M121.25 79.0192C121.25 80.6436 119.93 81.9612 118.302 81.9612C116.674 81.9612 115.354 80.6436 115.354 79.0192C115.354 77.3948 116.674 76.0771 118.302 76.0771C119.93 76.0771 121.25 77.3948 121.25 79.0192Z" fill="#CDE9FE"/>
<path d="M5.8961 117.058C5.8961 118.682 4.57576 120 2.94805 120C1.32033 120 0 118.682 0 117.058C0 115.434 1.32033 114.116 2.94805 114.116C4.57576 114.116 5.8961 115.434 5.8961 117.058Z" fill="#CDE9FE"/>
<path d="M44.3465 117.058C44.3465 118.682 43.0262 120 41.3985 120C39.7708 120 38.4504 118.682 38.4504 117.058C38.4504 115.434 39.7708 114.116 41.3985 114.116C43.0276 114.116 44.3465 115.434 44.3465 117.058Z" fill="#CDE9FE"/>
<path d="M82.7982 117.058C82.7982 118.682 81.4779 120 79.8501 120C78.2224 120 76.9021 118.682 76.9021 117.058C76.9021 115.434 78.2224 114.116 79.8501 114.116C81.4779 114.116 82.7982 115.434 82.7982 117.058Z" fill="#CDE9FE"/>
<path d="M118.302 120C119.93 120 121.25 118.683 121.25 117.058C121.25 115.433 119.93 114.116 118.302 114.116C116.674 114.116 115.354 115.433 115.354 117.058C115.354 118.683 116.674 120 118.302 120Z" fill="#CDE9FE"/>
</svg>
