<svg width="48" height="48" viewBox="0 0 48 48" fill="none" xmlns="http://www.w3.org/2000/svg">
<circle cx="24" cy="24" r="20" fill="#263238"/>
<circle cx="24" cy="24" r="23.5" stroke="#FFA726"/>
<path d="M33.8063 29.1153C33.8063 29.0322 33.7232 29.0322 33.7232 28.9492C33.3911 28.285 32.6439 27.4548 31.6477 26.5416C31.1495 26.1264 30.9004 25.7943 30.7344 25.6283C30.4853 25.2962 30.4853 25.0471 30.5684 24.715C30.6514 24.466 30.9835 24.0509 31.5646 23.3036C31.8967 22.8885 32.0628 22.6395 32.3118 22.3904C33.5572 20.7299 34.1383 19.6506 33.9723 19.1525L33.8893 19.0695C33.8063 18.9865 33.7232 18.9034 33.5572 18.9034C33.3911 18.8204 33.1421 18.8204 32.893 18.9034H29.7381C29.6551 18.9034 29.6551 18.9034 29.4891 18.9034C29.406 18.9034 29.323 18.9034 29.323 18.9034H29.24H29.157L29.0739 18.9865C28.9909 19.0695 28.9909 19.0695 28.9909 19.1525C28.6588 20.0658 28.2437 20.813 27.8286 21.6432C27.5795 22.0583 27.3305 22.4734 27.0814 22.8055C26.8323 23.1376 26.6663 23.3867 26.5002 23.5527C26.3342 23.7188 26.1681 23.8018 26.0851 23.9678C26.0021 24.0509 25.8361 24.1339 25.8361 24.0509C25.753 24.0509 25.67 24.0509 25.67 23.9678C25.587 23.8848 25.504 23.8018 25.4209 23.7188C25.3379 23.6357 25.3379 23.4697 25.2549 23.3036C25.2549 23.1376 25.2549 22.9716 25.2549 22.8885C25.2549 22.8055 25.2549 22.5564 25.2549 22.3904C25.2549 22.1413 25.2549 21.9753 25.2549 21.8923C25.2549 21.6432 25.2549 21.3111 25.2549 20.979C25.2549 20.6469 25.2549 20.3978 25.2549 20.2318C25.2549 20.0658 25.2549 19.8167 25.2549 19.6506C25.2549 19.4016 25.2549 19.2355 25.2549 19.1525C25.2549 19.0695 25.1719 18.9034 25.1719 18.8204C25.0889 18.7374 25.0058 18.6544 24.9228 18.5713C24.8398 18.4883 24.6737 18.4883 24.5907 18.4053C24.1756 18.3223 23.6775 18.2393 23.0963 18.2393C21.7679 18.2393 20.8547 18.3223 20.5226 18.4883C20.3565 18.5714 20.1905 18.6544 20.1075 18.8204C19.9414 18.9865 19.9414 19.0695 20.0245 19.0695C20.4396 19.1525 20.7717 19.3185 20.9377 19.5676L21.0207 19.7337C21.1038 19.8167 21.1037 19.9827 21.1868 20.2318C21.2698 20.4809 21.2698 20.7299 21.2698 21.062C21.2698 21.5602 21.2698 22.0583 21.2698 22.3904C21.2698 22.8055 21.1868 23.0546 21.1868 23.3036C21.1868 23.5527 21.1038 23.7188 21.0207 23.8018C20.9377 23.9678 20.9377 24.0509 20.8547 24.0509C20.8547 24.0509 20.8547 24.1339 20.7717 24.1339C20.6886 24.1339 20.6056 24.2169 20.4396 24.2169C20.3565 24.2169 20.1905 24.1339 20.1075 24.0509C19.9414 23.9678 19.7754 23.8018 19.6924 23.6357C19.5263 23.4697 19.3603 23.2206 19.1942 22.8885C19.0282 22.5564 18.7791 22.2244 18.6131 21.7262L18.447 21.3941C18.364 21.2281 18.198 20.896 18.0319 20.4809C17.8659 20.0658 17.6998 19.7337 17.5338 19.3186C17.4507 19.1525 17.3677 19.0695 17.2847 18.9865H17.2017C17.2017 18.9865 17.1186 18.9034 17.0356 18.9034C16.9526 18.9034 16.8696 18.8204 16.7866 18.8204H13.7977C13.4656 18.8204 13.2996 18.9034 13.2166 18.9865L13.1335 19.0695C13.1335 19.0695 13.1335 19.1525 13.1335 19.2355C13.1335 19.3186 13.1335 19.4016 13.2166 19.5676C13.6317 20.5639 14.1298 21.5602 14.628 22.5564C15.1261 23.4697 15.6242 24.2999 15.9563 24.8811C16.3714 25.4623 16.7035 26.0434 17.1186 26.5416C17.5338 27.0397 17.7828 27.3718 17.8658 27.5378C18.0319 27.7039 18.1149 27.7869 18.1979 27.8699L18.447 28.119C18.6131 28.285 18.8621 28.5341 19.1942 28.7832C19.5263 29.0322 19.9414 29.2813 20.3565 29.5304C20.7717 29.7794 21.2698 29.9455 21.7679 30.1115C22.3491 30.2776 22.8472 30.3606 23.3454 30.2776H24.5907C24.8398 30.2776 25.0058 30.1946 25.1719 30.0285L25.2549 29.9455C25.2549 29.8625 25.3379 29.8625 25.3379 29.7794C25.3379 29.6964 25.3379 29.6134 25.3379 29.4474C25.3379 29.1153 25.3379 28.8662 25.4209 28.6171C25.504 28.3681 25.504 28.202 25.587 28.036C25.67 27.8699 25.753 27.7869 25.8361 27.7039C25.9191 27.6208 26.0021 27.5378 26.0021 27.5378H26.0851C26.2512 27.4548 26.5002 27.5378 26.6663 27.7039C26.9154 27.8699 27.1644 28.119 27.3305 28.3681C27.4965 28.6171 27.7456 28.8662 28.0777 29.1983C28.4098 29.5304 28.6588 29.7794 28.8249 29.8625L29.0739 30.0285C29.24 30.1115 29.406 30.1946 29.6551 30.2776C29.9042 30.3606 30.0702 30.3606 30.2363 30.3606L33.0591 30.2776C33.3081 30.2776 33.5572 30.1946 33.7232 30.1115C33.8893 30.0285 33.9723 29.9455 33.9723 29.7794C33.9723 29.6964 33.9723 29.5304 33.9723 29.4474C33.8062 29.2813 33.8063 29.1983 33.8063 29.1153Z" fill="white"/>
</svg>
