<svg width="48" height="48" viewBox="0 0 48 48" fill="none" xmlns="http://www.w3.org/2000/svg">
<circle cx="24" cy="24" r="20" fill="#263238"/>
<circle cx="24" cy="24" r="23.5" stroke="#FFA726"/>
<path d="M32.7131 22.9131C32.7131 22.5252 32.6485 22.0727 32.6485 21.5556C32.5839 21.0384 32.5192 20.5212 32.4545 20.0687C32.3253 19.5515 32.1313 19.1636 31.7434 18.8404C31.4202 18.5172 30.9677 18.3232 30.5152 18.2586C29.0283 18.0646 26.8303 18 23.8566 18C20.8828 18 18.6202 18.0646 17.198 18.2586C16.7455 18.3232 16.2929 18.5172 15.9697 18.8404C15.6465 19.1636 15.3879 19.5515 15.2586 20.0687C15.1293 20.5212 15.0647 20.9737 15.0647 21.5556C15 22.0727 15 22.5252 15 22.9131C15 23.301 15 23.7535 15 24.4C15 25.0465 15 25.5636 15 25.8869C15 26.2747 15.0647 26.7273 15.0647 27.2444C15.1293 27.7616 15.1939 28.2788 15.2586 28.7313C15.3879 29.2485 15.5818 29.6364 15.9697 29.9596C16.2929 30.2828 16.7455 30.4768 17.198 30.5414C18.6848 30.7354 20.8828 30.8 23.8566 30.8C26.8303 30.8 29.0929 30.7354 30.5152 30.5414C30.9677 30.4768 31.4202 30.2828 31.7434 29.9596C32.0667 29.6364 32.3253 29.2485 32.4545 28.7313C32.5838 28.2788 32.6485 27.8263 32.6485 27.2444C32.7131 26.7273 32.7131 26.2747 32.7131 25.8869C32.7131 25.499 32.7131 25.0465 32.7131 24.4C32.7131 23.7535 32.7131 23.2364 32.7131 22.9131ZM27.2828 24.9172L22.1758 28.0848C22.1111 28.1495 21.9818 28.2141 21.8525 28.2141C21.7232 28.2141 21.6586 28.2141 21.5293 28.1495C21.3354 28.0202 21.2061 27.8263 21.2061 27.5677V21.1677C21.2061 20.9091 21.3354 20.7152 21.5293 20.5859C21.7232 20.4566 21.9818 20.4566 22.1758 20.5859L27.2828 23.7535C27.4768 23.8828 27.6061 24.0768 27.6061 24.2707C27.6061 24.4646 27.4768 24.7879 27.2828 24.9172Z" fill="white"/>
</svg>
